G04*
G04 #@! TF.GenerationSoftware,Altium Limited,Altium Designer,22.7.1 (60)*
G04*
G04 Layer_Color=16711935*
%FSLAX43Y43*%
%MOMM*%
G71*
G04*
G04 #@! TF.SameCoordinates,26706279-76B3-4EFB-AC1E-C542CE9A8173*
G04*
G04*
G04 #@! TF.FilePolarity,Negative*
G04*
G01*
G75*
%ADD22R,1.500X1.150*%
%ADD27R,1.100X1.500*%
%ADD33R,1.150X1.500*%
G04:AMPARAMS|DCode=44|XSize=1.1mm|YSize=1.5mm|CornerRadius=0mm|HoleSize=0mm|Usage=FLASHONLY|Rotation=330.000|XOffset=0mm|YOffset=0mm|HoleType=Round|Shape=Rectangle|*
%AMROTATEDRECTD44*
4,1,4,-0.851,-0.375,-0.101,0.925,0.851,0.375,0.101,-0.925,-0.851,-0.375,0.0*
%
%ADD44ROTATEDRECTD44*%

%ADD64R,5.500X2.100*%
%ADD134C,1.500*%
%ADD135R,1.500X1.500*%
%ADD136C,1.603*%
%ADD137R,1.500X1.500*%
%ADD138C,1.300*%
%ADD139P,1.838X4X240.0*%
%ADD140C,1.600*%
%ADD141C,3.100*%
%ADD142C,1.400*%
%ADD143P,2.121X4X240.0*%
%ADD144C,5.600*%
%ADD145R,1.800X1.800*%
%ADD146C,1.800*%
G04:AMPARAMS|DCode=290|XSize=1.5mm|YSize=1.15mm|CornerRadius=0mm|HoleSize=0mm|Usage=FLASHONLY|Rotation=135.000|XOffset=0mm|YOffset=0mm|HoleType=Round|Shape=Rectangle|*
%AMROTATEDRECTD290*
4,1,4,0.937,-0.124,0.124,-0.937,-0.937,0.124,-0.124,0.937,0.937,-0.124,0.0*
%
%ADD290ROTATEDRECTD290*%

G04:AMPARAMS|DCode=291|XSize=1.5mm|YSize=1.15mm|CornerRadius=0mm|HoleSize=0mm|Usage=FLASHONLY|Rotation=45.000|XOffset=0mm|YOffset=0mm|HoleType=Round|Shape=Rectangle|*
%AMROTATEDRECTD291*
4,1,4,-0.124,-0.937,-0.937,-0.124,0.124,0.937,0.937,0.124,-0.124,-0.937,0.0*
%
%ADD291ROTATEDRECTD291*%

G04:AMPARAMS|DCode=292|XSize=1.1mm|YSize=1.5mm|CornerRadius=0mm|HoleSize=0mm|Usage=FLASHONLY|Rotation=45.000|XOffset=0mm|YOffset=0mm|HoleType=Round|Shape=Rectangle|*
%AMROTATEDRECTD292*
4,1,4,0.141,-0.919,-0.919,0.141,-0.141,0.919,0.919,-0.141,0.141,-0.919,0.0*
%
%ADD292ROTATEDRECTD292*%

G04:AMPARAMS|DCode=293|XSize=1.1mm|YSize=1.5mm|CornerRadius=0mm|HoleSize=0mm|Usage=FLASHONLY|Rotation=315.000|XOffset=0mm|YOffset=0mm|HoleType=Round|Shape=Rectangle|*
%AMROTATEDRECTD293*
4,1,4,-0.919,-0.141,0.141,0.919,0.919,0.141,-0.141,-0.919,-0.919,-0.141,0.0*
%
%ADD293ROTATEDRECTD293*%

G04:AMPARAMS|DCode=294|XSize=1.1mm|YSize=1.5mm|CornerRadius=0mm|HoleSize=0mm|Usage=FLASHONLY|Rotation=210.000|XOffset=0mm|YOffset=0mm|HoleType=Round|Shape=Rectangle|*
%AMROTATEDRECTD294*
4,1,4,0.101,0.925,0.851,-0.375,-0.101,-0.925,-0.851,0.375,0.101,0.925,0.0*
%
%ADD294ROTATEDRECTD294*%

D22*
X478000Y478875D02*
D03*
Y480725D02*
D03*
X482400Y596525D02*
D03*
Y594675D02*
D03*
D27*
X346300Y527100D02*
D03*
X344300D02*
D03*
X343300Y532500D02*
D03*
X345300Y532500D02*
D03*
X389275Y605750D02*
D03*
X391275D02*
D03*
X389275Y603650D02*
D03*
X391275D02*
D03*
X422575Y616250D02*
D03*
X424575D02*
D03*
X422575Y614150D02*
D03*
X424575D02*
D03*
X455875Y617250D02*
D03*
X457875D02*
D03*
X455875Y615150D02*
D03*
X457875D02*
D03*
X457925Y458700D02*
D03*
X455925D02*
D03*
X457925Y460800D02*
D03*
X455925D02*
D03*
X424625Y459775D02*
D03*
X422625Y459775D02*
D03*
X391325Y472400D02*
D03*
X389325Y472400D02*
D03*
X391350Y470300D02*
D03*
X389350D02*
D03*
X424625Y461850D02*
D03*
X422625Y461850D02*
D03*
D33*
X356775Y581800D02*
D03*
X358625D02*
D03*
X399225Y597800D02*
D03*
X397375D02*
D03*
X352925Y498000D02*
D03*
X351075D02*
D03*
D44*
X355366Y481400D02*
D03*
X353634Y482400D02*
D03*
X356466Y483200D02*
D03*
X354734Y484200D02*
D03*
D64*
X342800Y534900D02*
D03*
X342800Y540500D02*
D03*
D134*
X340360Y558100D02*
D03*
X337820D02*
D03*
X345440D02*
D03*
X309200Y524040D02*
D03*
Y526580D02*
D03*
Y518960D02*
D03*
Y516420D02*
D03*
X300185Y529965D02*
D03*
X302638Y530622D02*
D03*
X304843Y512578D02*
D03*
X309750Y513893D02*
D03*
X305092Y531279D02*
D03*
X307297Y513235D02*
D03*
X329552Y519199D02*
D03*
X332005Y519856D02*
D03*
X334459Y520513D02*
D03*
X324893Y536585D02*
D03*
X327347Y537243D02*
D03*
D135*
X335280Y558100D02*
D03*
D136*
X342900D02*
D03*
X309200Y521500D02*
D03*
D137*
Y529120D02*
D03*
D138*
X326700Y523800D02*
D03*
X328224Y534145D02*
D03*
D139*
X329153Y524457D02*
D03*
X325771Y533487D02*
D03*
D140*
X337300Y542600D02*
D03*
X472500Y634500D02*
D03*
Y629750D02*
D03*
X355500Y456300D02*
D03*
X358800Y459200D02*
D03*
X393700Y448500D02*
D03*
X391455Y445083D02*
D03*
X431600Y432500D02*
D03*
Y437100D02*
D03*
X473750Y445250D02*
D03*
Y440750D02*
D03*
X514500Y485750D02*
D03*
X512500Y483750D02*
D03*
X506250Y584500D02*
D03*
X510500Y578750D02*
D03*
X326400Y501000D02*
D03*
X329600Y502200D02*
D03*
X525400Y512400D02*
D03*
X432800Y633300D02*
D03*
X435600Y635300D02*
D03*
X398200Y629300D02*
D03*
X403300Y632400D02*
D03*
X331800Y581300D02*
D03*
X334100Y579900D02*
D03*
X363400Y612300D02*
D03*
X362858Y615142D02*
D03*
D141*
X299900Y540271D02*
D03*
Y552310D02*
D03*
D142*
X302610Y547541D02*
D03*
X304610D02*
D03*
Y545041D02*
D03*
X302610Y545041D02*
D03*
D143*
X329800Y537900D02*
D03*
D144*
X302461Y490083D02*
D03*
X342461Y458083D02*
D03*
X380461Y445083D02*
D03*
X416461Y438083D02*
D03*
X458461Y441083D02*
D03*
X498461Y458083D02*
D03*
X528461Y484083D02*
D03*
Y596083D02*
D03*
X498461Y622083D02*
D03*
X458461Y639083D02*
D03*
X416461Y642083D02*
D03*
X380461Y635083D02*
D03*
X342461Y622083D02*
D03*
X302461Y585083D02*
D03*
D145*
X534000Y552300D02*
D03*
D146*
Y557300D02*
D03*
D290*
X450254Y475254D02*
D03*
X448946Y473946D02*
D03*
X417854Y475354D02*
D03*
X416546Y474046D02*
D03*
X380646Y482246D02*
D03*
X381954Y483554D02*
D03*
D291*
X448554Y598446D02*
D03*
X447246Y599754D02*
D03*
X416254Y598546D02*
D03*
X414946Y599854D02*
D03*
D292*
X352543Y592718D02*
D03*
X353957Y594132D02*
D03*
X354043Y591218D02*
D03*
X355457Y592632D02*
D03*
D293*
X493293Y604482D02*
D03*
X494707Y603068D02*
D03*
X491818Y603007D02*
D03*
X493232Y601593D02*
D03*
D294*
X493941Y472050D02*
D03*
X492209Y471050D02*
D03*
X492841Y473850D02*
D03*
X491109Y472850D02*
D03*
M02*
