G04*
G04 #@! TF.GenerationSoftware,Altium Limited,Altium Designer,22.7.1 (60)*
G04*
G04 Layer_Physical_Order=3*
G04 Layer_Color=255*
%FSLAX43Y43*%
%MOMM*%
G71*
G04*
G04 #@! TF.SameCoordinates,26706279-76B3-4EFB-AC1E-C542CE9A8173*
G04*
G04*
G04 #@! TF.FilePolarity,Positive*
G04*
G01*
G75*
%ADD142C,1.400*%
%ADD280P,1.980X4X240.0*%
%ADD283C,1.700*%
%ADD284C,0.700*%
G36*
X431126Y648576D02*
X434833Y648452D01*
X438515Y648228D01*
X442172Y647905D01*
X445807Y647482D01*
X449421Y646961D01*
X453016Y646339D01*
X456235Y645695D01*
X459440Y644970D01*
X462633Y644163D01*
X465814Y643275D01*
X468983Y642304D01*
X472143Y641250D01*
X475294Y640113D01*
X478444Y638887D01*
X481585Y637577D01*
X481585Y637577D01*
X485422Y635974D01*
X489699Y634118D01*
X493704Y632290D01*
X497469Y630477D01*
X501010Y628671D01*
X504373Y626854D01*
X507546Y625034D01*
X510565Y623196D01*
X513417Y621350D01*
X516127Y619484D01*
X518698Y617600D01*
X521129Y615700D01*
X523442Y613773D01*
X525628Y611827D01*
X527691Y609864D01*
X529645Y607873D01*
X531490Y605854D01*
X533227Y603813D01*
X534857Y601747D01*
X536386Y599655D01*
X537773Y597598D01*
X539041Y595555D01*
Y481271D01*
X538307Y479940D01*
X537497Y478553D01*
X536213Y476498D01*
X534839Y474459D01*
X533392Y472461D01*
X531875Y470509D01*
X530282Y468594D01*
X528624Y466731D01*
X526909Y464926D01*
X524946Y462998D01*
X523070Y461281D01*
X521107Y459600D01*
X519040Y457943D01*
X516859Y456308D01*
X514561Y454694D01*
X512119Y453089D01*
X509518Y451486D01*
X506719Y449869D01*
X503624Y448192D01*
X500107Y446402D01*
X496183Y444515D01*
X486368Y440026D01*
X486365Y440024D01*
X486363Y440023D01*
X482960Y438419D01*
X480147Y437242D01*
X477316Y436129D01*
X473834Y434860D01*
X470337Y433692D01*
X466822Y432625D01*
X463287Y431657D01*
X459731Y430789D01*
X456513Y430092D01*
X453276Y429475D01*
X450018Y428938D01*
X446740Y428480D01*
X443440Y428103D01*
X440116Y427805D01*
X436769Y427589D01*
X433396Y427453D01*
X429996Y427399D01*
X426569Y427427D01*
X423113Y427537D01*
X419627Y427732D01*
X416109Y428011D01*
X412560Y428376D01*
X408977Y428827D01*
X405359Y429367D01*
X401705Y429996D01*
X398015Y430715D01*
X394286Y431526D01*
X390518Y432432D01*
X386709Y433432D01*
X382859Y434530D01*
X378966Y435726D01*
X375004Y437031D01*
X371017Y438433D01*
X368816Y439208D01*
X368811Y439208D01*
X368806Y439211D01*
X365182Y440390D01*
X365181Y440390D01*
X365180Y440391D01*
X358182Y442638D01*
X353649Y444162D01*
X349551Y445623D01*
X345717Y447081D01*
X342161Y448527D01*
X338850Y449969D01*
X335706Y451437D01*
X332684Y452952D01*
X329784Y454512D01*
X327041Y456091D01*
X324419Y457710D01*
X321916Y459366D01*
X319527Y461060D01*
X317234Y462803D01*
X315039Y464592D01*
X312952Y466416D01*
X310961Y468284D01*
X309059Y470200D01*
X307241Y472171D01*
X305508Y474194D01*
X303889Y476231D01*
X302378Y478285D01*
X301043Y480249D01*
X299740Y482318D01*
X298525Y484400D01*
X297345Y486601D01*
X296174Y488983D01*
X295043Y491497D01*
X293922Y494224D01*
X292863Y497042D01*
X289959Y505696D01*
Y569891D01*
X290752Y571463D01*
X290754Y571471D01*
X290759Y571478D01*
X291997Y574167D01*
X291997Y574169D01*
X291999Y574170D01*
X295446Y581816D01*
X297006Y585049D01*
X298539Y588015D01*
X300023Y590689D01*
X301515Y593192D01*
X303003Y595519D01*
X304514Y597718D01*
X306056Y599812D01*
X307632Y601806D01*
X309240Y603704D01*
X311056Y605700D01*
X312933Y607617D01*
X314914Y609500D01*
X316983Y611331D01*
X319139Y613108D01*
X321392Y614840D01*
X323749Y616529D01*
X326200Y618165D01*
X328760Y619758D01*
X331457Y621323D01*
X334269Y622843D01*
X337221Y624330D01*
X340367Y625808D01*
X343684Y627262D01*
X347268Y628732D01*
X351168Y630233D01*
X355648Y631865D01*
X366695Y635777D01*
X366701Y635780D01*
X366708Y635782D01*
X369253Y636774D01*
X369261Y636779D01*
X369269Y636781D01*
X370524Y637325D01*
X370532Y637331D01*
X370542Y637333D01*
X371044Y637577D01*
X373356Y638419D01*
X375680Y639234D01*
X379908Y640634D01*
X384087Y641913D01*
X388221Y643074D01*
X392311Y644119D01*
X396359Y645050D01*
X400365Y645868D01*
X404332Y646577D01*
X408261Y647177D01*
X412154Y647670D01*
X416012Y648057D01*
X419836Y648340D01*
X423629Y648521D01*
X427392Y648599D01*
X431126Y648576D01*
D02*
G37*
%LPC*%
G36*
X416461Y645193D02*
X415974Y645154D01*
X415500Y645041D01*
X415049Y644854D01*
X414633Y644599D01*
X414262Y644282D01*
X413945Y643911D01*
X413690Y643495D01*
X413503Y643044D01*
X413390Y642570D01*
X413351Y642083D01*
X413390Y641597D01*
X413503Y641122D01*
X413690Y640671D01*
X413945Y640255D01*
X414262Y639884D01*
X414633Y639567D01*
X415049Y639312D01*
X415500Y639126D01*
X415974Y639012D01*
X416461Y638974D01*
X416947Y639012D01*
X417422Y639126D01*
X417873Y639312D01*
X418289Y639567D01*
X418660Y639884D01*
X418977Y640255D01*
X419232Y640671D01*
X419418Y641122D01*
X419532Y641597D01*
X419570Y642083D01*
X419532Y642570D01*
X419418Y643044D01*
X419232Y643495D01*
X418977Y643911D01*
X418660Y644282D01*
X418289Y644599D01*
X417873Y644854D01*
X417422Y645041D01*
X416947Y645154D01*
X416461Y645193D01*
D02*
G37*
G36*
X458461Y642193D02*
X457974Y642154D01*
X457500Y642041D01*
X457049Y641854D01*
X456633Y641599D01*
X456262Y641282D01*
X455945Y640911D01*
X455690Y640495D01*
X455503Y640044D01*
X455390Y639570D01*
X455351Y639083D01*
X455390Y638597D01*
X455503Y638122D01*
X455690Y637671D01*
X455945Y637255D01*
X456262Y636884D01*
X456633Y636568D01*
X457049Y636312D01*
X457500Y636126D01*
X457974Y636012D01*
X458461Y635974D01*
X458947Y636012D01*
X459422Y636126D01*
X459873Y636312D01*
X460289Y636568D01*
X460660Y636884D01*
X460977Y637255D01*
X461232Y637671D01*
X461418Y638122D01*
X461532Y638597D01*
X461570Y639083D01*
X461532Y639570D01*
X461418Y640044D01*
X461232Y640495D01*
X460977Y640911D01*
X460660Y641282D01*
X460289Y641599D01*
X459873Y641854D01*
X459422Y642041D01*
X458947Y642154D01*
X458461Y642193D01*
D02*
G37*
G36*
X410075Y638706D02*
X409892Y638682D01*
X409722Y638611D01*
X409576Y638499D01*
X409464Y638353D01*
X409393Y638183D01*
X409369Y638000D01*
X409393Y637817D01*
X409464Y637647D01*
X409576Y637501D01*
X409722Y637389D01*
X409892Y637318D01*
X409995Y637305D01*
X410005Y637303D01*
Y637175D01*
X409993Y637174D01*
X409867Y637157D01*
X409697Y637086D01*
X409551Y636974D01*
X409439Y636828D01*
X409368Y636658D01*
X409344Y636475D01*
X409368Y636292D01*
X409439Y636122D01*
X409551Y635976D01*
X409697Y635864D01*
X409867Y635793D01*
X410050Y635769D01*
X410233Y635793D01*
X410403Y635864D01*
X410549Y635976D01*
X410661Y636122D01*
X410732Y636292D01*
X410756Y636475D01*
X410732Y636658D01*
X410661Y636828D01*
X410549Y636974D01*
X410403Y637086D01*
X410233Y637157D01*
X410130Y637171D01*
X410120Y637172D01*
Y637300D01*
X410132Y637301D01*
X410258Y637318D01*
X410428Y637389D01*
X410574Y637501D01*
X410686Y637647D01*
X410757Y637817D01*
X410781Y638000D01*
X410757Y638183D01*
X410686Y638353D01*
X410574Y638499D01*
X410428Y638611D01*
X410258Y638682D01*
X410075Y638706D01*
D02*
G37*
G36*
X435600Y636409D02*
X435313Y636372D01*
X435045Y636261D01*
X434815Y636085D01*
X434639Y635855D01*
X434528Y635587D01*
X434491Y635300D01*
X434528Y635013D01*
X434639Y634745D01*
X434815Y634515D01*
X435045Y634339D01*
X435313Y634228D01*
X435600Y634190D01*
X435887Y634228D01*
X436155Y634339D01*
X436385Y634515D01*
X436561Y634745D01*
X436672Y635013D01*
X436710Y635300D01*
X436672Y635587D01*
X436561Y635855D01*
X436385Y636085D01*
X436155Y636261D01*
X435887Y636372D01*
X435600Y636409D01*
D02*
G37*
G36*
X472500Y635609D02*
X472213Y635572D01*
X471945Y635461D01*
X471715Y635285D01*
X471539Y635055D01*
X471428Y634787D01*
X471391Y634500D01*
X471428Y634213D01*
X471539Y633945D01*
X471715Y633715D01*
X471945Y633539D01*
X472213Y633428D01*
X472500Y633391D01*
X472787Y633428D01*
X473055Y633539D01*
X473285Y633715D01*
X473461Y633945D01*
X473572Y634213D01*
X473609Y634500D01*
X473572Y634787D01*
X473461Y635055D01*
X473285Y635285D01*
X473055Y635461D01*
X472787Y635572D01*
X472500Y635609D01*
D02*
G37*
G36*
X432800Y634409D02*
X432513Y634372D01*
X432245Y634261D01*
X432015Y634085D01*
X431839Y633855D01*
X431728Y633587D01*
X431691Y633300D01*
X431728Y633013D01*
X431839Y632745D01*
X432015Y632515D01*
X432245Y632339D01*
X432513Y632228D01*
X432800Y632190D01*
X433087Y632228D01*
X433355Y632339D01*
X433585Y632515D01*
X433761Y632745D01*
X433872Y633013D01*
X433909Y633300D01*
X433872Y633587D01*
X433761Y633855D01*
X433585Y634085D01*
X433355Y634261D01*
X433087Y634372D01*
X432800Y634409D01*
D02*
G37*
G36*
X449175Y633451D02*
X448992Y633427D01*
X448822Y633356D01*
X448676Y633244D01*
X448564Y633098D01*
X448493Y632928D01*
X448469Y632745D01*
X448493Y632562D01*
X448564Y632392D01*
X448676Y632246D01*
X448822Y632133D01*
X448992Y632063D01*
X449175Y632039D01*
X449358Y632063D01*
X449528Y632133D01*
X449674Y632246D01*
X449786Y632392D01*
X449857Y632562D01*
X449881Y632745D01*
X449857Y632928D01*
X449786Y633098D01*
X449674Y633244D01*
X449528Y633356D01*
X449358Y633427D01*
X449175Y633451D01*
D02*
G37*
G36*
X380461Y638193D02*
X379974Y638154D01*
X379500Y638041D01*
X379049Y637854D01*
X378633Y637599D01*
X378262Y637282D01*
X377945Y636911D01*
X377690Y636495D01*
X377503Y636044D01*
X377390Y635570D01*
X377351Y635083D01*
X377390Y634597D01*
X377503Y634122D01*
X377690Y633671D01*
X377945Y633255D01*
X378262Y632884D01*
X378633Y632567D01*
X379049Y632312D01*
X379500Y632126D01*
X379974Y632012D01*
X380461Y631974D01*
X380947Y632012D01*
X381422Y632126D01*
X381873Y632312D01*
X382289Y632567D01*
X382660Y632884D01*
X382977Y633255D01*
X383232Y633671D01*
X383418Y634122D01*
X383532Y634597D01*
X383570Y635083D01*
X383532Y635570D01*
X383418Y636044D01*
X383232Y636495D01*
X382977Y636911D01*
X382660Y637282D01*
X382289Y637599D01*
X381873Y637854D01*
X381422Y638041D01*
X380947Y638154D01*
X380461Y638193D01*
D02*
G37*
G36*
X403300Y633509D02*
X403013Y633472D01*
X402745Y633361D01*
X402515Y633185D01*
X402339Y632955D01*
X402228Y632687D01*
X402191Y632400D01*
X402228Y632113D01*
X402339Y631845D01*
X402515Y631615D01*
X402745Y631439D01*
X403013Y631328D01*
X403300Y631291D01*
X403587Y631328D01*
X403855Y631439D01*
X404085Y631615D01*
X404261Y631845D01*
X404372Y632113D01*
X404409Y632400D01*
X404372Y632687D01*
X404261Y632955D01*
X404085Y633185D01*
X403855Y633361D01*
X403587Y633472D01*
X403300Y633509D01*
D02*
G37*
G36*
X472500Y630859D02*
X472213Y630822D01*
X471945Y630711D01*
X471715Y630535D01*
X471539Y630305D01*
X471428Y630037D01*
X471391Y629750D01*
X471428Y629463D01*
X471539Y629195D01*
X471715Y628965D01*
X471945Y628789D01*
X472213Y628678D01*
X472500Y628641D01*
X472787Y628678D01*
X473055Y628789D01*
X473285Y628965D01*
X473461Y629195D01*
X473572Y629463D01*
X473609Y629750D01*
X473572Y630037D01*
X473461Y630305D01*
X473285Y630535D01*
X473055Y630711D01*
X472787Y630822D01*
X472500Y630859D01*
D02*
G37*
G36*
X398200Y630409D02*
X397913Y630372D01*
X397645Y630261D01*
X397415Y630085D01*
X397239Y629855D01*
X397128Y629587D01*
X397091Y629300D01*
X397128Y629013D01*
X397239Y628745D01*
X397415Y628515D01*
X397645Y628339D01*
X397913Y628228D01*
X398200Y628190D01*
X398487Y628228D01*
X398755Y628339D01*
X398985Y628515D01*
X399161Y628745D01*
X399272Y629013D01*
X399309Y629300D01*
X399272Y629587D01*
X399161Y629855D01*
X398985Y630085D01*
X398755Y630261D01*
X398487Y630372D01*
X398200Y630409D01*
D02*
G37*
G36*
X394175Y630431D02*
X393992Y630407D01*
X393822Y630336D01*
X393676Y630224D01*
X393564Y630078D01*
X393493Y629908D01*
X393469Y629725D01*
X393493Y629542D01*
X393564Y629372D01*
X393676Y629226D01*
X393822Y629114D01*
X393992Y629043D01*
X394175Y629019D01*
X394358Y629043D01*
X394423Y629070D01*
X394520Y628973D01*
X394493Y628908D01*
X394469Y628725D01*
X394493Y628542D01*
X394564Y628372D01*
X394676Y628226D01*
X394822Y628114D01*
X394992Y628043D01*
X395175Y628019D01*
X395358Y628043D01*
X395528Y628114D01*
X395674Y628226D01*
X395786Y628372D01*
X395857Y628542D01*
X395881Y628725D01*
X395857Y628908D01*
X395786Y629078D01*
X395674Y629224D01*
X395528Y629336D01*
X395358Y629407D01*
X395175Y629431D01*
X394992Y629407D01*
X394927Y629380D01*
X394830Y629477D01*
X394857Y629542D01*
X394881Y629725D01*
X394857Y629908D01*
X394786Y630078D01*
X394674Y630224D01*
X394528Y630336D01*
X394358Y630407D01*
X394175Y630431D01*
D02*
G37*
G36*
X411562Y627507D02*
X411380Y627483D01*
X411209Y627413D01*
X411063Y627300D01*
X410951Y627154D01*
X410880Y626984D01*
X410856Y626801D01*
X410880Y626618D01*
X410951Y626448D01*
X411063Y626302D01*
X411209Y626190D01*
X411380Y626119D01*
X411562Y626095D01*
X411745Y626119D01*
X411915Y626190D01*
X412062Y626302D01*
X412174Y626448D01*
X412244Y626618D01*
X412268Y626801D01*
X412244Y626984D01*
X412174Y627154D01*
X412062Y627300D01*
X411915Y627413D01*
X411745Y627483D01*
X411562Y627507D01*
D02*
G37*
G36*
X367850Y625481D02*
X367667Y625457D01*
X367497Y625386D01*
X367351Y625274D01*
X367239Y625128D01*
X367168Y624958D01*
X367144Y624775D01*
X367168Y624592D01*
X367239Y624422D01*
X367351Y624276D01*
X367497Y624164D01*
X367667Y624093D01*
X367850Y624069D01*
X368033Y624093D01*
X368203Y624164D01*
X368349Y624276D01*
X368461Y624422D01*
X368532Y624592D01*
X368556Y624775D01*
X368532Y624958D01*
X368461Y625128D01*
X368349Y625274D01*
X368203Y625386D01*
X368033Y625457D01*
X367850Y625481D01*
D02*
G37*
G36*
X365325D02*
X365142Y625457D01*
X364972Y625386D01*
X364826Y625274D01*
X364714Y625128D01*
X364643Y624958D01*
X364619Y624775D01*
X364643Y624592D01*
X364714Y624422D01*
X364826Y624276D01*
X364972Y624164D01*
X365142Y624093D01*
X365325Y624069D01*
X365508Y624093D01*
X365678Y624164D01*
X365824Y624276D01*
X365936Y624422D01*
X366007Y624592D01*
X366031Y624775D01*
X366007Y624958D01*
X365936Y625128D01*
X365824Y625274D01*
X365678Y625386D01*
X365508Y625457D01*
X365325Y625481D01*
D02*
G37*
G36*
X489406Y621422D02*
X489223Y621397D01*
X489053Y621327D01*
X488906Y621215D01*
X488794Y621068D01*
X488724Y620898D01*
X488700Y620715D01*
X488724Y620533D01*
X488794Y620362D01*
X488906Y620216D01*
X489053Y620104D01*
X489223Y620034D01*
X489406Y620009D01*
X489588Y620034D01*
X489759Y620104D01*
X489905Y620216D01*
X490017Y620362D01*
X490088Y620533D01*
X490112Y620715D01*
X490088Y620898D01*
X490017Y621068D01*
X489905Y621215D01*
X489759Y621327D01*
X489588Y621397D01*
X489406Y621422D01*
D02*
G37*
G36*
X498461Y625193D02*
X497974Y625154D01*
X497500Y625041D01*
X497049Y624854D01*
X496633Y624599D01*
X496262Y624282D01*
X495945Y623911D01*
X495690Y623495D01*
X495503Y623044D01*
X495390Y622570D01*
X495351Y622083D01*
X495390Y621597D01*
X495503Y621122D01*
X495690Y620671D01*
X495945Y620255D01*
X496262Y619884D01*
X496633Y619567D01*
X497049Y619312D01*
X497500Y619126D01*
X497974Y619012D01*
X498461Y618974D01*
X498947Y619012D01*
X499422Y619126D01*
X499873Y619312D01*
X500289Y619567D01*
X500660Y619884D01*
X500977Y620255D01*
X501232Y620671D01*
X501418Y621122D01*
X501532Y621597D01*
X501570Y622083D01*
X501532Y622570D01*
X501418Y623044D01*
X501232Y623495D01*
X500977Y623911D01*
X500660Y624282D01*
X500289Y624599D01*
X499873Y624854D01*
X499422Y625041D01*
X498947Y625154D01*
X498461Y625193D01*
D02*
G37*
G36*
X342461D02*
X341974Y625154D01*
X341500Y625041D01*
X341049Y624854D01*
X340633Y624599D01*
X340262Y624282D01*
X339945Y623911D01*
X339690Y623495D01*
X339503Y623044D01*
X339390Y622570D01*
X339351Y622083D01*
X339390Y621597D01*
X339503Y621122D01*
X339690Y620671D01*
X339945Y620255D01*
X340262Y619884D01*
X340633Y619567D01*
X341049Y619312D01*
X341500Y619126D01*
X341974Y619012D01*
X342461Y618974D01*
X342947Y619012D01*
X343422Y619126D01*
X343873Y619312D01*
X344289Y619567D01*
X344660Y619884D01*
X344977Y620255D01*
X345232Y620671D01*
X345418Y621122D01*
X345532Y621597D01*
X345570Y622083D01*
X345532Y622570D01*
X345418Y623044D01*
X345232Y623495D01*
X344977Y623911D01*
X344660Y624282D01*
X344289Y624599D01*
X343873Y624854D01*
X343422Y625041D01*
X342947Y625154D01*
X342461Y625193D01*
D02*
G37*
G36*
X457900Y619406D02*
X457717Y619382D01*
X457547Y619311D01*
X457401Y619199D01*
X457289Y619053D01*
X457218Y618883D01*
X457194Y618700D01*
X457218Y618517D01*
X457289Y618347D01*
X457401Y618201D01*
X457547Y618089D01*
X457717Y618018D01*
X457900Y617994D01*
X458083Y618018D01*
X458253Y618089D01*
X458399Y618201D01*
X458511Y618347D01*
X458582Y618517D01*
X458606Y618700D01*
X458582Y618883D01*
X458511Y619053D01*
X458399Y619199D01*
X458253Y619311D01*
X458083Y619382D01*
X457900Y619406D01*
D02*
G37*
G36*
X424600Y618406D02*
X424417Y618382D01*
X424247Y618311D01*
X424101Y618199D01*
X423989Y618053D01*
X423918Y617883D01*
X423894Y617700D01*
X423918Y617517D01*
X423989Y617347D01*
X424101Y617201D01*
X424247Y617089D01*
X424417Y617018D01*
X424600Y616994D01*
X424783Y617018D01*
X424953Y617089D01*
X425099Y617201D01*
X425211Y617347D01*
X425282Y617517D01*
X425306Y617700D01*
X425282Y617883D01*
X425211Y618053D01*
X425099Y618199D01*
X424953Y618311D01*
X424783Y618382D01*
X424600Y618406D01*
D02*
G37*
G36*
X375745Y617931D02*
X375563Y617907D01*
X375392Y617836D01*
X375246Y617724D01*
X375134Y617578D01*
X375063Y617407D01*
X375039Y617225D01*
X375063Y617042D01*
X375134Y616872D01*
X375246Y616725D01*
X375392Y616613D01*
X375563Y616543D01*
X375745Y616519D01*
X375928Y616543D01*
X376098Y616613D01*
X376245Y616725D01*
X376357Y616872D01*
X376427Y617042D01*
X376451Y617225D01*
X376427Y617407D01*
X376357Y617578D01*
X376245Y617724D01*
X376098Y617836D01*
X375928Y617907D01*
X375745Y617931D01*
D02*
G37*
G36*
X362858Y616251D02*
X362571Y616214D01*
X362303Y616103D01*
X362074Y615926D01*
X361897Y615697D01*
X361786Y615429D01*
X361749Y615142D01*
X361786Y614855D01*
X361897Y614587D01*
X362074Y614357D01*
X362303Y614181D01*
X362571Y614070D01*
X362858Y614032D01*
X363145Y614070D01*
X363413Y614181D01*
X363643Y614357D01*
X363819Y614587D01*
X363930Y614855D01*
X363968Y615142D01*
X363930Y615429D01*
X363819Y615697D01*
X363643Y615926D01*
X363413Y616103D01*
X363145Y616214D01*
X362858Y616251D01*
D02*
G37*
G36*
X457875Y614606D02*
X457692Y614582D01*
X457522Y614511D01*
X457376Y614399D01*
X457264Y614253D01*
X457193Y614083D01*
X457169Y613900D01*
X457193Y613717D01*
X457264Y613547D01*
X457376Y613401D01*
X457522Y613289D01*
X457692Y613218D01*
X457875Y613194D01*
X458058Y613218D01*
X458228Y613289D01*
X458374Y613401D01*
X458486Y613547D01*
X458557Y613717D01*
X458581Y613900D01*
X458557Y614083D01*
X458486Y614253D01*
X458374Y614399D01*
X458228Y614511D01*
X458058Y614582D01*
X457875Y614606D01*
D02*
G37*
G36*
X454906Y613784D02*
X454724Y613760D01*
X454553Y613690D01*
X454407Y613578D01*
X454295Y613431D01*
X454224Y613261D01*
X454200Y613078D01*
X454224Y612896D01*
X454295Y612725D01*
X454407Y612579D01*
X454553Y612467D01*
X454724Y612396D01*
X454906Y612372D01*
X455089Y612396D01*
X455259Y612467D01*
X455406Y612579D01*
X455518Y612725D01*
X455588Y612896D01*
X455612Y613078D01*
X455588Y613261D01*
X455518Y613431D01*
X455406Y613578D01*
X455259Y613690D01*
X455089Y613760D01*
X454906Y613784D01*
D02*
G37*
G36*
X424575Y613606D02*
X424392Y613582D01*
X424222Y613511D01*
X424076Y613399D01*
X423964Y613253D01*
X423893Y613083D01*
X423869Y612900D01*
X423893Y612717D01*
X423964Y612547D01*
X424076Y612401D01*
X424222Y612289D01*
X424392Y612218D01*
X424575Y612194D01*
X424758Y612218D01*
X424928Y612289D01*
X425074Y612401D01*
X425186Y612547D01*
X425257Y612717D01*
X425281Y612900D01*
X425257Y613083D01*
X425186Y613253D01*
X425074Y613399D01*
X424928Y613511D01*
X424758Y613582D01*
X424575Y613606D01*
D02*
G37*
G36*
X421602Y612784D02*
X421420Y612760D01*
X421249Y612690D01*
X421103Y612578D01*
X420991Y612431D01*
X420920Y612261D01*
X420896Y612078D01*
X420920Y611896D01*
X420991Y611725D01*
X421103Y611579D01*
X421249Y611467D01*
X421420Y611396D01*
X421602Y611372D01*
X421785Y611396D01*
X421955Y611467D01*
X422102Y611579D01*
X422214Y611725D01*
X422284Y611896D01*
X422308Y612078D01*
X422284Y612261D01*
X422214Y612431D01*
X422102Y612578D01*
X421955Y612690D01*
X421785Y612760D01*
X421602Y612784D01*
D02*
G37*
G36*
X363400Y613409D02*
X363113Y613372D01*
X362845Y613261D01*
X362615Y613085D01*
X362439Y612855D01*
X362328Y612587D01*
X362290Y612300D01*
X362328Y612013D01*
X362439Y611745D01*
X362615Y611515D01*
X362845Y611339D01*
X363113Y611228D01*
X363400Y611190D01*
X363687Y611228D01*
X363955Y611339D01*
X364185Y611515D01*
X364361Y611745D01*
X364472Y612013D01*
X364509Y612300D01*
X364472Y612587D01*
X364361Y612855D01*
X364185Y613085D01*
X363955Y613261D01*
X363687Y613372D01*
X363400Y613409D01*
D02*
G37*
G36*
X454942Y611922D02*
X454759Y611898D01*
X454589Y611827D01*
X454443Y611715D01*
X454330Y611569D01*
X454260Y611398D01*
X454236Y611216D01*
X454260Y611033D01*
X454330Y610863D01*
X454443Y610716D01*
X454589Y610604D01*
X454759Y610534D01*
X454942Y610510D01*
X455124Y610534D01*
X455295Y610604D01*
X455331Y610632D01*
X455435Y610552D01*
X455427Y610531D01*
X455402Y610348D01*
X455427Y610165D01*
X455497Y609995D01*
X455609Y609849D01*
X455755Y609737D01*
X455926Y609666D01*
X456108Y609642D01*
X456291Y609666D01*
X456394Y609709D01*
X456526Y609643D01*
X456532Y609634D01*
X456540Y609573D01*
X456611Y609402D01*
X456723Y609256D01*
X456869Y609144D01*
X457039Y609073D01*
X457222Y609049D01*
X457405Y609073D01*
X457575Y609144D01*
X457721Y609256D01*
X457834Y609402D01*
X457904Y609573D01*
X457928Y609755D01*
X457904Y609938D01*
X457834Y610109D01*
X457721Y610255D01*
X457575Y610367D01*
X457405Y610437D01*
X457222Y610461D01*
X457039Y610437D01*
X456936Y610395D01*
X456805Y610460D01*
X456799Y610469D01*
X456790Y610531D01*
X456720Y610701D01*
X456608Y610847D01*
X456462Y610960D01*
X456291Y611030D01*
X456108Y611054D01*
X455926Y611030D01*
X455755Y610960D01*
X455719Y610932D01*
X455615Y611012D01*
X455624Y611033D01*
X455648Y611216D01*
X455624Y611398D01*
X455553Y611569D01*
X455441Y611715D01*
X455295Y611827D01*
X455124Y611898D01*
X454942Y611922D01*
D02*
G37*
G36*
X421638Y610922D02*
X421455Y610898D01*
X421285Y610827D01*
X421138Y610715D01*
X421026Y610569D01*
X420956Y610398D01*
X420932Y610216D01*
X420956Y610033D01*
X421026Y609863D01*
X421138Y609716D01*
X421285Y609604D01*
X421455Y609534D01*
X421638Y609510D01*
X421820Y609534D01*
X421991Y609604D01*
X422094Y609683D01*
X422198Y609603D01*
X422148Y609481D01*
X422123Y609298D01*
X422148Y609115D01*
X422218Y608945D01*
X422330Y608799D01*
X422476Y608687D01*
X422647Y608616D01*
X422829Y608592D01*
X423012Y608616D01*
X423098Y608652D01*
X423236Y608574D01*
X423236Y608573D01*
X423307Y608402D01*
X423419Y608256D01*
X423565Y608144D01*
X423735Y608073D01*
X423918Y608049D01*
X424101Y608073D01*
X424271Y608144D01*
X424417Y608256D01*
X424530Y608402D01*
X424600Y608573D01*
X424624Y608755D01*
X424600Y608938D01*
X424530Y609109D01*
X424417Y609255D01*
X424271Y609367D01*
X424101Y609437D01*
X423918Y609461D01*
X423735Y609437D01*
X423650Y609402D01*
X423512Y609479D01*
X423511Y609481D01*
X423441Y609651D01*
X423329Y609797D01*
X423183Y609910D01*
X423012Y609980D01*
X422829Y610004D01*
X422647Y609980D01*
X422476Y609910D01*
X422373Y609830D01*
X422269Y609910D01*
X422320Y610033D01*
X422344Y610216D01*
X422320Y610398D01*
X422249Y610569D01*
X422137Y610715D01*
X421991Y610827D01*
X421820Y610898D01*
X421638Y610922D01*
D02*
G37*
G36*
X391300Y607800D02*
X391117Y607776D01*
X390947Y607705D01*
X390801Y607593D01*
X390689Y607447D01*
X390618Y607277D01*
X390594Y607094D01*
X390618Y606911D01*
X390689Y606741D01*
X390801Y606595D01*
X390947Y606483D01*
X391117Y606412D01*
X391300Y606388D01*
X391483Y606412D01*
X391653Y606483D01*
X391799Y606595D01*
X391911Y606741D01*
X391982Y606911D01*
X392006Y607094D01*
X391982Y607277D01*
X391911Y607447D01*
X391799Y607593D01*
X391653Y607705D01*
X391483Y607776D01*
X391300Y607800D01*
D02*
G37*
G36*
X495839Y604906D02*
X495657Y604882D01*
X495486Y604811D01*
X495340Y604699D01*
X495228Y604553D01*
X495157Y604383D01*
X495133Y604200D01*
X495157Y604017D01*
X495228Y603847D01*
X495340Y603701D01*
X495486Y603589D01*
X495657Y603518D01*
X495839Y603494D01*
X496022Y603518D01*
X496192Y603589D01*
X496339Y603701D01*
X496451Y603847D01*
X496521Y604017D01*
X496545Y604200D01*
X496521Y604383D01*
X496451Y604553D01*
X496339Y604699D01*
X496192Y604811D01*
X496022Y604882D01*
X495839Y604906D01*
D02*
G37*
G36*
X391275Y603056D02*
X391092Y603032D01*
X390922Y602961D01*
X390776Y602849D01*
X390664Y602703D01*
X390593Y602533D01*
X390569Y602350D01*
X390593Y602167D01*
X390664Y601997D01*
X390776Y601851D01*
X390922Y601739D01*
X391092Y601668D01*
X391275Y601644D01*
X391458Y601668D01*
X391628Y601739D01*
X391774Y601851D01*
X391886Y601997D01*
X391957Y602167D01*
X391981Y602350D01*
X391957Y602533D01*
X391886Y602703D01*
X391774Y602849D01*
X391628Y602961D01*
X391458Y603032D01*
X391275Y603056D01*
D02*
G37*
G36*
X489650Y602881D02*
X489467Y602857D01*
X489297Y602786D01*
X489151Y602674D01*
X489038Y602528D01*
X488968Y602358D01*
X488944Y602175D01*
X488968Y601992D01*
X489038Y601822D01*
X489151Y601676D01*
X489297Y601564D01*
X489467Y601493D01*
X489650Y601469D01*
X489833Y601493D01*
X490003Y601564D01*
X490149Y601676D01*
X490261Y601822D01*
X490332Y601992D01*
X490356Y602175D01*
X490332Y602358D01*
X490261Y602528D01*
X490149Y602674D01*
X490003Y602786D01*
X489833Y602857D01*
X489650Y602881D01*
D02*
G37*
G36*
X357500Y602406D02*
X357317Y602382D01*
X357147Y602311D01*
X357001Y602199D01*
X356889Y602053D01*
X356818Y601883D01*
X356794Y601700D01*
X356818Y601517D01*
X356889Y601347D01*
X357001Y601201D01*
X357147Y601089D01*
X357317Y601018D01*
X357500Y600994D01*
X357683Y601018D01*
X357853Y601089D01*
X357999Y601201D01*
X358111Y601347D01*
X358182Y601517D01*
X358206Y601700D01*
X358182Y601883D01*
X358111Y602053D01*
X357999Y602199D01*
X357853Y602311D01*
X357683Y602382D01*
X357500Y602406D01*
D02*
G37*
G36*
X355800D02*
X355617Y602382D01*
X355447Y602311D01*
X355301Y602199D01*
X355189Y602053D01*
X355118Y601883D01*
X355094Y601700D01*
X355118Y601517D01*
X355189Y601347D01*
X355301Y601201D01*
X355447Y601089D01*
X355617Y601018D01*
X355800Y600994D01*
X355983Y601018D01*
X356153Y601089D01*
X356299Y601201D01*
X356411Y601347D01*
X356482Y601517D01*
X356506Y601700D01*
X356482Y601883D01*
X356411Y602053D01*
X356299Y602199D01*
X356153Y602311D01*
X355983Y602382D01*
X355800Y602406D01*
D02*
G37*
G36*
X388302Y602284D02*
X388120Y602260D01*
X387949Y602190D01*
X387803Y602078D01*
X387691Y601931D01*
X387620Y601761D01*
X387596Y601578D01*
X387620Y601396D01*
X387691Y601225D01*
X387803Y601079D01*
X387949Y600967D01*
X388120Y600896D01*
X388302Y600872D01*
X388485Y600896D01*
X388655Y600967D01*
X388802Y601079D01*
X388914Y601225D01*
X388984Y601396D01*
X389008Y601578D01*
X388984Y601761D01*
X388914Y601931D01*
X388802Y602078D01*
X388655Y602190D01*
X388485Y602260D01*
X388302Y602284D01*
D02*
G37*
G36*
X492225Y601281D02*
X492042Y601257D01*
X491872Y601186D01*
X491726Y601074D01*
X491614Y600928D01*
X491543Y600758D01*
X491519Y600575D01*
X491543Y600392D01*
X491614Y600222D01*
X491726Y600076D01*
X491872Y599964D01*
X492042Y599893D01*
X492225Y599869D01*
X492408Y599893D01*
X492578Y599964D01*
X492724Y600076D01*
X492836Y600222D01*
X492907Y600392D01*
X492931Y600575D01*
X492907Y600758D01*
X492836Y600928D01*
X492724Y601074D01*
X492578Y601186D01*
X492408Y601257D01*
X492225Y601281D01*
D02*
G37*
G36*
X388175Y600406D02*
X387992Y600382D01*
X387822Y600311D01*
X387676Y600199D01*
X387564Y600053D01*
X387493Y599883D01*
X387469Y599700D01*
X387493Y599517D01*
X387564Y599347D01*
X387676Y599201D01*
X387822Y599089D01*
X387992Y599018D01*
X388175Y598994D01*
X388358Y599018D01*
X388528Y599089D01*
X388674Y599201D01*
X388786Y599347D01*
X388857Y599517D01*
X388881Y599700D01*
X388857Y599883D01*
X388786Y600053D01*
X388674Y600199D01*
X388528Y600311D01*
X388358Y600382D01*
X388175Y600406D01*
D02*
G37*
G36*
X488075Y601256D02*
X487892Y601232D01*
X487722Y601161D01*
X487576Y601049D01*
X487464Y600903D01*
X487393Y600733D01*
X487369Y600550D01*
X487393Y600367D01*
X487464Y600197D01*
X487576Y600051D01*
X487722Y599939D01*
X487892Y599868D01*
X487923Y599736D01*
X487876Y599699D01*
X487764Y599553D01*
X487693Y599383D01*
X487669Y599200D01*
X487693Y599017D01*
X487764Y598847D01*
X487876Y598701D01*
X488022Y598589D01*
X488192Y598518D01*
X488354Y598497D01*
X488444Y598400D01*
X488468Y598217D01*
X488539Y598047D01*
X488651Y597901D01*
X488797Y597789D01*
X488967Y597718D01*
X489150Y597694D01*
X489333Y597718D01*
X489503Y597789D01*
X489649Y597901D01*
X489761Y598047D01*
X489832Y598217D01*
X489856Y598400D01*
X489832Y598583D01*
X489761Y598753D01*
X489649Y598899D01*
X489503Y599011D01*
X489333Y599082D01*
X489171Y599103D01*
X489081Y599200D01*
X489057Y599383D01*
X488986Y599553D01*
X488874Y599699D01*
X488728Y599811D01*
X488558Y599882D01*
X488526Y600014D01*
X488574Y600051D01*
X488686Y600197D01*
X488757Y600367D01*
X488781Y600550D01*
X488757Y600733D01*
X488686Y600903D01*
X488574Y601049D01*
X488428Y601161D01*
X488258Y601232D01*
X488075Y601256D01*
D02*
G37*
G36*
X389504Y599604D02*
X389322Y599580D01*
X389151Y599510D01*
X389005Y599397D01*
X388893Y599251D01*
X388823Y599081D01*
X388798Y598898D01*
X388823Y598715D01*
X388893Y598545D01*
X389005Y598399D01*
X389151Y598287D01*
X389322Y598216D01*
X389504Y598192D01*
X389687Y598216D01*
X389776Y598253D01*
X389889Y598178D01*
X389895Y598165D01*
X389918Y597992D01*
X389989Y597822D01*
X390101Y597676D01*
X390247Y597564D01*
X390417Y597493D01*
X390600Y597469D01*
X390783Y597493D01*
X390953Y597564D01*
X391099Y597676D01*
X391211Y597822D01*
X391282Y597992D01*
X391306Y598175D01*
X391282Y598358D01*
X391211Y598528D01*
X391099Y598674D01*
X390953Y598786D01*
X390783Y598857D01*
X390600Y598881D01*
X390417Y598857D01*
X390328Y598820D01*
X390216Y598895D01*
X390209Y598908D01*
X390186Y599081D01*
X390116Y599251D01*
X390004Y599397D01*
X389858Y599510D01*
X389687Y599580D01*
X389504Y599604D01*
D02*
G37*
G36*
X482400Y598606D02*
X482217Y598582D01*
X482047Y598511D01*
X481901Y598399D01*
X481789Y598253D01*
X481718Y598083D01*
X481694Y597900D01*
X481718Y597717D01*
X481789Y597547D01*
X481901Y597401D01*
X482047Y597289D01*
X482217Y597218D01*
X482400Y597194D01*
X482583Y597218D01*
X482753Y597289D01*
X482899Y597401D01*
X483011Y597547D01*
X483082Y597717D01*
X483106Y597900D01*
X483082Y598083D01*
X483011Y598253D01*
X482899Y598399D01*
X482753Y598511D01*
X482583Y598582D01*
X482400Y598606D01*
D02*
G37*
G36*
X400700Y598506D02*
X400517Y598482D01*
X400347Y598411D01*
X400201Y598299D01*
X400089Y598153D01*
X400018Y597983D01*
X399994Y597800D01*
X400018Y597617D01*
X400089Y597447D01*
X400201Y597301D01*
X400347Y597189D01*
X400517Y597118D01*
X400700Y597094D01*
X400883Y597118D01*
X401053Y597189D01*
X401199Y597301D01*
X401311Y597447D01*
X401382Y597617D01*
X401406Y597800D01*
X401382Y597983D01*
X401311Y598153D01*
X401199Y598299D01*
X401053Y598411D01*
X400883Y598482D01*
X400700Y598506D01*
D02*
G37*
G36*
X417200Y598406D02*
X417017Y598382D01*
X416847Y598311D01*
X416701Y598199D01*
X416589Y598053D01*
X416518Y597883D01*
X416494Y597700D01*
X416518Y597517D01*
X416589Y597347D01*
X416701Y597201D01*
X416847Y597089D01*
X417017Y597018D01*
X417200Y596994D01*
X417383Y597018D01*
X417553Y597089D01*
X417699Y597201D01*
X417811Y597347D01*
X417882Y597517D01*
X417906Y597700D01*
X417882Y597883D01*
X417811Y598053D01*
X417699Y598199D01*
X417553Y598311D01*
X417383Y598382D01*
X417200Y598406D01*
D02*
G37*
G36*
X449500Y598306D02*
X449317Y598282D01*
X449147Y598211D01*
X449001Y598099D01*
X448889Y597953D01*
X448818Y597783D01*
X448794Y597600D01*
X448818Y597417D01*
X448889Y597247D01*
X449001Y597101D01*
X449147Y596989D01*
X449317Y596918D01*
X449500Y596894D01*
X449683Y596918D01*
X449853Y596989D01*
X449999Y597101D01*
X450111Y597247D01*
X450182Y597417D01*
X450206Y597600D01*
X450182Y597783D01*
X450111Y597953D01*
X449999Y598099D01*
X449853Y598211D01*
X449683Y598282D01*
X449500Y598306D01*
D02*
G37*
G36*
X352900Y595895D02*
X352717Y595871D01*
X352547Y595801D01*
X352401Y595688D01*
X352289Y595542D01*
X352218Y595372D01*
X352194Y595189D01*
X352218Y595006D01*
X352289Y594836D01*
X352401Y594690D01*
X352547Y594578D01*
X352717Y594507D01*
X352900Y594483D01*
X353083Y594507D01*
X353253Y594578D01*
X353399Y594690D01*
X353511Y594836D01*
X353582Y595006D01*
X353606Y595189D01*
X353582Y595372D01*
X353511Y595542D01*
X353399Y595688D01*
X353253Y595801D01*
X353083Y595871D01*
X352900Y595895D01*
D02*
G37*
G36*
X466532Y593542D02*
X396532D01*
X396523Y593540D01*
X396514Y593542D01*
X395101Y593486D01*
X395084Y593482D01*
X395065Y593483D01*
X393662Y593317D01*
X393645Y593312D01*
X393626D01*
X392240Y593036D01*
X392223Y593029D01*
X392205Y593027D01*
X390845Y592644D01*
X390828Y592635D01*
X390810Y592633D01*
X389484Y592143D01*
X389469Y592134D01*
X389451Y592130D01*
X388168Y591538D01*
X388153Y591527D01*
X388136Y591522D01*
X386902Y590831D01*
X386889Y590819D01*
X386872Y590812D01*
X385697Y590027D01*
X385684Y590014D01*
X385667Y590006D01*
X384557Y589131D01*
X384546Y589117D01*
X384530Y589107D01*
X383492Y588148D01*
X383481Y588133D01*
X383467Y588123D01*
X382507Y587085D01*
X382498Y587069D01*
X382484Y587057D01*
X381609Y585947D01*
X381601Y585931D01*
X381588Y585918D01*
X380803Y584743D01*
X380796Y584726D01*
X380784Y584712D01*
X380093Y583479D01*
X380087Y583462D01*
X380077Y583447D01*
X379485Y582164D01*
X379481Y582146D01*
X379471Y582130D01*
X378982Y580804D01*
X378979Y580786D01*
X378971Y580770D01*
X378587Y579410D01*
X378586Y579392D01*
X378579Y579375D01*
X378303Y577988D01*
Y577970D01*
X378298Y577953D01*
X378131Y576549D01*
X378133Y576531D01*
X378129Y576513D01*
X378073Y575101D01*
X378075Y575092D01*
X378073Y575083D01*
Y505083D01*
X378075Y505074D01*
X378073Y505065D01*
X378129Y503653D01*
X378133Y503635D01*
X378131Y503617D01*
X378298Y502213D01*
X378303Y502196D01*
Y502178D01*
X378579Y500792D01*
X378586Y500775D01*
X378587Y500757D01*
X378971Y499396D01*
X378979Y499380D01*
X378982Y499362D01*
X379471Y498036D01*
X379481Y498021D01*
X379485Y498003D01*
X380077Y496719D01*
X380087Y496704D01*
X380093Y496687D01*
X380784Y495454D01*
X380796Y495440D01*
X380803Y495423D01*
X381588Y494248D01*
X381601Y494235D01*
X381609Y494219D01*
X382484Y493109D01*
X382498Y493097D01*
X382507Y493082D01*
X383467Y492044D01*
X383481Y492033D01*
X383492Y492018D01*
X384530Y491059D01*
X384546Y491049D01*
X384557Y491036D01*
X385667Y490161D01*
X385684Y490152D01*
X385697Y490139D01*
X386872Y489354D01*
X386889Y489347D01*
X386902Y489335D01*
X388136Y488645D01*
X388153Y488639D01*
X388168Y488628D01*
X389451Y488037D01*
X389469Y488032D01*
X389484Y488023D01*
X390810Y487534D01*
X390828Y487531D01*
X390845Y487523D01*
X392205Y487139D01*
X392223Y487138D01*
X392240Y487131D01*
X393626Y486855D01*
X393645D01*
X393662Y486849D01*
X395065Y486683D01*
X395084Y486684D01*
X395101Y486680D01*
X396514Y486625D01*
X396523Y486626D01*
X396532Y486624D01*
X466532D01*
X466541Y486626D01*
X466550Y486625D01*
X467962Y486680D01*
X467980Y486684D01*
X467998Y486683D01*
X469401Y486849D01*
X469419Y486855D01*
X469437D01*
X470823Y487131D01*
X470840Y487138D01*
X470858Y487139D01*
X472218Y487523D01*
X472235Y487531D01*
X472253Y487534D01*
X473579Y488023D01*
X473594Y488032D01*
X473612Y488037D01*
X474895Y488628D01*
X474910Y488639D01*
X474928Y488645D01*
X476161Y489335D01*
X476175Y489347D01*
X476191Y489354D01*
X477367Y490139D01*
X477379Y490152D01*
X477396Y490161D01*
X478506Y491036D01*
X478518Y491049D01*
X478533Y491059D01*
X479571Y492018D01*
X479582Y492033D01*
X479596Y492044D01*
X480556Y493082D01*
X480565Y493097D01*
X480579Y493109D01*
X481454Y494219D01*
X481462Y494235D01*
X481475Y494248D01*
X482261Y495423D01*
X482268Y495440D01*
X482279Y495454D01*
X482970Y496687D01*
X482976Y496704D01*
X482986Y496719D01*
X483578Y498003D01*
X483582Y498021D01*
X483592Y498036D01*
X484081Y499362D01*
X484084Y499380D01*
X484092Y499396D01*
X484476Y500757D01*
X484477Y500775D01*
X484484Y500792D01*
X484760Y502178D01*
Y502196D01*
X484766Y502213D01*
X484932Y503617D01*
X484930Y503635D01*
X484935Y503653D01*
X484990Y505065D01*
X484989Y505074D01*
X484990Y505083D01*
Y575083D01*
X484989Y575092D01*
X484990Y575101D01*
X484935Y576513D01*
X484930Y576531D01*
X484932Y576549D01*
X484766Y577953D01*
X484760Y577970D01*
Y577988D01*
X484484Y579375D01*
X484477Y579392D01*
X484476Y579410D01*
X484092Y580770D01*
X484084Y580786D01*
X484081Y580804D01*
X483592Y582130D01*
X483582Y582146D01*
X483578Y582164D01*
X482986Y583447D01*
X482976Y583462D01*
X482970Y583479D01*
X482279Y584712D01*
X482268Y584726D01*
X482261Y584743D01*
X481475Y585918D01*
X481462Y585931D01*
X481454Y585947D01*
X480579Y587057D01*
X480565Y587069D01*
X480556Y587085D01*
X479596Y588123D01*
X479582Y588133D01*
X479571Y588148D01*
X478533Y589107D01*
X478518Y589117D01*
X478506Y589131D01*
X477396Y590006D01*
X477379Y590014D01*
X477367Y590027D01*
X476191Y590812D01*
X476175Y590819D01*
X476161Y590831D01*
X474928Y591522D01*
X474910Y591527D01*
X474895Y591538D01*
X473612Y592130D01*
X473594Y592134D01*
X473579Y592143D01*
X472253Y592633D01*
X472235Y592635D01*
X472218Y592644D01*
X470858Y593027D01*
X470840Y593029D01*
X470823Y593036D01*
X469437Y593312D01*
X469419D01*
X469401Y593317D01*
X467998Y593483D01*
X467980Y593482D01*
X467962Y593486D01*
X466550Y593542D01*
X466541Y593540D01*
X466532Y593542D01*
D02*
G37*
G36*
X528461Y599193D02*
X527974Y599154D01*
X527500Y599041D01*
X527049Y598854D01*
X526633Y598599D01*
X526262Y598282D01*
X525945Y597911D01*
X525690Y597495D01*
X525503Y597044D01*
X525390Y596570D01*
X525351Y596083D01*
X525390Y595597D01*
X525503Y595122D01*
X525690Y594671D01*
X525945Y594255D01*
X526262Y593884D01*
X526633Y593568D01*
X527049Y593312D01*
X527500Y593126D01*
X527974Y593012D01*
X528461Y592974D01*
X528947Y593012D01*
X529422Y593126D01*
X529873Y593312D01*
X530289Y593568D01*
X530660Y593884D01*
X530977Y594255D01*
X531232Y594671D01*
X531418Y595122D01*
X531532Y595597D01*
X531570Y596083D01*
X531532Y596570D01*
X531418Y597044D01*
X531232Y597495D01*
X530977Y597911D01*
X530660Y598282D01*
X530289Y598599D01*
X529873Y598854D01*
X529422Y599041D01*
X528947Y599154D01*
X528461Y599193D01*
D02*
G37*
G36*
X356375Y592406D02*
X356192Y592382D01*
X356022Y592311D01*
X355876Y592199D01*
X355764Y592053D01*
X355693Y591883D01*
X355669Y591700D01*
X355693Y591517D01*
X355764Y591347D01*
X355876Y591201D01*
X356022Y591089D01*
X356192Y591018D01*
X356375Y590994D01*
X356558Y591018D01*
X356728Y591089D01*
X356874Y591201D01*
X356986Y591347D01*
X357057Y591517D01*
X357081Y591700D01*
X357057Y591883D01*
X356986Y592053D01*
X356874Y592199D01*
X356728Y592311D01*
X356558Y592382D01*
X356375Y592406D01*
D02*
G37*
G36*
X358900Y589031D02*
X358717Y589007D01*
X358547Y588936D01*
X358401Y588824D01*
X358289Y588678D01*
X358218Y588508D01*
X358216Y588490D01*
X358078Y588417D01*
X357983Y588457D01*
X357800Y588481D01*
X357617Y588457D01*
X357447Y588386D01*
X357301Y588274D01*
X357189Y588128D01*
X357118Y587958D01*
X357094Y587775D01*
X357118Y587592D01*
X357189Y587422D01*
X357301Y587276D01*
X357447Y587164D01*
X357617Y587093D01*
X357800Y587069D01*
X357983Y587093D01*
X358153Y587164D01*
X358299Y587276D01*
X358411Y587422D01*
X358482Y587592D01*
X358484Y587610D01*
X358622Y587682D01*
X358717Y587643D01*
X358900Y587619D01*
X359083Y587643D01*
X359253Y587714D01*
X359399Y587826D01*
X359511Y587972D01*
X359582Y588142D01*
X359606Y588325D01*
X359582Y588508D01*
X359511Y588678D01*
X359399Y588824D01*
X359253Y588936D01*
X359083Y589007D01*
X358900Y589031D01*
D02*
G37*
G36*
X354825Y589756D02*
X354642Y589732D01*
X354472Y589661D01*
X354326Y589549D01*
X354214Y589403D01*
X354143Y589233D01*
X354119Y589050D01*
X354143Y588867D01*
X354214Y588697D01*
X354326Y588551D01*
X354472Y588439D01*
X354642Y588368D01*
X354825Y588344D01*
X355008Y588368D01*
X355178Y588439D01*
X355324Y588551D01*
X355436Y588697D01*
X355507Y588867D01*
X355531Y589050D01*
X355507Y589233D01*
X355436Y589403D01*
X355324Y589549D01*
X355178Y589661D01*
X355008Y589732D01*
X354825Y589756D01*
D02*
G37*
G36*
X356050Y588406D02*
X355867Y588382D01*
X355697Y588311D01*
X355551Y588199D01*
X355439Y588053D01*
X355368Y587883D01*
X355344Y587700D01*
X355368Y587517D01*
X355439Y587347D01*
X355551Y587201D01*
X355697Y587089D01*
X355867Y587018D01*
X356050Y586994D01*
X356233Y587018D01*
X356403Y587089D01*
X356549Y587201D01*
X356661Y587347D01*
X356732Y587517D01*
X356756Y587700D01*
X356732Y587883D01*
X356661Y588053D01*
X356549Y588199D01*
X356403Y588311D01*
X356233Y588382D01*
X356050Y588406D01*
D02*
G37*
G36*
X506250Y585609D02*
X505963Y585572D01*
X505695Y585461D01*
X505465Y585285D01*
X505289Y585055D01*
X505178Y584787D01*
X505141Y584500D01*
X505178Y584213D01*
X505289Y583945D01*
X505465Y583715D01*
X505695Y583539D01*
X505963Y583428D01*
X506250Y583391D01*
X506537Y583428D01*
X506805Y583539D01*
X507035Y583715D01*
X507211Y583945D01*
X507322Y584213D01*
X507359Y584500D01*
X507322Y584787D01*
X507211Y585055D01*
X507035Y585285D01*
X506805Y585461D01*
X506537Y585572D01*
X506250Y585609D01*
D02*
G37*
G36*
X302461Y588193D02*
X301974Y588154D01*
X301500Y588041D01*
X301049Y587854D01*
X300633Y587599D01*
X300262Y587282D01*
X299945Y586911D01*
X299690Y586495D01*
X299503Y586044D01*
X299390Y585570D01*
X299351Y585083D01*
X299390Y584597D01*
X299503Y584122D01*
X299690Y583671D01*
X299945Y583255D01*
X300262Y582884D01*
X300633Y582567D01*
X301049Y582312D01*
X301500Y582126D01*
X301974Y582012D01*
X302461Y581974D01*
X302947Y582012D01*
X303422Y582126D01*
X303873Y582312D01*
X304289Y582567D01*
X304660Y582884D01*
X304977Y583255D01*
X305232Y583671D01*
X305418Y584122D01*
X305532Y584597D01*
X305570Y585083D01*
X305532Y585570D01*
X305418Y586044D01*
X305232Y586495D01*
X304977Y586911D01*
X304660Y587282D01*
X304289Y587599D01*
X303873Y587854D01*
X303422Y588041D01*
X302947Y588154D01*
X302461Y588193D01*
D02*
G37*
G36*
X355400Y582506D02*
X355217Y582482D01*
X355047Y582411D01*
X354901Y582299D01*
X354789Y582153D01*
X354718Y581983D01*
X354694Y581800D01*
X354718Y581617D01*
X354789Y581447D01*
X354901Y581301D01*
X355047Y581189D01*
X355217Y581118D01*
X355400Y581094D01*
X355583Y581118D01*
X355753Y581189D01*
X355899Y581301D01*
X356011Y581447D01*
X356082Y581617D01*
X356106Y581800D01*
X356082Y581983D01*
X356011Y582153D01*
X355899Y582299D01*
X355753Y582411D01*
X355583Y582482D01*
X355400Y582506D01*
D02*
G37*
G36*
X331800Y582409D02*
X331513Y582372D01*
X331245Y582261D01*
X331015Y582085D01*
X330839Y581855D01*
X330728Y581587D01*
X330691Y581300D01*
X330728Y581013D01*
X330839Y580745D01*
X331015Y580515D01*
X331245Y580339D01*
X331513Y580228D01*
X331800Y580190D01*
X332087Y580228D01*
X332355Y580339D01*
X332585Y580515D01*
X332761Y580745D01*
X332872Y581013D01*
X332909Y581300D01*
X332872Y581587D01*
X332761Y581855D01*
X332585Y582085D01*
X332355Y582261D01*
X332087Y582372D01*
X331800Y582409D01*
D02*
G37*
G36*
X334100Y581009D02*
X333813Y580972D01*
X333545Y580861D01*
X333315Y580685D01*
X333139Y580455D01*
X333028Y580187D01*
X332991Y579900D01*
X333028Y579613D01*
X333139Y579345D01*
X333315Y579115D01*
X333545Y578939D01*
X333813Y578828D01*
X334100Y578791D01*
X334387Y578828D01*
X334655Y578939D01*
X334885Y579115D01*
X335061Y579345D01*
X335172Y579613D01*
X335210Y579900D01*
X335172Y580187D01*
X335061Y580455D01*
X334885Y580685D01*
X334655Y580861D01*
X334387Y580972D01*
X334100Y581009D01*
D02*
G37*
G36*
X517675Y579747D02*
X517492Y579723D01*
X517322Y579652D01*
X517176Y579540D01*
X517064Y579394D01*
X516993Y579224D01*
X516969Y579041D01*
X516993Y578858D01*
X517064Y578688D01*
X517176Y578542D01*
X517322Y578429D01*
X517492Y578359D01*
X517675Y578335D01*
X517858Y578359D01*
X518028Y578429D01*
X518174Y578542D01*
X518286Y578688D01*
X518357Y578858D01*
X518381Y579041D01*
X518357Y579224D01*
X518286Y579394D01*
X518174Y579540D01*
X518028Y579652D01*
X517858Y579723D01*
X517675Y579747D01*
D02*
G37*
G36*
X510500Y579859D02*
X510213Y579822D01*
X509945Y579711D01*
X509715Y579535D01*
X509539Y579305D01*
X509428Y579037D01*
X509391Y578750D01*
X509428Y578463D01*
X509539Y578195D01*
X509715Y577965D01*
X509945Y577789D01*
X510213Y577678D01*
X510500Y577641D01*
X510787Y577678D01*
X511055Y577789D01*
X511285Y577965D01*
X511461Y578195D01*
X511572Y578463D01*
X511609Y578750D01*
X511572Y579037D01*
X511461Y579305D01*
X511285Y579535D01*
X511055Y579711D01*
X510787Y579822D01*
X510500Y579859D01*
D02*
G37*
G36*
X324300Y573406D02*
X324117Y573382D01*
X323947Y573311D01*
X323801Y573199D01*
X323689Y573053D01*
X323618Y572883D01*
X323594Y572700D01*
X323618Y572517D01*
X323689Y572347D01*
X323801Y572201D01*
X323947Y572089D01*
X324117Y572018D01*
X324300Y571994D01*
X324483Y572018D01*
X324653Y572089D01*
X324799Y572201D01*
X324911Y572347D01*
X324982Y572517D01*
X325006Y572700D01*
X324982Y572883D01*
X324911Y573053D01*
X324799Y573199D01*
X324653Y573311D01*
X324483Y573382D01*
X324300Y573406D01*
D02*
G37*
G36*
X341400Y563206D02*
X341217Y563182D01*
X341047Y563111D01*
X340901Y562999D01*
X340789Y562853D01*
X340718Y562683D01*
X340694Y562500D01*
X340718Y562317D01*
X340789Y562147D01*
X340901Y562001D01*
X341047Y561889D01*
X341217Y561818D01*
X341400Y561794D01*
X341583Y561818D01*
X341753Y561889D01*
X341899Y562001D01*
X342011Y562147D01*
X342082Y562317D01*
X342106Y562500D01*
X342082Y562683D01*
X342011Y562853D01*
X341899Y562999D01*
X341753Y563111D01*
X341583Y563182D01*
X341400Y563206D01*
D02*
G37*
G36*
X345567Y559046D02*
Y558227D01*
X346385D01*
X346369Y558349D01*
X346273Y558581D01*
X346120Y558780D01*
X345921Y558933D01*
X345689Y559029D01*
X345567Y559046D01*
D02*
G37*
G36*
X345313D02*
X345191Y559029D01*
X344959Y558933D01*
X344760Y558780D01*
X344607Y558581D01*
X344511Y558349D01*
X344494Y558227D01*
X345313D01*
Y559046D01*
D02*
G37*
G36*
X534127Y558397D02*
Y557427D01*
X535097D01*
X535076Y557588D01*
X534964Y557857D01*
X534787Y558087D01*
X534557Y558264D01*
X534288Y558376D01*
X534127Y558397D01*
D02*
G37*
G36*
X533873Y558397D02*
X533712Y558376D01*
X533443Y558264D01*
X533213Y558087D01*
X533036Y557857D01*
X532924Y557588D01*
X532903Y557427D01*
X533873D01*
Y558397D01*
D02*
G37*
G36*
X346385Y557973D02*
X345567D01*
Y557154D01*
X345689Y557171D01*
X345921Y557267D01*
X346120Y557420D01*
X346273Y557619D01*
X346369Y557851D01*
X346385Y557973D01*
D02*
G37*
G36*
X345313D02*
X344494D01*
X344511Y557851D01*
X344607Y557619D01*
X344760Y557420D01*
X344959Y557267D01*
X345191Y557171D01*
X345313Y557154D01*
Y557973D01*
D02*
G37*
G36*
X336330Y559150D02*
X334230D01*
Y557050D01*
X336330D01*
Y559150D01*
D02*
G37*
G36*
X342900Y559159D02*
X342626Y559123D01*
X342370Y559017D01*
X342151Y558849D01*
X341983Y558630D01*
X341877Y558374D01*
X341841Y558100D01*
X341877Y557826D01*
X341983Y557570D01*
X342151Y557351D01*
X342370Y557183D01*
X342626Y557077D01*
X342900Y557041D01*
X343174Y557077D01*
X343430Y557183D01*
X343649Y557351D01*
X343817Y557570D01*
X343923Y557826D01*
X343959Y558100D01*
X343923Y558374D01*
X343817Y558630D01*
X343649Y558849D01*
X343430Y559017D01*
X343174Y559123D01*
X342900Y559159D01*
D02*
G37*
G36*
X340360D02*
X340086Y559123D01*
X339830Y559017D01*
X339611Y558849D01*
X339443Y558630D01*
X339337Y558374D01*
X339301Y558100D01*
X339337Y557826D01*
X339443Y557570D01*
X339611Y557351D01*
X339830Y557183D01*
X340086Y557077D01*
X340360Y557041D01*
X340634Y557077D01*
X340890Y557183D01*
X341109Y557351D01*
X341277Y557570D01*
X341383Y557826D01*
X341419Y558100D01*
X341383Y558374D01*
X341277Y558630D01*
X341109Y558849D01*
X340890Y559017D01*
X340634Y559123D01*
X340360Y559159D01*
D02*
G37*
G36*
X337820D02*
X337546Y559123D01*
X337290Y559017D01*
X337071Y558849D01*
X336903Y558630D01*
X336797Y558374D01*
X336761Y558100D01*
X336797Y557826D01*
X336903Y557570D01*
X337071Y557351D01*
X337290Y557183D01*
X337546Y557077D01*
X337820Y557041D01*
X338094Y557077D01*
X338350Y557183D01*
X338569Y557351D01*
X338737Y557570D01*
X338843Y557826D01*
X338879Y558100D01*
X338843Y558374D01*
X338737Y558630D01*
X338569Y558849D01*
X338350Y559017D01*
X338094Y559123D01*
X337820Y559159D01*
D02*
G37*
G36*
X535097Y557173D02*
X534127D01*
Y556203D01*
X534288Y556224D01*
X534557Y556336D01*
X534787Y556513D01*
X534964Y556743D01*
X535076Y557012D01*
X535097Y557173D01*
D02*
G37*
G36*
X533873D02*
X532903D01*
X532924Y557012D01*
X533036Y556743D01*
X533213Y556513D01*
X533443Y556336D01*
X533712Y556224D01*
X533873Y556203D01*
Y557173D01*
D02*
G37*
G36*
X335399Y556200D02*
X335216Y556176D01*
X335046Y556105D01*
X334899Y555993D01*
X334787Y555847D01*
X334717Y555677D01*
X334693Y555494D01*
X334717Y555311D01*
X334787Y555141D01*
X334899Y554995D01*
X335046Y554883D01*
X335216Y554812D01*
X335399Y554788D01*
X335581Y554812D01*
X335752Y554883D01*
X335898Y554995D01*
X336010Y555141D01*
X336081Y555311D01*
X336105Y555494D01*
X336081Y555677D01*
X336010Y555847D01*
X335898Y555993D01*
X335752Y556105D01*
X335581Y556176D01*
X335399Y556200D01*
D02*
G37*
G36*
X343300Y554681D02*
X343117Y554657D01*
X342947Y554586D01*
X342801Y554474D01*
X342689Y554328D01*
X342618Y554158D01*
X342594Y553975D01*
X342618Y553792D01*
X342689Y553622D01*
X342801Y553476D01*
X342947Y553364D01*
X343117Y553293D01*
X343300Y553269D01*
X343483Y553293D01*
X343653Y553364D01*
X343799Y553476D01*
X343911Y553622D01*
X343982Y553792D01*
X344006Y553975D01*
X343982Y554158D01*
X343911Y554328D01*
X343799Y554474D01*
X343653Y554586D01*
X343483Y554657D01*
X343300Y554681D01*
D02*
G37*
G36*
X344200Y553106D02*
X344017Y553082D01*
X343847Y553011D01*
X343701Y552899D01*
X343589Y552753D01*
X343518Y552583D01*
X343494Y552400D01*
X343518Y552217D01*
X343589Y552047D01*
X343701Y551901D01*
X343847Y551789D01*
X344017Y551718D01*
X344200Y551694D01*
X344383Y551718D01*
X344553Y551789D01*
X344699Y551901D01*
X344811Y552047D01*
X344882Y552217D01*
X344906Y552400D01*
X344882Y552583D01*
X344811Y552753D01*
X344699Y552899D01*
X344553Y553011D01*
X344383Y553082D01*
X344200Y553106D01*
D02*
G37*
G36*
X535200Y553500D02*
X532800D01*
Y551100D01*
X535200D01*
Y553500D01*
D02*
G37*
G36*
X299900Y554169D02*
X299537Y554134D01*
X299189Y554028D01*
X298867Y553856D01*
X298586Y553625D01*
X298354Y553343D01*
X298183Y553022D01*
X298077Y552673D01*
X298041Y552310D01*
X298077Y551948D01*
X298183Y551599D01*
X298354Y551278D01*
X298586Y550996D01*
X298867Y550765D01*
X299189Y550593D01*
X299537Y550487D01*
X299900Y550452D01*
X300263Y550487D01*
X300611Y550593D01*
X300933Y550765D01*
X301214Y550996D01*
X301446Y551278D01*
X301617Y551599D01*
X301723Y551948D01*
X301759Y552310D01*
X301723Y552673D01*
X301617Y553022D01*
X301446Y553343D01*
X301214Y553625D01*
X300933Y553856D01*
X300611Y554028D01*
X300263Y554134D01*
X299900Y554169D01*
D02*
G37*
G36*
X326806Y551712D02*
X326623Y551688D01*
X326453Y551617D01*
X326307Y551505D01*
X326195Y551359D01*
X326124Y551189D01*
X326100Y551006D01*
X326124Y550823D01*
X326195Y550653D01*
X326307Y550507D01*
X326453Y550395D01*
X326623Y550324D01*
X326806Y550300D01*
X326989Y550324D01*
X327159Y550395D01*
X327305Y550507D01*
X327417Y550653D01*
X327488Y550823D01*
X327512Y551006D01*
X327488Y551189D01*
X327417Y551359D01*
X327305Y551505D01*
X327159Y551617D01*
X326989Y551688D01*
X326806Y551712D01*
D02*
G37*
G36*
X331000Y550200D02*
X330817Y550176D01*
X330647Y550105D01*
X330501Y549993D01*
X330389Y549847D01*
X330318Y549677D01*
X330294Y549494D01*
X330318Y549311D01*
X330389Y549141D01*
X330501Y548995D01*
X330647Y548883D01*
X330817Y548812D01*
X331000Y548788D01*
X331183Y548812D01*
X331353Y548883D01*
X331499Y548995D01*
X331611Y549141D01*
X331682Y549311D01*
X331706Y549494D01*
X331682Y549677D01*
X331611Y549847D01*
X331499Y549993D01*
X331353Y550105D01*
X331183Y550176D01*
X331000Y550200D01*
D02*
G37*
G36*
X304610Y548549D02*
X304349Y548515D01*
X304106Y548414D01*
X303897Y548254D01*
X303737Y548045D01*
X303679Y547905D01*
X303541D01*
X303483Y548045D01*
X303323Y548254D01*
X303114Y548414D01*
X302871Y548515D01*
X302610Y548549D01*
X302349Y548515D01*
X302106Y548414D01*
X301897Y548254D01*
X301737Y548045D01*
X301636Y547802D01*
X301601Y547541D01*
X301636Y547279D01*
X301737Y547036D01*
X301897Y546827D01*
X302106Y546667D01*
X302349Y546566D01*
X302610Y546532D01*
X302871Y546566D01*
X303114Y546667D01*
X303323Y546827D01*
X303483Y547036D01*
X303541Y547176D01*
X303679D01*
X303737Y547036D01*
X303897Y546827D01*
X304106Y546667D01*
X304349Y546566D01*
X304610Y546532D01*
X304871Y546566D01*
X305114Y546667D01*
X305323Y546827D01*
X305483Y547036D01*
X305584Y547279D01*
X305619Y547541D01*
X305584Y547802D01*
X305483Y548045D01*
X305323Y548254D01*
X305114Y548414D01*
X304871Y548515D01*
X304610Y548549D01*
D02*
G37*
G36*
X345000Y547306D02*
X344817Y547282D01*
X344647Y547211D01*
X344501Y547099D01*
X344389Y546953D01*
X344318Y546783D01*
X344294Y546600D01*
X344318Y546417D01*
X344389Y546247D01*
X344501Y546101D01*
X344647Y545989D01*
X344817Y545918D01*
X345000Y545894D01*
X345183Y545918D01*
X345353Y545989D01*
X345499Y546101D01*
X345611Y546247D01*
X345682Y546417D01*
X345706Y546600D01*
X345682Y546783D01*
X345611Y546953D01*
X345499Y547099D01*
X345353Y547211D01*
X345183Y547282D01*
X345000Y547306D01*
D02*
G37*
G36*
X340700Y547106D02*
X340517Y547082D01*
X340347Y547011D01*
X340201Y546899D01*
X340089Y546753D01*
X340018Y546583D01*
X339994Y546400D01*
X340018Y546217D01*
X340089Y546047D01*
X340201Y545901D01*
X340347Y545789D01*
X340517Y545718D01*
X340700Y545694D01*
X340883Y545718D01*
X341053Y545789D01*
X341199Y545901D01*
X341311Y546047D01*
X341382Y546217D01*
X341406Y546400D01*
X341382Y546583D01*
X341311Y546753D01*
X341199Y546899D01*
X341053Y547011D01*
X340883Y547082D01*
X340700Y547106D01*
D02*
G37*
G36*
X335399Y546450D02*
X335216Y546426D01*
X335046Y546355D01*
X334899Y546243D01*
X334787Y546097D01*
X334717Y545927D01*
X334693Y545744D01*
X334717Y545561D01*
X334787Y545391D01*
X334899Y545245D01*
X335046Y545133D01*
X335216Y545062D01*
X335399Y545038D01*
X335581Y545062D01*
X335752Y545133D01*
X335898Y545245D01*
X336010Y545391D01*
X336081Y545561D01*
X336105Y545744D01*
X336081Y545927D01*
X336010Y546097D01*
X335898Y546243D01*
X335752Y546355D01*
X335581Y546426D01*
X335399Y546450D01*
D02*
G37*
G36*
X355700Y546306D02*
X355517Y546282D01*
X355347Y546211D01*
X355201Y546099D01*
X355089Y545953D01*
X355018Y545783D01*
X354994Y545600D01*
X355018Y545417D01*
X355089Y545247D01*
X355201Y545101D01*
X355347Y544989D01*
X355517Y544918D01*
X355700Y544894D01*
X355883Y544918D01*
X356053Y544989D01*
X356199Y545101D01*
X356311Y545247D01*
X356382Y545417D01*
X356406Y545600D01*
X356382Y545783D01*
X356311Y545953D01*
X356199Y546099D01*
X356053Y546211D01*
X355883Y546282D01*
X355700Y546306D01*
D02*
G37*
G36*
X302610Y546049D02*
X302349Y546015D01*
X302106Y545914D01*
X301897Y545754D01*
X301737Y545545D01*
X301636Y545302D01*
X301601Y545041D01*
X301636Y544779D01*
X301737Y544536D01*
X301897Y544327D01*
X302106Y544167D01*
X302349Y544066D01*
X302610Y544032D01*
X302871Y544066D01*
X303114Y544167D01*
X303323Y544327D01*
X303483Y544536D01*
X303541Y544676D01*
X303679D01*
X303737Y544536D01*
X303897Y544327D01*
X304106Y544167D01*
X304349Y544066D01*
X304610Y544032D01*
X304871Y544066D01*
X305114Y544167D01*
X305323Y544327D01*
X305483Y544536D01*
X305584Y544779D01*
X305619Y545041D01*
X305584Y545302D01*
X305483Y545545D01*
X305323Y545754D01*
X305114Y545914D01*
X304871Y546015D01*
X304610Y546049D01*
X304349Y546015D01*
X304106Y545914D01*
X303897Y545754D01*
X303737Y545545D01*
X303679Y545405D01*
X303541D01*
X303483Y545545D01*
X303323Y545754D01*
X303114Y545914D01*
X302871Y546015D01*
X302610Y546049D01*
D02*
G37*
G36*
X339800Y544406D02*
X339617Y544382D01*
X339447Y544311D01*
X339301Y544199D01*
X339189Y544053D01*
X339118Y543883D01*
X339094Y543700D01*
X339118Y543517D01*
X339189Y543347D01*
X339301Y543201D01*
X339447Y543089D01*
X339617Y543018D01*
X339800Y542994D01*
X339983Y543018D01*
X340153Y543089D01*
X340299Y543201D01*
X340411Y543347D01*
X340482Y543517D01*
X340506Y543700D01*
X340482Y543883D01*
X340411Y544053D01*
X340299Y544199D01*
X340153Y544311D01*
X339983Y544382D01*
X339800Y544406D01*
D02*
G37*
G36*
X337300Y543709D02*
X337013Y543672D01*
X336745Y543561D01*
X336515Y543385D01*
X336339Y543155D01*
X336228Y542887D01*
X336191Y542600D01*
X336228Y542313D01*
X336339Y542045D01*
X336515Y541815D01*
X336745Y541639D01*
X337013Y541528D01*
X337300Y541491D01*
X337587Y541528D01*
X337855Y541639D01*
X338085Y541815D01*
X338261Y542045D01*
X338372Y542313D01*
X338409Y542600D01*
X338372Y542887D01*
X338261Y543155D01*
X338085Y543385D01*
X337855Y543561D01*
X337587Y543672D01*
X337300Y543709D01*
D02*
G37*
G36*
X354400Y541681D02*
X354217Y541657D01*
X354047Y541586D01*
X353901Y541474D01*
X353789Y541328D01*
X353718Y541158D01*
X353694Y540975D01*
X353700Y540933D01*
X353586Y540826D01*
X353442Y540807D01*
X353272Y540736D01*
X353126Y540624D01*
X353014Y540478D01*
X352943Y540308D01*
X352919Y540125D01*
X352802Y540043D01*
X352717Y540032D01*
X352547Y539961D01*
X352401Y539849D01*
X352289Y539703D01*
X352218Y539533D01*
X352194Y539350D01*
X352210Y539227D01*
X352121Y539126D01*
X352101Y539118D01*
X352000Y539131D01*
X351817Y539107D01*
X351647Y539036D01*
X351501Y538924D01*
X351389Y538778D01*
X351318Y538608D01*
X351294Y538425D01*
X351318Y538242D01*
X351389Y538072D01*
X351501Y537926D01*
X351647Y537814D01*
X351817Y537743D01*
X352000Y537719D01*
X352183Y537743D01*
X352353Y537814D01*
X352499Y537926D01*
X352611Y538072D01*
X352682Y538242D01*
X352706Y538425D01*
X352690Y538548D01*
X352779Y538649D01*
X352799Y538657D01*
X352900Y538644D01*
X353083Y538668D01*
X353253Y538739D01*
X353399Y538851D01*
X353511Y538997D01*
X353582Y539167D01*
X353606Y539350D01*
X353723Y539432D01*
X353808Y539443D01*
X353978Y539514D01*
X354124Y539626D01*
X354236Y539772D01*
X354307Y539942D01*
X354331Y540125D01*
X354325Y540167D01*
X354440Y540274D01*
X354583Y540293D01*
X354753Y540364D01*
X354899Y540476D01*
X355011Y540622D01*
X355082Y540792D01*
X355106Y540975D01*
X355082Y541158D01*
X355011Y541328D01*
X354899Y541474D01*
X354753Y541586D01*
X354583Y541657D01*
X354400Y541681D01*
D02*
G37*
G36*
X299900Y542129D02*
X299537Y542094D01*
X299189Y541988D01*
X298867Y541816D01*
X298586Y541585D01*
X298354Y541303D01*
X298183Y540982D01*
X298077Y540633D01*
X298041Y540271D01*
X298077Y539908D01*
X298183Y539559D01*
X298354Y539238D01*
X298586Y538956D01*
X298867Y538725D01*
X299189Y538553D01*
X299537Y538447D01*
X299900Y538412D01*
X300263Y538447D01*
X300611Y538553D01*
X300933Y538725D01*
X301214Y538956D01*
X301446Y539238D01*
X301617Y539559D01*
X301723Y539908D01*
X301759Y540271D01*
X301723Y540633D01*
X301617Y540982D01*
X301446Y541303D01*
X301214Y541585D01*
X300933Y541816D01*
X300611Y541988D01*
X300263Y542094D01*
X299900Y542129D01*
D02*
G37*
G36*
X349100Y538631D02*
X348917Y538607D01*
X348747Y538536D01*
X348601Y538424D01*
X348573Y538388D01*
X348503Y538442D01*
X348333Y538512D01*
X348150Y538536D01*
X347967Y538512D01*
X347797Y538442D01*
X347651Y538330D01*
X347539Y538183D01*
X347468Y538013D01*
X347444Y537830D01*
X347468Y537648D01*
X347539Y537477D01*
X347651Y537331D01*
X347797Y537219D01*
X347967Y537148D01*
X348150Y537124D01*
X348333Y537148D01*
X348503Y537219D01*
X348649Y537331D01*
X348677Y537367D01*
X348747Y537314D01*
X348917Y537243D01*
X349100Y537219D01*
X349283Y537243D01*
X349453Y537314D01*
X349552Y537390D01*
X349684Y537343D01*
X349687Y537341D01*
X349693Y537292D01*
X349764Y537122D01*
X349876Y536976D01*
X350022Y536864D01*
X350192Y536793D01*
X350375Y536769D01*
X350558Y536793D01*
X350728Y536864D01*
X350874Y536976D01*
X350986Y537122D01*
X351057Y537292D01*
X351081Y537475D01*
X351057Y537658D01*
X350986Y537828D01*
X350874Y537974D01*
X350728Y538086D01*
X350558Y538157D01*
X350375Y538181D01*
X350192Y538157D01*
X350022Y538086D01*
X349923Y538010D01*
X349791Y538057D01*
X349788Y538059D01*
X349782Y538108D01*
X349711Y538278D01*
X349599Y538424D01*
X349453Y538536D01*
X349283Y538607D01*
X349100Y538631D01*
D02*
G37*
G36*
X330475Y539068D02*
X329676Y538854D01*
X329890Y538055D01*
X330689Y538270D01*
X330475Y539068D01*
D02*
G37*
G36*
X329430Y538789D02*
X328632Y538575D01*
X328846Y537776D01*
X329644Y537990D01*
X329430Y538789D01*
D02*
G37*
G36*
X321400Y538506D02*
X321217Y538482D01*
X321047Y538411D01*
X320901Y538299D01*
X320789Y538153D01*
X320718Y537983D01*
X320694Y537800D01*
X320718Y537617D01*
X320789Y537447D01*
X320901Y537301D01*
X321047Y537189D01*
X321217Y537118D01*
X321400Y537094D01*
X321583Y537118D01*
X321753Y537189D01*
X321899Y537301D01*
X322011Y537447D01*
X322082Y537617D01*
X322106Y537800D01*
X322082Y537983D01*
X322011Y538153D01*
X321899Y538299D01*
X321753Y538411D01*
X321583Y538482D01*
X321400Y538506D01*
D02*
G37*
G36*
X330754Y538024D02*
X329956Y537810D01*
X330170Y537011D01*
X330968Y537225D01*
X330754Y538024D01*
D02*
G37*
G36*
X329710Y537744D02*
X328911Y537530D01*
X329125Y536732D01*
X329924Y536946D01*
X329710Y537744D01*
D02*
G37*
G36*
X346200Y538006D02*
X346017Y537982D01*
X345847Y537911D01*
X345701Y537799D01*
X345589Y537653D01*
X345518Y537483D01*
X345494Y537300D01*
X345518Y537117D01*
X345589Y536947D01*
X345701Y536801D01*
X345847Y536689D01*
X346017Y536618D01*
X346200Y536594D01*
X346383Y536618D01*
X346553Y536689D01*
X346699Y536801D01*
X346811Y536947D01*
X346882Y537117D01*
X346906Y537300D01*
X346882Y537483D01*
X346811Y537653D01*
X346699Y537799D01*
X346553Y537911D01*
X346383Y537982D01*
X346200Y538006D01*
D02*
G37*
G36*
X327347Y538302D02*
X327072Y538266D01*
X326817Y538160D01*
X326598Y537991D01*
X326429Y537772D01*
X326324Y537517D01*
X326287Y537243D01*
X326324Y536969D01*
X326429Y536713D01*
X326598Y536494D01*
X326817Y536325D01*
X327072Y536220D01*
X327347Y536184D01*
X327621Y536220D01*
X327876Y536325D01*
X328095Y536494D01*
X328264Y536713D01*
X328370Y536969D01*
X328406Y537243D01*
X328370Y537517D01*
X328264Y537772D01*
X328095Y537991D01*
X327876Y538160D01*
X327621Y538266D01*
X327347Y538302D01*
D02*
G37*
G36*
X324893Y537644D02*
X324619Y537608D01*
X324364Y537502D01*
X324144Y537334D01*
X323976Y537115D01*
X323870Y536859D01*
X323834Y536585D01*
X323870Y536311D01*
X323976Y536056D01*
X324144Y535836D01*
X324364Y535668D01*
X324619Y535562D01*
X324893Y535526D01*
X325167Y535562D01*
X325423Y535668D01*
X325642Y535836D01*
X325810Y536056D01*
X325916Y536311D01*
X325952Y536585D01*
X325916Y536859D01*
X325810Y537115D01*
X325642Y537334D01*
X325423Y537502D01*
X325167Y537608D01*
X324893Y537644D01*
D02*
G37*
G36*
X358325Y535481D02*
X358142Y535457D01*
X357972Y535386D01*
X357826Y535274D01*
X357714Y535128D01*
X357643Y534958D01*
X357619Y534775D01*
X357643Y534592D01*
X357714Y534422D01*
X357826Y534276D01*
X357972Y534164D01*
X358142Y534093D01*
X358325Y534069D01*
X358508Y534093D01*
X358678Y534164D01*
X358824Y534276D01*
X358936Y534422D01*
X359007Y534592D01*
X359031Y534775D01*
X359007Y534958D01*
X358936Y535128D01*
X358824Y535274D01*
X358678Y535386D01*
X358508Y535457D01*
X358325Y535481D01*
D02*
G37*
G36*
X347900Y535206D02*
X347717Y535182D01*
X347547Y535111D01*
X347401Y534999D01*
X347289Y534853D01*
X347218Y534683D01*
X347194Y534500D01*
X347218Y534317D01*
X347289Y534147D01*
X347401Y534001D01*
X347547Y533889D01*
X347717Y533818D01*
X347900Y533794D01*
X348083Y533818D01*
X348253Y533889D01*
X348399Y534001D01*
X348511Y534147D01*
X348582Y534317D01*
X348606Y534500D01*
X348582Y534683D01*
X348511Y534853D01*
X348399Y534999D01*
X348253Y535111D01*
X348083Y535182D01*
X347900Y535206D01*
D02*
G37*
G36*
X328224Y535103D02*
X327976Y535070D01*
X327745Y534974D01*
X327547Y534822D01*
X327394Y534624D01*
X327299Y534393D01*
X327266Y534145D01*
X327299Y533897D01*
X327394Y533665D01*
X327547Y533467D01*
X327745Y533315D01*
X327976Y533219D01*
X328224Y533186D01*
X328472Y533219D01*
X328703Y533315D01*
X328902Y533467D01*
X329054Y533665D01*
X329150Y533897D01*
X329182Y534145D01*
X329150Y534393D01*
X329054Y534624D01*
X328902Y534822D01*
X328703Y534974D01*
X328472Y535070D01*
X328224Y535103D01*
D02*
G37*
G36*
X320600Y533806D02*
X320417Y533782D01*
X320247Y533711D01*
X320101Y533599D01*
X319989Y533453D01*
X319918Y533283D01*
X319894Y533100D01*
X319918Y532917D01*
X319989Y532747D01*
X320101Y532601D01*
X320247Y532489D01*
X320417Y532418D01*
X320600Y532394D01*
X320783Y532418D01*
X320953Y532489D01*
X321099Y532601D01*
X321211Y532747D01*
X321282Y532917D01*
X321306Y533100D01*
X321282Y533283D01*
X321211Y533453D01*
X321099Y533599D01*
X320953Y533711D01*
X320783Y533782D01*
X320600Y533806D01*
D02*
G37*
G36*
X326442Y534651D02*
X324607Y534159D01*
X325099Y532324D01*
X326934Y532815D01*
X326442Y534651D01*
D02*
G37*
G36*
X358050Y533781D02*
X357867Y533757D01*
X357697Y533686D01*
X357551Y533574D01*
X357439Y533428D01*
X357368Y533258D01*
X357344Y533075D01*
X357368Y532892D01*
X357439Y532722D01*
X357551Y532576D01*
X357697Y532464D01*
X357867Y532393D01*
X358050Y532369D01*
X358233Y532393D01*
X358403Y532464D01*
X358503Y532540D01*
X358594Y532450D01*
X358539Y532378D01*
X358468Y532208D01*
X358444Y532025D01*
X358468Y531842D01*
X358539Y531672D01*
X358651Y531526D01*
X358797Y531414D01*
X358967Y531343D01*
X359150Y531319D01*
X359333Y531343D01*
X359503Y531414D01*
X359649Y531526D01*
X359761Y531672D01*
X359832Y531842D01*
X359856Y532025D01*
X359832Y532208D01*
X359761Y532378D01*
X359649Y532524D01*
X359503Y532636D01*
X359333Y532707D01*
X359150Y532731D01*
X358967Y532707D01*
X358797Y532636D01*
X358697Y532560D01*
X358606Y532650D01*
X358661Y532722D01*
X358732Y532892D01*
X358756Y533075D01*
X358732Y533258D01*
X358661Y533428D01*
X358549Y533574D01*
X358403Y533686D01*
X358233Y533757D01*
X358050Y533781D01*
D02*
G37*
G36*
X351075Y535406D02*
X350892Y535382D01*
X350722Y535311D01*
X350576Y535199D01*
X350464Y535053D01*
X350393Y534883D01*
X350369Y534700D01*
X350393Y534517D01*
X350464Y534347D01*
X350576Y534201D01*
X350722Y534089D01*
X350892Y534018D01*
X351075Y533994D01*
X351144Y534003D01*
X351286Y533899D01*
X351293Y533842D01*
X351364Y533672D01*
X351476Y533526D01*
X351622Y533414D01*
X351792Y533343D01*
X351975Y533319D01*
X351997Y533322D01*
X352134Y533212D01*
X352143Y533142D01*
X352214Y532972D01*
X352326Y532826D01*
X352472Y532714D01*
X352642Y532643D01*
X352825Y532619D01*
X352958Y532636D01*
X352994Y532600D01*
X353018Y532417D01*
X353089Y532247D01*
X353201Y532101D01*
X353347Y531989D01*
X353517Y531918D01*
X353700Y531894D01*
X353883Y531918D01*
X354000Y531966D01*
X354084Y531920D01*
X354115Y531894D01*
X354121Y531885D01*
X354143Y531717D01*
X354214Y531547D01*
X354326Y531401D01*
X354472Y531289D01*
X354642Y531218D01*
X354825Y531194D01*
X355008Y531218D01*
X355178Y531289D01*
X355324Y531401D01*
X355436Y531547D01*
X355507Y531717D01*
X355531Y531900D01*
X355507Y532083D01*
X355436Y532253D01*
X355324Y532399D01*
X355178Y532511D01*
X355008Y532582D01*
X354825Y532606D01*
X354642Y532582D01*
X354525Y532534D01*
X354441Y532580D01*
X354410Y532606D01*
X354404Y532615D01*
X354382Y532783D01*
X354311Y532953D01*
X354199Y533099D01*
X354053Y533211D01*
X353883Y533282D01*
X353700Y533306D01*
X353567Y533289D01*
X353531Y533325D01*
X353507Y533508D01*
X353436Y533678D01*
X353324Y533824D01*
X353178Y533936D01*
X353008Y534007D01*
X352825Y534031D01*
X352803Y534028D01*
X352666Y534138D01*
X352657Y534208D01*
X352586Y534378D01*
X352474Y534524D01*
X352328Y534636D01*
X352158Y534707D01*
X351975Y534731D01*
X351906Y534722D01*
X351764Y534826D01*
X351757Y534883D01*
X351686Y535053D01*
X351574Y535199D01*
X351428Y535311D01*
X351258Y535382D01*
X351075Y535406D01*
D02*
G37*
G36*
X345300Y531706D02*
X345117Y531682D01*
X344947Y531611D01*
X344801Y531499D01*
X344689Y531353D01*
X344618Y531183D01*
X344594Y531000D01*
X344618Y530817D01*
X344689Y530647D01*
X344801Y530501D01*
X344947Y530389D01*
X345117Y530318D01*
X345300Y530294D01*
X345483Y530318D01*
X345653Y530389D01*
X345799Y530501D01*
X345911Y530647D01*
X345982Y530817D01*
X346006Y531000D01*
X345982Y531183D01*
X345911Y531353D01*
X345799Y531499D01*
X345653Y531611D01*
X345483Y531682D01*
X345300Y531706D01*
D02*
G37*
G36*
X338300D02*
X338117Y531682D01*
X337947Y531611D01*
X337801Y531499D01*
X337689Y531353D01*
X337618Y531183D01*
X337594Y531000D01*
X337618Y530817D01*
X337689Y530647D01*
X337801Y530501D01*
X337947Y530389D01*
X338117Y530318D01*
X338300Y530294D01*
X338483Y530318D01*
X338653Y530389D01*
X338799Y530501D01*
X338911Y530647D01*
X338982Y530817D01*
X339006Y531000D01*
X338982Y531183D01*
X338911Y531353D01*
X338799Y531499D01*
X338653Y531611D01*
X338483Y531682D01*
X338300Y531706D01*
D02*
G37*
G36*
X305092Y532338D02*
X304818Y532302D01*
X304562Y532197D01*
X304343Y532028D01*
X304174Y531809D01*
X304069Y531554D01*
X304033Y531279D01*
X304069Y531005D01*
X304174Y530750D01*
X304343Y530531D01*
X304562Y530362D01*
X304818Y530256D01*
X305092Y530220D01*
X305366Y530256D01*
X305621Y530362D01*
X305840Y530531D01*
X306009Y530750D01*
X306115Y531005D01*
X306151Y531279D01*
X306115Y531554D01*
X306009Y531809D01*
X305840Y532028D01*
X305621Y532197D01*
X305366Y532302D01*
X305092Y532338D01*
D02*
G37*
G36*
X348300Y533506D02*
X348117Y533482D01*
X347947Y533411D01*
X347801Y533299D01*
X347689Y533153D01*
X347618Y532983D01*
X347594Y532800D01*
X347618Y532617D01*
X347689Y532447D01*
X347801Y532301D01*
X347947Y532189D01*
X348117Y532118D01*
X348300Y532094D01*
X348467Y532116D01*
X348489Y532113D01*
X348602Y532030D01*
X348617Y531917D01*
X348688Y531747D01*
X348800Y531601D01*
X348946Y531489D01*
X349117Y531418D01*
X349299Y531394D01*
X349482Y531418D01*
X349589Y531462D01*
X349669Y531358D01*
X349589Y531253D01*
X349518Y531083D01*
X349494Y530900D01*
X349518Y530717D01*
X349589Y530547D01*
X349701Y530401D01*
X349847Y530289D01*
X350017Y530218D01*
X350200Y530194D01*
X350383Y530218D01*
X350553Y530289D01*
X350699Y530401D01*
X350811Y530547D01*
X350882Y530717D01*
X350906Y530900D01*
X350882Y531083D01*
X350811Y531253D01*
X350699Y531399D01*
X350553Y531511D01*
X350383Y531582D01*
X350200Y531606D01*
X350017Y531582D01*
X349910Y531538D01*
X349830Y531642D01*
X349911Y531747D01*
X349981Y531917D01*
X350005Y532100D01*
X349981Y532283D01*
X349911Y532453D01*
X349799Y532599D01*
X349652Y532711D01*
X349482Y532782D01*
X349299Y532806D01*
X349132Y532784D01*
X349110Y532787D01*
X348997Y532870D01*
X348982Y532983D01*
X348911Y533153D01*
X348799Y533299D01*
X348653Y533411D01*
X348483Y533482D01*
X348300Y533506D01*
D02*
G37*
G36*
X362700Y531406D02*
X362517Y531382D01*
X362347Y531311D01*
X362201Y531199D01*
X362089Y531053D01*
X362018Y530883D01*
X361994Y530700D01*
X362018Y530517D01*
X362089Y530347D01*
X362201Y530201D01*
X362347Y530089D01*
X362517Y530018D01*
X362700Y529994D01*
X362883Y530018D01*
X363053Y530089D01*
X363199Y530201D01*
X363311Y530347D01*
X363382Y530517D01*
X363406Y530700D01*
X363382Y530883D01*
X363311Y531053D01*
X363199Y531199D01*
X363053Y531311D01*
X362883Y531382D01*
X362700Y531406D01*
D02*
G37*
G36*
X302638Y531681D02*
X302364Y531645D01*
X302109Y531539D01*
X301889Y531371D01*
X301721Y531152D01*
X301615Y530896D01*
X301579Y530622D01*
X301615Y530348D01*
X301721Y530092D01*
X301889Y529873D01*
X302109Y529705D01*
X302364Y529599D01*
X302638Y529563D01*
X302912Y529599D01*
X303168Y529705D01*
X303387Y529873D01*
X303555Y530092D01*
X303661Y530348D01*
X303697Y530622D01*
X303661Y530896D01*
X303555Y531152D01*
X303387Y531371D01*
X303168Y531539D01*
X302912Y531645D01*
X302638Y531681D01*
D02*
G37*
G36*
X300185Y531024D02*
X299911Y530988D01*
X299655Y530882D01*
X299436Y530714D01*
X299268Y530494D01*
X299162Y530239D01*
X299126Y529965D01*
X299162Y529690D01*
X299268Y529435D01*
X299436Y529216D01*
X299655Y529047D01*
X299911Y528942D01*
X300185Y528906D01*
X300459Y528942D01*
X300714Y529047D01*
X300934Y529216D01*
X301102Y529435D01*
X301208Y529690D01*
X301244Y529965D01*
X301208Y530239D01*
X301102Y530494D01*
X300934Y530714D01*
X300714Y530882D01*
X300459Y530988D01*
X300185Y531024D01*
D02*
G37*
G36*
X310250Y530170D02*
X308150D01*
Y528070D01*
X310250D01*
Y530170D01*
D02*
G37*
G36*
X309200Y527639D02*
X308926Y527603D01*
X308670Y527497D01*
X308451Y527329D01*
X308283Y527110D01*
X308177Y526854D01*
X308141Y526580D01*
X308177Y526306D01*
X308283Y526050D01*
X308451Y525831D01*
X308670Y525663D01*
X308926Y525557D01*
X309200Y525521D01*
X309474Y525557D01*
X309730Y525663D01*
X309949Y525831D01*
X310117Y526050D01*
X310223Y526306D01*
X310259Y526580D01*
X310223Y526854D01*
X310117Y527110D01*
X309949Y527329D01*
X309730Y527497D01*
X309474Y527603D01*
X309200Y527639D01*
D02*
G37*
G36*
X346300Y525606D02*
X346117Y525582D01*
X345947Y525511D01*
X345801Y525399D01*
X345689Y525253D01*
X345618Y525083D01*
X345594Y524900D01*
X345618Y524717D01*
X345689Y524547D01*
X345801Y524401D01*
X345947Y524289D01*
X346117Y524218D01*
X346300Y524194D01*
X346483Y524218D01*
X346653Y524289D01*
X346799Y524401D01*
X346911Y524547D01*
X346982Y524717D01*
X347006Y524900D01*
X346982Y525083D01*
X346911Y525253D01*
X346799Y525399D01*
X346653Y525511D01*
X346483Y525582D01*
X346300Y525606D01*
D02*
G37*
G36*
X329825Y525621D02*
X327990Y525129D01*
X328482Y523294D01*
X330317Y523786D01*
X329825Y525621D01*
D02*
G37*
G36*
X309200Y525099D02*
X308926Y525063D01*
X308670Y524957D01*
X308451Y524789D01*
X308283Y524570D01*
X308177Y524314D01*
X308141Y524040D01*
X308177Y523766D01*
X308283Y523510D01*
X308451Y523291D01*
X308670Y523123D01*
X308926Y523017D01*
X309200Y522981D01*
X309474Y523017D01*
X309730Y523123D01*
X309949Y523291D01*
X310117Y523510D01*
X310223Y523766D01*
X310259Y524040D01*
X310223Y524314D01*
X310117Y524570D01*
X309949Y524789D01*
X309730Y524957D01*
X309474Y525063D01*
X309200Y525099D01*
D02*
G37*
G36*
X326700Y524758D02*
X326452Y524726D01*
X326221Y524630D01*
X326022Y524478D01*
X325870Y524279D01*
X325774Y524048D01*
X325742Y523800D01*
X325774Y523552D01*
X325870Y523321D01*
X326022Y523122D01*
X326221Y522970D01*
X326452Y522874D01*
X326700Y522842D01*
X326948Y522874D01*
X327179Y522970D01*
X327378Y523122D01*
X327530Y523321D01*
X327626Y523552D01*
X327658Y523800D01*
X327626Y524048D01*
X327530Y524279D01*
X327378Y524478D01*
X327179Y524630D01*
X326948Y524726D01*
X326700Y524758D01*
D02*
G37*
G36*
X309200Y522559D02*
X308926Y522523D01*
X308670Y522417D01*
X308451Y522249D01*
X308283Y522030D01*
X308177Y521774D01*
X308141Y521500D01*
X308177Y521226D01*
X308283Y520970D01*
X308451Y520751D01*
X308670Y520583D01*
X308926Y520477D01*
X309200Y520441D01*
X309474Y520477D01*
X309730Y520583D01*
X309949Y520751D01*
X310117Y520970D01*
X310223Y521226D01*
X310259Y521500D01*
X310223Y521774D01*
X310117Y522030D01*
X309949Y522249D01*
X309730Y522417D01*
X309474Y522523D01*
X309200Y522559D01*
D02*
G37*
G36*
X361000Y521806D02*
X360817Y521782D01*
X360647Y521711D01*
X360501Y521599D01*
X360389Y521453D01*
X360318Y521283D01*
X360294Y521100D01*
X360318Y520917D01*
X360389Y520747D01*
X360501Y520601D01*
X360647Y520489D01*
X360817Y520418D01*
X361000Y520394D01*
X361183Y520418D01*
X361353Y520489D01*
X361499Y520601D01*
X361611Y520747D01*
X361682Y520917D01*
X361706Y521100D01*
X361682Y521283D01*
X361611Y521453D01*
X361499Y521599D01*
X361353Y521711D01*
X361183Y521782D01*
X361000Y521806D01*
D02*
G37*
G36*
X334459Y521572D02*
X334185Y521536D01*
X333929Y521430D01*
X333710Y521262D01*
X333542Y521043D01*
X333436Y520787D01*
X333400Y520513D01*
X333436Y520239D01*
X333542Y519984D01*
X333710Y519764D01*
X333929Y519596D01*
X334185Y519490D01*
X334459Y519454D01*
X334733Y519490D01*
X334988Y519596D01*
X335208Y519764D01*
X335376Y519984D01*
X335482Y520239D01*
X335518Y520513D01*
X335482Y520787D01*
X335376Y521043D01*
X335208Y521262D01*
X334988Y521430D01*
X334733Y521536D01*
X334459Y521572D01*
D02*
G37*
G36*
X309327Y519906D02*
Y519087D01*
X310146D01*
X310129Y519209D01*
X310033Y519441D01*
X309880Y519640D01*
X309681Y519793D01*
X309449Y519889D01*
X309327Y519906D01*
D02*
G37*
G36*
X309073Y519906D02*
X308951Y519889D01*
X308719Y519793D01*
X308520Y519640D01*
X308367Y519441D01*
X308271Y519209D01*
X308254Y519087D01*
X309073D01*
Y519906D01*
D02*
G37*
G36*
X332005Y520915D02*
X331731Y520879D01*
X331476Y520773D01*
X331256Y520605D01*
X331088Y520385D01*
X330982Y520130D01*
X330946Y519856D01*
X330982Y519582D01*
X331088Y519326D01*
X331256Y519107D01*
X331476Y518939D01*
X331731Y518833D01*
X332005Y518797D01*
X332279Y518833D01*
X332535Y518939D01*
X332754Y519107D01*
X332922Y519326D01*
X333028Y519582D01*
X333064Y519856D01*
X333028Y520130D01*
X332922Y520385D01*
X332754Y520605D01*
X332535Y520773D01*
X332279Y520879D01*
X332005Y520915D01*
D02*
G37*
G36*
X329552Y520258D02*
X329278Y520221D01*
X329022Y520116D01*
X328803Y519947D01*
X328635Y519728D01*
X328529Y519473D01*
X328493Y519199D01*
X328529Y518924D01*
X328635Y518669D01*
X328803Y518450D01*
X329022Y518281D01*
X329278Y518176D01*
X329552Y518139D01*
X329826Y518176D01*
X330081Y518281D01*
X330301Y518450D01*
X330469Y518669D01*
X330575Y518924D01*
X330611Y519199D01*
X330575Y519473D01*
X330469Y519728D01*
X330301Y519947D01*
X330081Y520116D01*
X329826Y520221D01*
X329552Y520258D01*
D02*
G37*
G36*
X309073Y518833D02*
X308254D01*
X308271Y518711D01*
X308367Y518479D01*
X308520Y518280D01*
X308719Y518127D01*
X308951Y518031D01*
X309073Y518014D01*
Y518833D01*
D02*
G37*
G36*
X310146D02*
X309327D01*
Y518014D01*
X309449Y518031D01*
X309681Y518127D01*
X309880Y518280D01*
X310033Y518479D01*
X310129Y518711D01*
X310146Y518833D01*
D02*
G37*
G36*
X309200Y517479D02*
X308926Y517443D01*
X308670Y517337D01*
X308451Y517169D01*
X308283Y516950D01*
X308177Y516694D01*
X308141Y516420D01*
X308177Y516146D01*
X308283Y515890D01*
X308451Y515671D01*
X308670Y515503D01*
X308926Y515397D01*
X309200Y515361D01*
X309474Y515397D01*
X309730Y515503D01*
X309949Y515671D01*
X310117Y515890D01*
X310223Y516146D01*
X310259Y516420D01*
X310223Y516694D01*
X310117Y516950D01*
X309949Y517169D01*
X309730Y517337D01*
X309474Y517443D01*
X309200Y517479D01*
D02*
G37*
G36*
X309750Y514952D02*
X309476Y514916D01*
X309221Y514810D01*
X309001Y514642D01*
X308833Y514422D01*
X308727Y514167D01*
X308691Y513893D01*
X308727Y513619D01*
X308833Y513363D01*
X309001Y513144D01*
X309221Y512976D01*
X309476Y512870D01*
X309750Y512834D01*
X310024Y512870D01*
X310280Y512976D01*
X310499Y513144D01*
X310668Y513363D01*
X310773Y513619D01*
X310809Y513893D01*
X310773Y514167D01*
X310668Y514422D01*
X310499Y514642D01*
X310280Y514810D01*
X310024Y514916D01*
X309750Y514952D01*
D02*
G37*
G36*
X307297Y514294D02*
X307023Y514258D01*
X306767Y514153D01*
X306548Y513984D01*
X306380Y513765D01*
X306274Y513509D01*
X306238Y513235D01*
X306274Y512961D01*
X306380Y512706D01*
X306548Y512486D01*
X306767Y512318D01*
X307023Y512212D01*
X307297Y512176D01*
X307571Y512212D01*
X307826Y512318D01*
X308046Y512486D01*
X308214Y512706D01*
X308320Y512961D01*
X308356Y513235D01*
X308320Y513509D01*
X308214Y513765D01*
X308046Y513984D01*
X307826Y514153D01*
X307571Y514258D01*
X307297Y514294D01*
D02*
G37*
G36*
X304843Y513637D02*
X304569Y513601D01*
X304314Y513495D01*
X304095Y513327D01*
X303926Y513107D01*
X303820Y512852D01*
X303784Y512578D01*
X303820Y512304D01*
X303926Y512048D01*
X304095Y511829D01*
X304314Y511661D01*
X304569Y511555D01*
X304843Y511519D01*
X305118Y511555D01*
X305373Y511661D01*
X305592Y511829D01*
X305761Y512048D01*
X305866Y512304D01*
X305902Y512578D01*
X305866Y512852D01*
X305761Y513107D01*
X305592Y513327D01*
X305373Y513495D01*
X305118Y513601D01*
X304843Y513637D01*
D02*
G37*
G36*
X514600Y518109D02*
X514313Y518072D01*
X514045Y517961D01*
X513815Y517785D01*
X513639Y517555D01*
X513528Y517287D01*
X513491Y517000D01*
X513528Y516713D01*
X513639Y516445D01*
X513815Y516215D01*
X513883Y516164D01*
Y516036D01*
X513815Y515985D01*
X513639Y515755D01*
X513528Y515487D01*
X513491Y515200D01*
X513528Y514913D01*
X513639Y514645D01*
X513815Y514415D01*
X513883Y514364D01*
Y514237D01*
X513815Y514185D01*
X513639Y513955D01*
X513528Y513687D01*
X513491Y513400D01*
X513528Y513113D01*
X513639Y512845D01*
X513815Y512615D01*
X514045Y512439D01*
X514313Y512328D01*
X514600Y512291D01*
X514887Y512328D01*
X515155Y512439D01*
X515385Y512615D01*
X515487Y512748D01*
X515614D01*
X515715Y512615D01*
X515945Y512439D01*
X516213Y512328D01*
X516500Y512291D01*
X516787Y512328D01*
X517055Y512439D01*
X517285Y512615D01*
X517386Y512748D01*
X517513D01*
X517615Y512615D01*
X517845Y512439D01*
X518113Y512328D01*
X518400Y512291D01*
X518687Y512328D01*
X518955Y512439D01*
X519185Y512615D01*
X519237Y512683D01*
X519364D01*
X519415Y512615D01*
X519645Y512439D01*
X519913Y512328D01*
X520009Y512316D01*
X520114Y512178D01*
X520091Y512000D01*
X520128Y511713D01*
X520239Y511445D01*
X520415Y511215D01*
X520645Y511039D01*
X520913Y510928D01*
X521200Y510891D01*
X521487Y510928D01*
X521755Y511039D01*
X521975Y511209D01*
X522010Y511218D01*
X522115Y511204D01*
X522139Y511145D01*
X522315Y510915D01*
X522545Y510739D01*
X522813Y510628D01*
X523100Y510591D01*
X523387Y510628D01*
X523655Y510739D01*
X523885Y510915D01*
X524061Y511145D01*
X524172Y511413D01*
X524209Y511700D01*
X524172Y511987D01*
X524061Y512255D01*
X523890Y512477D01*
X523897Y512507D01*
X523946Y512598D01*
X524000Y512591D01*
X524191Y512616D01*
X524304Y512503D01*
X524291Y512400D01*
X524328Y512113D01*
X524439Y511845D01*
X524615Y511615D01*
X524845Y511439D01*
X525113Y511328D01*
X525400Y511290D01*
X525687Y511328D01*
X525955Y511439D01*
X526185Y511615D01*
X526361Y511845D01*
X526472Y512113D01*
X526509Y512400D01*
X526472Y512687D01*
X526361Y512955D01*
X526185Y513185D01*
X525955Y513361D01*
X525687Y513472D01*
X525400Y513509D01*
X525209Y513484D01*
X525096Y513597D01*
X525109Y513700D01*
X525072Y513987D01*
X525044Y514054D01*
X525087Y514128D01*
X525355Y514239D01*
X525585Y514415D01*
X525761Y514645D01*
X525872Y514913D01*
X525909Y515200D01*
X525872Y515487D01*
X525761Y515755D01*
X525585Y515985D01*
X525355Y516161D01*
X525087Y516272D01*
X524800Y516310D01*
X524513Y516272D01*
X524245Y516161D01*
X524015Y515985D01*
X523892Y515823D01*
X523735Y515819D01*
X523685Y515885D01*
X523455Y516061D01*
X523187Y516172D01*
X522900Y516209D01*
X522613Y516172D01*
X522345Y516061D01*
X522115Y515885D01*
X521939Y515655D01*
X521828Y515387D01*
X521791Y515100D01*
X521828Y514813D01*
X521911Y514613D01*
X521843Y514476D01*
X521813Y514472D01*
X521545Y514361D01*
X521315Y514185D01*
X521214Y514052D01*
X521086D01*
X520985Y514185D01*
X520755Y514361D01*
X520487Y514472D01*
X520200Y514509D01*
X519913Y514472D01*
X519645Y514361D01*
X519415Y514185D01*
X519364Y514117D01*
X519237D01*
X519185Y514185D01*
X518955Y514361D01*
X518687Y514472D01*
X518400Y514509D01*
X518113Y514472D01*
X517845Y514361D01*
X517615Y514185D01*
X517513Y514052D01*
X517386D01*
X517285Y514185D01*
X517055Y514361D01*
X516787Y514472D01*
X516500Y514509D01*
X516213Y514472D01*
X515945Y514361D01*
X515715Y514185D01*
X515614Y514052D01*
X515487D01*
X515385Y514185D01*
X515317Y514237D01*
Y514364D01*
X515385Y514415D01*
X515561Y514645D01*
X515672Y514913D01*
X515709Y515200D01*
X515672Y515487D01*
X515561Y515755D01*
X515385Y515985D01*
X515317Y516036D01*
Y516164D01*
X515385Y516215D01*
X515561Y516445D01*
X515672Y516713D01*
X515709Y517000D01*
X515672Y517287D01*
X515561Y517555D01*
X515385Y517785D01*
X515155Y517961D01*
X514887Y518072D01*
X514600Y518109D01*
D02*
G37*
G36*
X329600Y503309D02*
X329313Y503272D01*
X329045Y503161D01*
X328815Y502985D01*
X328639Y502755D01*
X328528Y502487D01*
X328491Y502200D01*
X328528Y501913D01*
X328639Y501645D01*
X328815Y501415D01*
X329045Y501239D01*
X329313Y501128D01*
X329600Y501091D01*
X329887Y501128D01*
X330155Y501239D01*
X330385Y501415D01*
X330561Y501645D01*
X330672Y501913D01*
X330710Y502200D01*
X330672Y502487D01*
X330561Y502755D01*
X330385Y502985D01*
X330155Y503161D01*
X329887Y503272D01*
X329600Y503309D01*
D02*
G37*
G36*
X326400Y502109D02*
X326113Y502072D01*
X325845Y501961D01*
X325615Y501785D01*
X325439Y501555D01*
X325328Y501287D01*
X325290Y501000D01*
X325328Y500713D01*
X325439Y500445D01*
X325615Y500215D01*
X325845Y500039D01*
X326113Y499928D01*
X326400Y499891D01*
X326687Y499928D01*
X326955Y500039D01*
X327185Y500215D01*
X327361Y500445D01*
X327472Y500713D01*
X327509Y501000D01*
X327472Y501287D01*
X327361Y501555D01*
X327185Y501785D01*
X326955Y501961D01*
X326687Y502072D01*
X326400Y502109D01*
D02*
G37*
G36*
X520750Y499206D02*
X520567Y499182D01*
X520397Y499111D01*
X520251Y498999D01*
X520139Y498853D01*
X520068Y498683D01*
X520044Y498500D01*
X520068Y498317D01*
X520139Y498147D01*
X520251Y498001D01*
X520397Y497889D01*
X520567Y497818D01*
X520750Y497794D01*
X520933Y497818D01*
X521103Y497889D01*
X521249Y498001D01*
X521361Y498147D01*
X521432Y498317D01*
X521456Y498500D01*
X521432Y498683D01*
X521361Y498853D01*
X521249Y498999D01*
X521103Y499111D01*
X520933Y499182D01*
X520750Y499206D01*
D02*
G37*
G36*
X354300Y498706D02*
X354117Y498682D01*
X353947Y498611D01*
X353801Y498499D01*
X353689Y498353D01*
X353618Y498183D01*
X353594Y498000D01*
X353618Y497817D01*
X353689Y497647D01*
X353801Y497501D01*
X353947Y497389D01*
X354117Y497318D01*
X354300Y497294D01*
X354483Y497318D01*
X354653Y497389D01*
X354799Y497501D01*
X354911Y497647D01*
X354982Y497817D01*
X355006Y498000D01*
X354982Y498183D01*
X354911Y498353D01*
X354799Y498499D01*
X354653Y498611D01*
X354483Y498682D01*
X354300Y498706D01*
D02*
G37*
G36*
X335200Y491206D02*
X335017Y491182D01*
X334847Y491111D01*
X334701Y490999D01*
X334589Y490853D01*
X334518Y490683D01*
X334494Y490500D01*
X334518Y490317D01*
X334589Y490147D01*
X334701Y490001D01*
X334847Y489889D01*
X335017Y489818D01*
X335200Y489794D01*
X335383Y489818D01*
X335553Y489889D01*
X335699Y490001D01*
X335811Y490147D01*
X335882Y490317D01*
X335906Y490500D01*
X335882Y490683D01*
X335811Y490853D01*
X335699Y490999D01*
X335553Y491111D01*
X335383Y491182D01*
X335200Y491206D01*
D02*
G37*
G36*
X302461Y493193D02*
X301974Y493154D01*
X301500Y493041D01*
X301049Y492854D01*
X300633Y492599D01*
X300262Y492282D01*
X299945Y491911D01*
X299690Y491495D01*
X299503Y491044D01*
X299390Y490570D01*
X299351Y490083D01*
X299390Y489597D01*
X299503Y489122D01*
X299690Y488671D01*
X299945Y488255D01*
X300262Y487884D01*
X300633Y487567D01*
X301049Y487313D01*
X301500Y487126D01*
X301974Y487012D01*
X302461Y486974D01*
X302947Y487012D01*
X303422Y487126D01*
X303873Y487313D01*
X304289Y487567D01*
X304660Y487884D01*
X304977Y488255D01*
X305232Y488671D01*
X305418Y489122D01*
X305532Y489597D01*
X305570Y490083D01*
X305532Y490570D01*
X305418Y491044D01*
X305232Y491495D01*
X304977Y491911D01*
X304660Y492282D01*
X304289Y492599D01*
X303873Y492854D01*
X303422Y493041D01*
X302947Y493154D01*
X302461Y493193D01*
D02*
G37*
G36*
X357900Y489156D02*
X357717Y489132D01*
X357547Y489061D01*
X357401Y488949D01*
X357289Y488803D01*
X357218Y488633D01*
X357194Y488450D01*
X357218Y488267D01*
X357289Y488097D01*
X357401Y487951D01*
X357547Y487839D01*
X357680Y487783D01*
X357689Y487753D01*
X357618Y487583D01*
X357594Y487400D01*
X357618Y487217D01*
X357689Y487047D01*
X357801Y486901D01*
X357947Y486789D01*
X358117Y486718D01*
X358300Y486694D01*
X358483Y486718D01*
X358636Y486781D01*
X358700Y486671D01*
X358567Y486569D01*
X358455Y486423D01*
X358385Y486252D01*
X358361Y486070D01*
X358385Y485887D01*
X358455Y485717D01*
X358567Y485570D01*
X358714Y485458D01*
X358884Y485388D01*
X359067Y485364D01*
X359249Y485388D01*
X359420Y485458D01*
X359566Y485570D01*
X359678Y485717D01*
X359749Y485887D01*
X359773Y486070D01*
X359749Y486252D01*
X359678Y486423D01*
X359566Y486569D01*
X359420Y486681D01*
X359249Y486752D01*
X359067Y486776D01*
X358884Y486752D01*
X358731Y486688D01*
X358667Y486799D01*
X358799Y486901D01*
X358911Y487047D01*
X358982Y487217D01*
X359006Y487400D01*
X358982Y487583D01*
X358911Y487753D01*
X358799Y487899D01*
X358653Y488011D01*
X358520Y488067D01*
X358511Y488097D01*
X358582Y488267D01*
X358606Y488450D01*
X358582Y488633D01*
X358511Y488803D01*
X358399Y488949D01*
X358253Y489061D01*
X358083Y489132D01*
X357900Y489156D01*
D02*
G37*
G36*
X355300Y486106D02*
X355117Y486082D01*
X354947Y486011D01*
X354801Y485899D01*
X354689Y485753D01*
X354618Y485583D01*
X354594Y485400D01*
X354618Y485217D01*
X354689Y485047D01*
X354801Y484901D01*
X354947Y484789D01*
X355117Y484718D01*
X355300Y484694D01*
X355483Y484718D01*
X355653Y484789D01*
X355799Y484901D01*
X355911Y485047D01*
X355982Y485217D01*
X356006Y485400D01*
X355982Y485583D01*
X355911Y485753D01*
X355799Y485899D01*
X355653Y486011D01*
X355483Y486082D01*
X355300Y486106D01*
D02*
G37*
G36*
X514500Y486859D02*
X514213Y486822D01*
X513945Y486711D01*
X513715Y486535D01*
X513539Y486305D01*
X513428Y486037D01*
X513391Y485750D01*
X513428Y485463D01*
X513539Y485195D01*
X513715Y484965D01*
X513945Y484789D01*
X514213Y484678D01*
X514500Y484641D01*
X514787Y484678D01*
X515055Y484789D01*
X515285Y484965D01*
X515461Y485195D01*
X515572Y485463D01*
X515609Y485750D01*
X515572Y486037D01*
X515461Y486305D01*
X515285Y486535D01*
X515055Y486711D01*
X514787Y486822D01*
X514500Y486859D01*
D02*
G37*
G36*
X358191Y485073D02*
X358008Y485049D01*
X357838Y484979D01*
X357692Y484867D01*
X357579Y484720D01*
X357509Y484550D01*
X357485Y484367D01*
X357509Y484185D01*
X357579Y484014D01*
X357692Y483868D01*
X357838Y483756D01*
X358008Y483685D01*
X358191Y483661D01*
X358374Y483685D01*
X358544Y483756D01*
X358690Y483868D01*
X358802Y484014D01*
X358873Y484185D01*
X358897Y484367D01*
X358873Y484550D01*
X358802Y484720D01*
X358690Y484867D01*
X358544Y484979D01*
X358374Y485049D01*
X358191Y485073D01*
D02*
G37*
G36*
X512500Y484859D02*
X512213Y484822D01*
X511945Y484711D01*
X511715Y484535D01*
X511539Y484305D01*
X511428Y484037D01*
X511391Y483750D01*
X511428Y483463D01*
X511539Y483195D01*
X511715Y482965D01*
X511945Y482789D01*
X512213Y482678D01*
X512500Y482641D01*
X512787Y482678D01*
X513055Y482789D01*
X513285Y482965D01*
X513461Y483195D01*
X513572Y483463D01*
X513609Y483750D01*
X513572Y484037D01*
X513461Y484305D01*
X513285Y484535D01*
X513055Y484711D01*
X512787Y484822D01*
X512500Y484859D01*
D02*
G37*
G36*
X528461Y487193D02*
X527974Y487154D01*
X527500Y487041D01*
X527049Y486854D01*
X526633Y486599D01*
X526262Y486282D01*
X525945Y485911D01*
X525690Y485495D01*
X525503Y485044D01*
X525390Y484570D01*
X525351Y484083D01*
X525390Y483597D01*
X525503Y483122D01*
X525690Y482671D01*
X525945Y482255D01*
X526262Y481884D01*
X526633Y481567D01*
X527049Y481312D01*
X527500Y481126D01*
X527974Y481012D01*
X528461Y480974D01*
X528947Y481012D01*
X529422Y481126D01*
X529873Y481312D01*
X530289Y481567D01*
X530660Y481884D01*
X530977Y482255D01*
X531232Y482671D01*
X531418Y483122D01*
X531532Y483597D01*
X531570Y484083D01*
X531532Y484570D01*
X531418Y485044D01*
X531232Y485495D01*
X530977Y485911D01*
X530660Y486282D01*
X530289Y486599D01*
X529873Y486854D01*
X529422Y487041D01*
X528947Y487154D01*
X528461Y487193D01*
D02*
G37*
G36*
X379700Y482106D02*
X379517Y482082D01*
X379347Y482011D01*
X379201Y481899D01*
X379089Y481753D01*
X379018Y481583D01*
X378994Y481400D01*
X379018Y481217D01*
X379089Y481047D01*
X379201Y480901D01*
X379347Y480789D01*
X379517Y480718D01*
X379700Y480694D01*
X379883Y480718D01*
X380053Y480789D01*
X380199Y480901D01*
X380311Y481047D01*
X380382Y481217D01*
X380406Y481400D01*
X380382Y481583D01*
X380311Y481753D01*
X380199Y481899D01*
X380053Y482011D01*
X379883Y482082D01*
X379700Y482106D01*
D02*
G37*
G36*
X352800Y481806D02*
X352617Y481782D01*
X352447Y481711D01*
X352301Y481599D01*
X352189Y481453D01*
X352118Y481283D01*
X352094Y481100D01*
X352118Y480917D01*
X352189Y480747D01*
X352301Y480601D01*
X352447Y480489D01*
X352617Y480418D01*
X352800Y480394D01*
X352983Y480418D01*
X353153Y480489D01*
X353299Y480601D01*
X353411Y480747D01*
X353482Y480917D01*
X353506Y481100D01*
X353482Y481283D01*
X353411Y481453D01*
X353299Y481599D01*
X353153Y481711D01*
X352983Y481782D01*
X352800Y481806D01*
D02*
G37*
G36*
X491600Y478456D02*
X491417Y478432D01*
X491247Y478361D01*
X491101Y478249D01*
X490989Y478103D01*
X490918Y477933D01*
X490894Y477750D01*
X490918Y477567D01*
X490989Y477397D01*
X491101Y477251D01*
X491247Y477139D01*
X491417Y477068D01*
X491600Y477044D01*
X491783Y477068D01*
X491953Y477139D01*
X492099Y477251D01*
X492211Y477397D01*
X492282Y477567D01*
X492306Y477750D01*
X492282Y477933D01*
X492211Y478103D01*
X492099Y478249D01*
X491953Y478361D01*
X491783Y478432D01*
X491600Y478456D01*
D02*
G37*
G36*
X488827Y478456D02*
X488644Y478432D01*
X488474Y478361D01*
X488328Y478249D01*
X488216Y478103D01*
X488145Y477933D01*
X488121Y477750D01*
X488145Y477567D01*
X488216Y477397D01*
X488328Y477251D01*
X488474Y477138D01*
X488644Y477068D01*
X488827Y477044D01*
X489010Y477068D01*
X489180Y477138D01*
X489308Y477237D01*
X489331Y477250D01*
X489468Y477226D01*
X489526Y477151D01*
X489672Y477039D01*
X489842Y476968D01*
X490025Y476944D01*
X490208Y476968D01*
X490378Y477039D01*
X490524Y477151D01*
X490636Y477297D01*
X490707Y477467D01*
X490731Y477650D01*
X490707Y477833D01*
X490636Y478003D01*
X490524Y478149D01*
X490378Y478261D01*
X490208Y478332D01*
X490025Y478356D01*
X489842Y478332D01*
X489672Y478261D01*
X489544Y478163D01*
X489521Y478150D01*
X489384Y478174D01*
X489326Y478249D01*
X489180Y478361D01*
X489010Y478432D01*
X488827Y478456D01*
D02*
G37*
G36*
X478000Y478306D02*
X477817Y478282D01*
X477647Y478211D01*
X477501Y478099D01*
X477389Y477953D01*
X477318Y477783D01*
X477294Y477600D01*
X477318Y477417D01*
X477389Y477247D01*
X477501Y477101D01*
X477647Y476989D01*
X477817Y476918D01*
X478000Y476894D01*
X478183Y476918D01*
X478353Y476989D01*
X478499Y477101D01*
X478611Y477247D01*
X478682Y477417D01*
X478706Y477600D01*
X478682Y477783D01*
X478611Y477953D01*
X478499Y478099D01*
X478353Y478211D01*
X478183Y478282D01*
X478000Y478306D01*
D02*
G37*
G36*
X389957Y478476D02*
X389774Y478451D01*
X389604Y478381D01*
X389458Y478269D01*
X389345Y478123D01*
X389275Y477952D01*
X389251Y477770D01*
X389275Y477587D01*
X389345Y477417D01*
X389458Y477270D01*
X389604Y477158D01*
X389774Y477088D01*
X389957Y477063D01*
X390039Y477074D01*
X390150Y477055D01*
X390175Y476970D01*
X390188Y476869D01*
X390259Y476699D01*
X390371Y476553D01*
X390517Y476440D01*
X390688Y476370D01*
X390870Y476346D01*
X391053Y476370D01*
X391223Y476440D01*
X391370Y476553D01*
X391482Y476699D01*
X391552Y476869D01*
X391576Y477052D01*
X391552Y477235D01*
X391482Y477405D01*
X391370Y477551D01*
X391223Y477663D01*
X391053Y477734D01*
X390870Y477758D01*
X390788Y477747D01*
X390678Y477767D01*
X390652Y477851D01*
X390639Y477952D01*
X390568Y478123D01*
X390456Y478269D01*
X390310Y478381D01*
X390140Y478451D01*
X389957Y478476D01*
D02*
G37*
G36*
X392262Y477015D02*
X392080Y476991D01*
X391909Y476921D01*
X391763Y476809D01*
X391651Y476662D01*
X391580Y476492D01*
X391556Y476309D01*
X391580Y476127D01*
X391651Y475956D01*
X391763Y475810D01*
X391909Y475698D01*
X392080Y475627D01*
X392262Y475603D01*
X392445Y475627D01*
X392615Y475698D01*
X392762Y475810D01*
X392874Y475956D01*
X392944Y476127D01*
X392968Y476309D01*
X392944Y476492D01*
X392874Y476662D01*
X392762Y476809D01*
X392615Y476921D01*
X392445Y476991D01*
X392262Y477015D01*
D02*
G37*
G36*
X492419Y476971D02*
X492236Y476947D01*
X492066Y476876D01*
X491920Y476764D01*
X491808Y476618D01*
X491737Y476448D01*
X491713Y476265D01*
X491737Y476082D01*
X491808Y475912D01*
X491920Y475766D01*
X492066Y475654D01*
X492236Y475583D01*
X492419Y475559D01*
X492602Y475583D01*
X492772Y475654D01*
X492918Y475766D01*
X493031Y475912D01*
X493101Y476082D01*
X493125Y476265D01*
X493101Y476448D01*
X493031Y476618D01*
X492918Y476764D01*
X492772Y476876D01*
X492602Y476947D01*
X492419Y476971D01*
D02*
G37*
G36*
X451200Y476906D02*
X451017Y476882D01*
X450847Y476811D01*
X450701Y476699D01*
X450589Y476553D01*
X450518Y476383D01*
X450494Y476200D01*
X450518Y476017D01*
X450589Y475847D01*
X450701Y475701D01*
X450847Y475589D01*
X451017Y475518D01*
X451200Y475494D01*
X451383Y475518D01*
X451553Y475589D01*
X451699Y475701D01*
X451811Y475847D01*
X451882Y476017D01*
X451906Y476200D01*
X451882Y476383D01*
X451811Y476553D01*
X451699Y476699D01*
X451553Y476811D01*
X451383Y476882D01*
X451200Y476906D01*
D02*
G37*
G36*
X418700D02*
X418517Y476882D01*
X418347Y476811D01*
X418201Y476699D01*
X418089Y476553D01*
X418018Y476383D01*
X417994Y476200D01*
X418018Y476017D01*
X418089Y475847D01*
X418201Y475701D01*
X418347Y475589D01*
X418517Y475518D01*
X418700Y475494D01*
X418883Y475518D01*
X419053Y475589D01*
X419199Y475701D01*
X419311Y475847D01*
X419382Y476017D01*
X419406Y476200D01*
X419382Y476383D01*
X419311Y476553D01*
X419199Y476699D01*
X419053Y476811D01*
X418883Y476882D01*
X418700Y476906D01*
D02*
G37*
G36*
X392298Y475403D02*
X392115Y475379D01*
X391945Y475308D01*
X391798Y475196D01*
X391686Y475050D01*
X391616Y474879D01*
X391592Y474697D01*
X391616Y474514D01*
X391686Y474344D01*
X391798Y474197D01*
X391945Y474085D01*
X392115Y474015D01*
X392298Y473991D01*
X392480Y474015D01*
X392651Y474085D01*
X392797Y474197D01*
X392909Y474344D01*
X392980Y474514D01*
X393004Y474697D01*
X392980Y474879D01*
X392909Y475050D01*
X392797Y475196D01*
X392651Y475308D01*
X392480Y475379D01*
X392298Y475403D01*
D02*
G37*
G36*
X490375Y474756D02*
X490192Y474732D01*
X490022Y474661D01*
X489876Y474549D01*
X489764Y474403D01*
X489693Y474233D01*
X489669Y474050D01*
X489693Y473867D01*
X489764Y473697D01*
X489876Y473551D01*
X490022Y473439D01*
X490192Y473368D01*
X490375Y473344D01*
X490558Y473368D01*
X490728Y473439D01*
X490874Y473551D01*
X490986Y473697D01*
X491057Y473867D01*
X491081Y474050D01*
X491057Y474233D01*
X490986Y474403D01*
X490874Y474549D01*
X490728Y474661D01*
X490558Y474732D01*
X490375Y474756D01*
D02*
G37*
G36*
X389325Y474506D02*
X389142Y474482D01*
X388972Y474411D01*
X388826Y474299D01*
X388714Y474153D01*
X388643Y473983D01*
X388619Y473800D01*
X388643Y473617D01*
X388714Y473447D01*
X388826Y473301D01*
X388972Y473189D01*
X389142Y473118D01*
X389325Y473094D01*
X389508Y473118D01*
X389678Y473189D01*
X389824Y473301D01*
X389936Y473447D01*
X390007Y473617D01*
X390031Y473800D01*
X390007Y473983D01*
X389936Y474153D01*
X389824Y474299D01*
X389678Y474411D01*
X389508Y474482D01*
X389325Y474506D01*
D02*
G37*
G36*
X492975Y470518D02*
X492792Y470494D01*
X492622Y470423D01*
X492476Y470311D01*
X492364Y470165D01*
X492293Y469994D01*
X492269Y469812D01*
X492293Y469629D01*
X492364Y469459D01*
X492476Y469312D01*
X492622Y469200D01*
X492792Y469130D01*
X492975Y469106D01*
X493158Y469130D01*
X493328Y469200D01*
X493474Y469312D01*
X493587Y469459D01*
X493657Y469629D01*
X493681Y469812D01*
X493657Y469994D01*
X493587Y470165D01*
X493474Y470311D01*
X493328Y470423D01*
X493158Y470494D01*
X492975Y470518D01*
D02*
G37*
G36*
X389350Y469456D02*
X389167Y469432D01*
X388997Y469361D01*
X388851Y469249D01*
X388739Y469103D01*
X388668Y468933D01*
X388644Y468750D01*
X388668Y468567D01*
X388739Y468397D01*
X388851Y468251D01*
X388997Y468139D01*
X389167Y468068D01*
X389350Y468044D01*
X389533Y468068D01*
X389703Y468139D01*
X389849Y468251D01*
X389961Y468397D01*
X390032Y468567D01*
X390056Y468750D01*
X390032Y468933D01*
X389961Y469103D01*
X389849Y469249D01*
X389703Y469361D01*
X389533Y469432D01*
X389350Y469456D01*
D02*
G37*
G36*
X423282Y467976D02*
X423099Y467951D01*
X422929Y467881D01*
X422783Y467769D01*
X422670Y467623D01*
X422600Y467452D01*
X422576Y467270D01*
X422600Y467087D01*
X422670Y466917D01*
X422783Y466770D01*
X422929Y466658D01*
X423099Y466588D01*
X423282Y466563D01*
X423340Y466571D01*
X423363Y466394D01*
X423434Y466224D01*
X423546Y466078D01*
X423692Y465965D01*
X423863Y465895D01*
X424045Y465871D01*
X424228Y465895D01*
X424398Y465965D01*
X424545Y466078D01*
X424657Y466224D01*
X424727Y466394D01*
X424751Y466577D01*
X424727Y466760D01*
X424657Y466930D01*
X424545Y467076D01*
X424398Y467188D01*
X424228Y467259D01*
X424045Y467283D01*
X423987Y467275D01*
X423964Y467452D01*
X423893Y467623D01*
X423781Y467769D01*
X423635Y467881D01*
X423465Y467951D01*
X423282Y467976D01*
D02*
G37*
G36*
X425550Y466506D02*
X425367Y466482D01*
X425197Y466411D01*
X425051Y466299D01*
X424939Y466153D01*
X424868Y465983D01*
X424844Y465800D01*
X424868Y465617D01*
X424939Y465447D01*
X425051Y465301D01*
X425197Y465189D01*
X425367Y465118D01*
X425550Y465094D01*
X425733Y465118D01*
X425903Y465189D01*
X426049Y465301D01*
X426161Y465447D01*
X426232Y465617D01*
X426256Y465800D01*
X426232Y465983D01*
X426161Y466153D01*
X426049Y466299D01*
X425903Y466411D01*
X425733Y466482D01*
X425550Y466506D01*
D02*
G37*
G36*
X456586Y467026D02*
X456403Y467001D01*
X456233Y466931D01*
X456087Y466819D01*
X455974Y466673D01*
X455904Y466502D01*
X455880Y466320D01*
X455904Y466137D01*
X455974Y465966D01*
X456087Y465820D01*
X456233Y465708D01*
X456403Y465638D01*
X456586Y465613D01*
X456697Y465628D01*
X456718Y465467D01*
X456789Y465297D01*
X456901Y465151D01*
X457047Y465039D01*
X457217Y464968D01*
X457400Y464944D01*
X457583Y464968D01*
X457753Y465039D01*
X457899Y465151D01*
X458011Y465297D01*
X458082Y465467D01*
X458106Y465650D01*
X458082Y465833D01*
X458011Y466003D01*
X457899Y466149D01*
X457753Y466261D01*
X457583Y466332D01*
X457400Y466356D01*
X457289Y466341D01*
X457268Y466502D01*
X457197Y466673D01*
X457085Y466819D01*
X456939Y466931D01*
X456769Y467001D01*
X456586Y467026D01*
D02*
G37*
G36*
X458866Y465515D02*
X458684Y465491D01*
X458513Y465421D01*
X458367Y465309D01*
X458255Y465162D01*
X458184Y464992D01*
X458160Y464809D01*
X458184Y464627D01*
X458255Y464456D01*
X458367Y464310D01*
X458513Y464198D01*
X458684Y464127D01*
X458866Y464103D01*
X459049Y464127D01*
X459219Y464198D01*
X459366Y464310D01*
X459478Y464456D01*
X459548Y464627D01*
X459572Y464809D01*
X459548Y464992D01*
X459478Y465162D01*
X459366Y465309D01*
X459219Y465421D01*
X459049Y465491D01*
X458866Y465515D01*
D02*
G37*
G36*
X425598Y464903D02*
X425415Y464879D01*
X425245Y464808D01*
X425098Y464696D01*
X424986Y464550D01*
X424916Y464379D01*
X424892Y464197D01*
X424916Y464014D01*
X424986Y463844D01*
X425098Y463697D01*
X425245Y463585D01*
X425415Y463515D01*
X425598Y463491D01*
X425780Y463515D01*
X425951Y463585D01*
X426097Y463697D01*
X426209Y463844D01*
X426280Y464014D01*
X426304Y464197D01*
X426280Y464379D01*
X426209Y464550D01*
X426097Y464696D01*
X425951Y464808D01*
X425780Y464879D01*
X425598Y464903D01*
D02*
G37*
G36*
X422625Y463956D02*
X422442Y463932D01*
X422272Y463861D01*
X422126Y463749D01*
X422014Y463603D01*
X421943Y463433D01*
X421919Y463250D01*
X421943Y463067D01*
X422014Y462897D01*
X422126Y462751D01*
X422272Y462639D01*
X422442Y462568D01*
X422625Y462544D01*
X422808Y462568D01*
X422978Y462639D01*
X423124Y462751D01*
X423236Y462897D01*
X423307Y463067D01*
X423331Y463250D01*
X423307Y463433D01*
X423236Y463603D01*
X423124Y463749D01*
X422978Y463861D01*
X422808Y463932D01*
X422625Y463956D01*
D02*
G37*
G36*
X458902Y463878D02*
X458719Y463854D01*
X458549Y463783D01*
X458402Y463671D01*
X458290Y463525D01*
X458220Y463354D01*
X458196Y463172D01*
X458220Y462989D01*
X458290Y462819D01*
X458402Y462672D01*
X458549Y462560D01*
X458719Y462490D01*
X458902Y462466D01*
X459084Y462490D01*
X459255Y462560D01*
X459401Y462672D01*
X459513Y462819D01*
X459584Y462989D01*
X459608Y463172D01*
X459584Y463354D01*
X459513Y463525D01*
X459401Y463671D01*
X459255Y463783D01*
X459084Y463854D01*
X458902Y463878D01*
D02*
G37*
G36*
X455925Y462931D02*
X455742Y462907D01*
X455572Y462836D01*
X455426Y462724D01*
X455314Y462578D01*
X455243Y462408D01*
X455219Y462225D01*
X455243Y462042D01*
X455314Y461872D01*
X455426Y461726D01*
X455572Y461614D01*
X455742Y461543D01*
X455925Y461519D01*
X456108Y461543D01*
X456278Y461614D01*
X456424Y461726D01*
X456536Y461872D01*
X456607Y462042D01*
X456631Y462225D01*
X456607Y462408D01*
X456536Y462578D01*
X456424Y462724D01*
X456278Y462836D01*
X456108Y462907D01*
X455925Y462931D01*
D02*
G37*
G36*
X373587Y460282D02*
X373404Y460258D01*
X373234Y460187D01*
X373088Y460075D01*
X372976Y459929D01*
X372905Y459759D01*
X372881Y459576D01*
X372905Y459393D01*
X372976Y459223D01*
X373088Y459077D01*
X373234Y458964D01*
X373404Y458894D01*
X373587Y458870D01*
X373770Y458894D01*
X373940Y458964D01*
X374086Y459077D01*
X374199Y459223D01*
X374269Y459393D01*
X374293Y459576D01*
X374269Y459759D01*
X374199Y459929D01*
X374086Y460075D01*
X373940Y460187D01*
X373770Y460258D01*
X373587Y460282D01*
D02*
G37*
G36*
X358800Y460309D02*
X358513Y460272D01*
X358245Y460161D01*
X358015Y459985D01*
X357839Y459755D01*
X357728Y459487D01*
X357691Y459200D01*
X357728Y458913D01*
X357839Y458645D01*
X358015Y458415D01*
X358245Y458239D01*
X358513Y458128D01*
X358800Y458091D01*
X359087Y458128D01*
X359355Y458239D01*
X359585Y458415D01*
X359761Y458645D01*
X359872Y458913D01*
X359909Y459200D01*
X359872Y459487D01*
X359761Y459755D01*
X359585Y459985D01*
X359355Y460161D01*
X359087Y460272D01*
X358800Y460309D01*
D02*
G37*
G36*
X422625Y459006D02*
X422442Y458982D01*
X422272Y458911D01*
X422126Y458799D01*
X422014Y458653D01*
X421943Y458483D01*
X421919Y458300D01*
X421943Y458117D01*
X422014Y457947D01*
X422126Y457801D01*
X422272Y457689D01*
X422442Y457618D01*
X422625Y457594D01*
X422808Y457618D01*
X422978Y457689D01*
X423124Y457801D01*
X423236Y457947D01*
X423307Y458117D01*
X423331Y458300D01*
X423307Y458483D01*
X423236Y458653D01*
X423124Y458799D01*
X422978Y458911D01*
X422808Y458982D01*
X422625Y459006D01*
D02*
G37*
G36*
X456000Y457906D02*
X455817Y457882D01*
X455647Y457811D01*
X455501Y457699D01*
X455389Y457553D01*
X455318Y457383D01*
X455294Y457200D01*
X455318Y457017D01*
X455389Y456847D01*
X455501Y456701D01*
X455647Y456589D01*
X455817Y456518D01*
X456000Y456494D01*
X456183Y456518D01*
X456353Y456589D01*
X456499Y456701D01*
X456611Y456847D01*
X456682Y457017D01*
X456706Y457200D01*
X456682Y457383D01*
X456611Y457553D01*
X456499Y457699D01*
X456353Y457811D01*
X456183Y457882D01*
X456000Y457906D01*
D02*
G37*
G36*
X355500Y457409D02*
X355213Y457372D01*
X354945Y457261D01*
X354715Y457085D01*
X354539Y456855D01*
X354428Y456587D01*
X354391Y456300D01*
X354428Y456013D01*
X354539Y455745D01*
X354715Y455515D01*
X354945Y455339D01*
X355213Y455228D01*
X355500Y455191D01*
X355787Y455228D01*
X356055Y455339D01*
X356285Y455515D01*
X356461Y455745D01*
X356572Y456013D01*
X356609Y456300D01*
X356572Y456587D01*
X356461Y456855D01*
X356285Y457085D01*
X356055Y457261D01*
X355787Y457372D01*
X355500Y457409D01*
D02*
G37*
G36*
X498461Y461193D02*
X497974Y461155D01*
X497500Y461041D01*
X497049Y460854D01*
X496633Y460599D01*
X496262Y460282D01*
X495945Y459911D01*
X495690Y459495D01*
X495503Y459044D01*
X495390Y458570D01*
X495351Y458083D01*
X495390Y457597D01*
X495503Y457122D01*
X495690Y456671D01*
X495945Y456255D01*
X496262Y455884D01*
X496633Y455568D01*
X497049Y455313D01*
X497500Y455126D01*
X497974Y455012D01*
X498461Y454974D01*
X498947Y455012D01*
X499422Y455126D01*
X499873Y455313D01*
X500289Y455568D01*
X500660Y455884D01*
X500977Y456255D01*
X501232Y456671D01*
X501418Y457122D01*
X501532Y457597D01*
X501570Y458083D01*
X501532Y458570D01*
X501418Y459044D01*
X501232Y459495D01*
X500977Y459911D01*
X500660Y460282D01*
X500289Y460599D01*
X499873Y460854D01*
X499422Y461041D01*
X498947Y461155D01*
X498461Y461193D01*
D02*
G37*
G36*
X342461D02*
X341974Y461155D01*
X341500Y461041D01*
X341049Y460854D01*
X340633Y460599D01*
X340262Y460282D01*
X339945Y459911D01*
X339690Y459495D01*
X339503Y459044D01*
X339390Y458570D01*
X339351Y458083D01*
X339390Y457597D01*
X339503Y457122D01*
X339690Y456671D01*
X339945Y456255D01*
X340262Y455884D01*
X340633Y455568D01*
X341049Y455313D01*
X341500Y455126D01*
X341974Y455012D01*
X342461Y454974D01*
X342947Y455012D01*
X343422Y455126D01*
X343873Y455313D01*
X344289Y455568D01*
X344660Y455884D01*
X344977Y456255D01*
X345232Y456671D01*
X345418Y457122D01*
X345532Y457597D01*
X345570Y458083D01*
X345532Y458570D01*
X345418Y459044D01*
X345232Y459495D01*
X344977Y459911D01*
X344660Y460282D01*
X344289Y460599D01*
X343873Y460854D01*
X343422Y461041D01*
X342947Y461155D01*
X342461Y461193D01*
D02*
G37*
G36*
X487347Y454450D02*
X487165Y454426D01*
X486994Y454355D01*
X486848Y454243D01*
X486736Y454097D01*
X486665Y453927D01*
X486641Y453744D01*
X486665Y453561D01*
X486736Y453391D01*
X486848Y453245D01*
X486994Y453133D01*
X487165Y453062D01*
X487347Y453038D01*
X487530Y453062D01*
X487700Y453133D01*
X487847Y453245D01*
X487959Y453391D01*
X488029Y453561D01*
X488053Y453744D01*
X488029Y453927D01*
X487959Y454097D01*
X487847Y454243D01*
X487700Y454355D01*
X487530Y454426D01*
X487347Y454450D01*
D02*
G37*
G36*
X409081Y450876D02*
X408898Y450852D01*
X408728Y450782D01*
X408582Y450669D01*
X408469Y450523D01*
X408399Y450353D01*
X408375Y450170D01*
X408399Y449987D01*
X408469Y449817D01*
X408582Y449671D01*
X408728Y449559D01*
X408898Y449488D01*
X409081Y449464D01*
X409264Y449488D01*
X409434Y449559D01*
X409580Y449671D01*
X409692Y449817D01*
X409763Y449987D01*
X409787Y450170D01*
X409763Y450353D01*
X409692Y450523D01*
X409580Y450669D01*
X409434Y450782D01*
X409264Y450852D01*
X409081Y450876D01*
D02*
G37*
G36*
X393700Y449609D02*
X393413Y449572D01*
X393145Y449461D01*
X392915Y449285D01*
X392739Y449055D01*
X392628Y448787D01*
X392591Y448500D01*
X392628Y448213D01*
X392739Y447945D01*
X392915Y447715D01*
X393145Y447539D01*
X393413Y447428D01*
X393700Y447391D01*
X393987Y447428D01*
X394255Y447539D01*
X394485Y447715D01*
X394661Y447945D01*
X394772Y448213D01*
X394809Y448500D01*
X394772Y448787D01*
X394661Y449055D01*
X394485Y449285D01*
X394255Y449461D01*
X393987Y449572D01*
X393700Y449609D01*
D02*
G37*
G36*
X473750Y446359D02*
X473463Y446322D01*
X473195Y446211D01*
X472965Y446035D01*
X472789Y445805D01*
X472678Y445537D01*
X472641Y445250D01*
X472678Y444963D01*
X472789Y444695D01*
X472965Y444465D01*
X473195Y444289D01*
X473463Y444178D01*
X473750Y444141D01*
X474037Y444178D01*
X474305Y444289D01*
X474535Y444465D01*
X474711Y444695D01*
X474822Y444963D01*
X474859Y445250D01*
X474822Y445537D01*
X474711Y445805D01*
X474535Y446035D01*
X474305Y446211D01*
X474037Y446322D01*
X473750Y446359D01*
D02*
G37*
G36*
X391455Y446193D02*
X391168Y446155D01*
X390901Y446044D01*
X390671Y445868D01*
X390495Y445638D01*
X390384Y445370D01*
X390346Y445083D01*
X390384Y444796D01*
X390495Y444528D01*
X390671Y444299D01*
X390901Y444122D01*
X391168Y444012D01*
X391455Y443974D01*
X391743Y444012D01*
X392010Y444122D01*
X392240Y444299D01*
X392416Y444528D01*
X392527Y444796D01*
X392565Y445083D01*
X392527Y445370D01*
X392416Y445638D01*
X392240Y445868D01*
X392010Y446044D01*
X391743Y446155D01*
X391455Y446193D01*
D02*
G37*
G36*
X380461Y448193D02*
X379974Y448155D01*
X379500Y448041D01*
X379049Y447854D01*
X378633Y447599D01*
X378262Y447282D01*
X377945Y446911D01*
X377690Y446495D01*
X377503Y446044D01*
X377390Y445570D01*
X377351Y445083D01*
X377390Y444597D01*
X377503Y444122D01*
X377690Y443671D01*
X377945Y443255D01*
X378262Y442884D01*
X378633Y442568D01*
X379049Y442313D01*
X379500Y442126D01*
X379974Y442012D01*
X380461Y441974D01*
X380947Y442012D01*
X381422Y442126D01*
X381873Y442313D01*
X382289Y442568D01*
X382660Y442884D01*
X382977Y443255D01*
X383232Y443671D01*
X383418Y444122D01*
X383532Y444597D01*
X383570Y445083D01*
X383532Y445570D01*
X383418Y446044D01*
X383232Y446495D01*
X382977Y446911D01*
X382660Y447282D01*
X382289Y447599D01*
X381873Y447854D01*
X381422Y448041D01*
X380947Y448155D01*
X380461Y448193D01*
D02*
G37*
G36*
X446672Y442948D02*
X446489Y442924D01*
X446319Y442853D01*
X446173Y442741D01*
X446060Y442595D01*
X445990Y442425D01*
X445966Y442242D01*
X445990Y442059D01*
X446060Y441889D01*
X446173Y441743D01*
X446319Y441631D01*
X446489Y441560D01*
X446672Y441536D01*
X446855Y441560D01*
X447025Y441631D01*
X447171Y441743D01*
X447283Y441889D01*
X447354Y442059D01*
X447378Y442242D01*
X447354Y442425D01*
X447283Y442595D01*
X447171Y442741D01*
X447025Y442853D01*
X446855Y442924D01*
X446672Y442948D01*
D02*
G37*
G36*
X473750Y441859D02*
X473463Y441822D01*
X473195Y441711D01*
X472965Y441535D01*
X472789Y441305D01*
X472678Y441037D01*
X472641Y440750D01*
X472678Y440463D01*
X472789Y440195D01*
X472965Y439965D01*
X473195Y439789D01*
X473463Y439678D01*
X473750Y439641D01*
X474037Y439678D01*
X474305Y439789D01*
X474535Y439965D01*
X474711Y440195D01*
X474822Y440463D01*
X474859Y440750D01*
X474822Y441037D01*
X474711Y441305D01*
X474535Y441535D01*
X474305Y441711D01*
X474037Y441822D01*
X473750Y441859D01*
D02*
G37*
G36*
X458461Y444193D02*
X457974Y444154D01*
X457500Y444041D01*
X457049Y443854D01*
X456633Y443599D01*
X456262Y443282D01*
X455945Y442911D01*
X455690Y442495D01*
X455503Y442044D01*
X455390Y441570D01*
X455351Y441083D01*
X455390Y440597D01*
X455503Y440122D01*
X455690Y439671D01*
X455945Y439255D01*
X456262Y438884D01*
X456633Y438567D01*
X457049Y438312D01*
X457500Y438126D01*
X457974Y438012D01*
X458461Y437974D01*
X458947Y438012D01*
X459422Y438126D01*
X459873Y438312D01*
X460289Y438567D01*
X460660Y438884D01*
X460977Y439255D01*
X461232Y439671D01*
X461418Y440122D01*
X461532Y440597D01*
X461570Y441083D01*
X461532Y441570D01*
X461418Y442044D01*
X461232Y442495D01*
X460977Y442911D01*
X460660Y443282D01*
X460289Y443599D01*
X459873Y443854D01*
X459422Y444041D01*
X458947Y444154D01*
X458461Y444193D01*
D02*
G37*
G36*
X431600Y438210D02*
X431313Y438172D01*
X431045Y438061D01*
X430815Y437885D01*
X430639Y437655D01*
X430528Y437387D01*
X430491Y437100D01*
X430528Y436813D01*
X430639Y436545D01*
X430815Y436315D01*
X431045Y436139D01*
X431313Y436028D01*
X431600Y435991D01*
X431887Y436028D01*
X432155Y436139D01*
X432385Y436315D01*
X432561Y436545D01*
X432672Y436813D01*
X432710Y437100D01*
X432672Y437387D01*
X432561Y437655D01*
X432385Y437885D01*
X432155Y438061D01*
X431887Y438172D01*
X431600Y438210D01*
D02*
G37*
G36*
X416461Y441193D02*
X415974Y441155D01*
X415500Y441041D01*
X415049Y440854D01*
X414633Y440599D01*
X414262Y440282D01*
X413945Y439911D01*
X413690Y439495D01*
X413503Y439044D01*
X413390Y438570D01*
X413351Y438083D01*
X413390Y437597D01*
X413503Y437122D01*
X413690Y436671D01*
X413945Y436255D01*
X414262Y435884D01*
X414633Y435568D01*
X415049Y435313D01*
X415500Y435126D01*
X415974Y435012D01*
X416461Y434974D01*
X416947Y435012D01*
X417422Y435126D01*
X417873Y435313D01*
X418289Y435568D01*
X418660Y435884D01*
X418977Y436255D01*
X419232Y436671D01*
X419418Y437122D01*
X419532Y437597D01*
X419570Y438083D01*
X419532Y438570D01*
X419418Y439044D01*
X419232Y439495D01*
X418977Y439911D01*
X418660Y440282D01*
X418289Y440599D01*
X417873Y440854D01*
X417422Y441041D01*
X416947Y441155D01*
X416461Y441193D01*
D02*
G37*
G36*
X431600Y433609D02*
X431313Y433572D01*
X431045Y433461D01*
X430815Y433285D01*
X430639Y433055D01*
X430528Y432787D01*
X430491Y432500D01*
X430528Y432213D01*
X430639Y431945D01*
X430815Y431715D01*
X431045Y431539D01*
X431313Y431428D01*
X431600Y431391D01*
X431887Y431428D01*
X432155Y431539D01*
X432385Y431715D01*
X432561Y431945D01*
X432672Y432213D01*
X432710Y432500D01*
X432672Y432787D01*
X432561Y433055D01*
X432385Y433285D01*
X432155Y433461D01*
X431887Y433572D01*
X431600Y433609D01*
D02*
G37*
%LPD*%
D142*
X345440Y558100D02*
D03*
X309200Y518960D02*
D03*
D280*
X329800Y537900D02*
D03*
D283*
X534000Y557300D02*
D03*
D284*
X329400Y571600D02*
D03*
X328100Y569900D02*
D03*
X350200Y533600D02*
D03*
X365400Y521800D02*
D03*
Y522900D02*
D03*
Y524000D02*
D03*
Y525100D02*
D03*
Y526200D02*
D03*
Y527200D02*
D03*
X357700Y531000D02*
D03*
X346500Y515100D02*
D03*
X348700Y525400D02*
D03*
X312100Y531200D02*
D03*
X319300Y533200D02*
D03*
X346400Y555500D02*
D03*
X339000Y537800D02*
D03*
X360000Y539600D02*
D03*
X357000Y548900D02*
D03*
X341900Y548500D02*
D03*
X337300Y545100D02*
D03*
X342100Y527100D02*
D03*
X342300Y532100D02*
D03*
X343300Y531100D02*
D03*
X346300Y531400D02*
D03*
X359300Y530000D02*
D03*
X362700Y528600D02*
D03*
X490900Y602200D02*
D03*
X333406Y535506D02*
D03*
X333900Y523100D02*
D03*
X312306Y542006D02*
D03*
X320206Y539306D02*
D03*
X319306Y544506D02*
D03*
X327606Y542206D02*
D03*
X327346Y547158D02*
D03*
X326346Y547158D02*
D03*
X325346Y547158D02*
D03*
X326352Y546157D02*
D03*
X339400Y528300D02*
D03*
X355800Y525500D02*
D03*
X342900Y542200D02*
D03*
X343900Y542200D02*
D03*
X345000Y542200D02*
D03*
X354775Y590341D02*
D03*
X351475Y593841D02*
D03*
X389275Y602441D02*
D03*
Y607241D02*
D03*
X455900Y613900D02*
D03*
X422600Y613000D02*
D03*
X422575Y617641D02*
D03*
X455875Y618741D02*
D03*
X494175Y605441D02*
D03*
X354575Y480141D02*
D03*
X356875Y483941D02*
D03*
X391275Y468841D02*
D03*
Y473441D02*
D03*
X424600Y458200D02*
D03*
X424575Y462941D02*
D03*
X457875Y457341D02*
D03*
X457975Y461941D02*
D03*
X494675Y470841D02*
D03*
X492275Y474941D02*
D03*
X327358Y546150D02*
D03*
X327358Y545150D02*
D03*
X326358Y545150D02*
D03*
X325358Y546150D02*
D03*
Y545150D02*
D03*
X391275Y600500D02*
D03*
X457875Y611975D02*
D03*
X491000Y599300D02*
D03*
X489400Y475575D02*
D03*
X455925Y464000D02*
D03*
X422625Y465000D02*
D03*
X509800Y604100D02*
D03*
X511300Y598200D02*
D03*
X510100Y596700D02*
D03*
X505900Y604800D02*
D03*
X504700Y603400D02*
D03*
X503400Y601900D02*
D03*
X529800Y572000D02*
D03*
X524600Y575200D02*
D03*
X522700Y574500D02*
D03*
X529300Y568100D02*
D03*
X527400Y567300D02*
D03*
X525500Y566700D02*
D03*
X519750Y581958D02*
D03*
X518678Y583577D02*
D03*
X529700Y503900D02*
D03*
X529300Y507900D02*
D03*
X527300Y508600D02*
D03*
X525400Y509200D02*
D03*
X524500Y500800D02*
D03*
X522500Y501400D02*
D03*
X517062Y498842D02*
D03*
X515992Y497123D02*
D03*
X511700Y478000D02*
D03*
X510300Y479500D02*
D03*
X510400Y472100D02*
D03*
X506400Y471100D02*
D03*
X505100Y472700D02*
D03*
X503600Y474100D02*
D03*
X329825Y496550D02*
D03*
X397400Y457100D02*
D03*
X487000Y457700D02*
D03*
X489500Y460900D02*
D03*
X488500Y462700D02*
D03*
X487600Y464600D02*
D03*
X481000Y459000D02*
D03*
X480100Y460800D02*
D03*
X487175Y449998D02*
D03*
X485175Y449098D02*
D03*
X475600Y456900D02*
D03*
X474900Y458900D02*
D03*
X472200Y451700D02*
D03*
X468200Y452200D02*
D03*
X467600Y454100D02*
D03*
X466700Y456000D02*
D03*
X445071Y438650D02*
D03*
X442971D02*
D03*
X447600Y446800D02*
D03*
X451100Y448900D02*
D03*
X451000Y450900D02*
D03*
X450900Y452900D02*
D03*
X442500Y450300D02*
D03*
X442400Y452400D02*
D03*
X432400Y447200D02*
D03*
X437700Y450400D02*
D03*
X437900Y452300D02*
D03*
X429000Y449300D02*
D03*
X429100Y451300D02*
D03*
X429300Y453300D02*
D03*
X333675Y497050D02*
D03*
X337366Y493825D02*
D03*
X336116Y495375D02*
D03*
X332900Y498675D02*
D03*
X331375Y495575D02*
D03*
X316626Y510247D02*
D03*
X321863Y506555D02*
D03*
X323773Y507122D02*
D03*
X317098Y514340D02*
D03*
X319008Y514906D02*
D03*
X320818Y515475D02*
D03*
X336485Y480931D02*
D03*
X340685Y480431D02*
D03*
X341885Y482031D02*
D03*
X342985Y483631D02*
D03*
X334885Y486931D02*
D03*
X335985Y488531D02*
D03*
X516000Y522950D02*
D03*
X517300Y522950D02*
D03*
X519800D02*
D03*
X518500D02*
D03*
X521000D02*
D03*
X535500Y524100D02*
D03*
Y522800D02*
D03*
Y521400D02*
D03*
Y519900D02*
D03*
Y518400D02*
D03*
Y516900D02*
D03*
Y515300D02*
D03*
X536500Y523400D02*
D03*
Y522000D02*
D03*
Y520600D02*
D03*
Y519100D02*
D03*
Y517700D02*
D03*
Y516100D02*
D03*
X533300Y524100D02*
D03*
Y522800D02*
D03*
Y521400D02*
D03*
Y519900D02*
D03*
Y518400D02*
D03*
Y516900D02*
D03*
Y515300D02*
D03*
X534300Y523400D02*
D03*
Y522000D02*
D03*
Y520600D02*
D03*
Y519100D02*
D03*
Y517700D02*
D03*
Y516100D02*
D03*
X531000Y524100D02*
D03*
Y522800D02*
D03*
Y521400D02*
D03*
Y519900D02*
D03*
Y518400D02*
D03*
Y516900D02*
D03*
Y515300D02*
D03*
X532000Y523400D02*
D03*
Y522000D02*
D03*
Y520600D02*
D03*
Y519100D02*
D03*
Y517700D02*
D03*
Y516100D02*
D03*
X529800D02*
D03*
Y517700D02*
D03*
Y519100D02*
D03*
Y520600D02*
D03*
Y522000D02*
D03*
Y523400D02*
D03*
X528800Y515300D02*
D03*
Y516900D02*
D03*
Y518400D02*
D03*
Y519900D02*
D03*
Y521400D02*
D03*
Y522800D02*
D03*
Y524100D02*
D03*
X528500Y526600D02*
D03*
X521700Y533950D02*
D03*
X519200D02*
D03*
X520500D02*
D03*
X518000D02*
D03*
X516700Y533950D02*
D03*
X500500Y537800D02*
D03*
Y538800D02*
D03*
Y539800D02*
D03*
X513600D02*
D03*
Y538800D02*
D03*
Y537700D02*
D03*
X511800Y538800D02*
D03*
X510800D02*
D03*
X512400Y538100D02*
D03*
Y539500D02*
D03*
X511300Y538100D02*
D03*
Y539500D02*
D03*
X510300Y538100D02*
D03*
Y539500D02*
D03*
X509100Y537700D02*
D03*
Y538700D02*
D03*
Y539800D02*
D03*
X507300Y544400D02*
D03*
X503800Y546300D02*
D03*
X503800Y547600D02*
D03*
Y550100D02*
D03*
Y548800D02*
D03*
Y551300D02*
D03*
X527000Y557900D02*
D03*
X516700Y558100D02*
D03*
X519800Y554400D02*
D03*
X524500Y557900D02*
D03*
X525800D02*
D03*
X523300D02*
D03*
X522000D02*
D03*
X361100Y474600D02*
D03*
X360600Y472500D02*
D03*
X360100Y470700D02*
D03*
X369600Y472200D02*
D03*
X369000Y470300D02*
D03*
X363200Y468000D02*
D03*
X369019Y457608D02*
D03*
X371069Y456908D02*
D03*
X404785Y447600D02*
D03*
X406860Y447175D02*
D03*
X394800Y463400D02*
D03*
X394400Y461400D02*
D03*
X394000Y459500D02*
D03*
X371900Y471700D02*
D03*
X371100Y469800D02*
D03*
X379900Y468400D02*
D03*
X379100Y466400D02*
D03*
X378300Y464400D02*
D03*
X374200Y464300D02*
D03*
X403300Y461700D02*
D03*
X402900Y459800D02*
D03*
X406200Y461300D02*
D03*
X405500Y459400D02*
D03*
X414300Y458800D02*
D03*
X413700Y456900D02*
D03*
X413100Y455000D02*
D03*
X409000Y454400D02*
D03*
X487700Y611300D02*
D03*
X488600Y613200D02*
D03*
X489400Y615000D02*
D03*
X480000Y615200D02*
D03*
X481000Y616900D02*
D03*
X486800Y618200D02*
D03*
X489250Y624300D02*
D03*
X487275Y625150D02*
D03*
X466600Y619900D02*
D03*
X467400Y621800D02*
D03*
X468100Y623700D02*
D03*
X472000Y624200D02*
D03*
X474600Y617100D02*
D03*
X475200Y619000D02*
D03*
X450800Y623200D02*
D03*
X450900Y625100D02*
D03*
X451000Y627200D02*
D03*
X442400Y623600D02*
D03*
X442500Y625600D02*
D03*
X447400Y629100D02*
D03*
X429500Y622700D02*
D03*
X429300Y624700D02*
D03*
X429100Y626800D02*
D03*
X432400Y628900D02*
D03*
X437900Y623700D02*
D03*
X437600Y625800D02*
D03*
X445575Y636104D02*
D03*
X447775D02*
D03*
X394200Y616400D02*
D03*
X394700Y614500D02*
D03*
X395100Y612400D02*
D03*
X403100Y614200D02*
D03*
X402700Y616200D02*
D03*
X397300Y618900D02*
D03*
X405700Y616500D02*
D03*
X406300Y614600D02*
D03*
X414200Y617000D02*
D03*
X413700Y618800D02*
D03*
X413100Y620800D02*
D03*
X409300Y621500D02*
D03*
X409255Y629695D02*
D03*
X361100Y601300D02*
D03*
X360500Y603200D02*
D03*
X359900Y605100D02*
D03*
X369000Y603700D02*
D03*
X368300Y605600D02*
D03*
X362800Y607800D02*
D03*
X371800Y604400D02*
D03*
X371100Y606300D02*
D03*
X379600Y607600D02*
D03*
X378800Y609400D02*
D03*
X378100Y611200D02*
D03*
X374100Y611600D02*
D03*
X373165Y619808D02*
D03*
X371165Y619108D02*
D03*
X340700Y595500D02*
D03*
X341800Y593800D02*
D03*
X342900Y592200D02*
D03*
X336100Y587500D02*
D03*
X335000Y589100D02*
D03*
X336800Y594900D02*
D03*
X321000Y560400D02*
D03*
X319200Y561200D02*
D03*
X317300Y561800D02*
D03*
X316700Y565800D02*
D03*
X323700Y568600D02*
D03*
X321800Y569100D02*
D03*
X356700Y486400D02*
D03*
X389975Y475425D02*
D03*
X363700Y460275D02*
D03*
X364593Y462828D02*
D03*
X365300Y459446D02*
D03*
X366415Y463013D02*
D03*
X401284Y452514D02*
D03*
X400677Y448825D02*
D03*
X399506Y452076D02*
D03*
X398977Y449424D02*
D03*
X437021Y439684D02*
D03*
X437034Y442389D02*
D03*
X438804Y439421D02*
D03*
X438696Y443157D02*
D03*
X479447Y451699D02*
D03*
X481006Y448302D02*
D03*
X478218Y450342D02*
D03*
X479262Y447847D02*
D03*
X515309Y494344D02*
D03*
X517644Y492980D02*
D03*
X514189Y492931D02*
D03*
X517479Y491156D02*
D03*
X515739Y586756D02*
D03*
X512740Y584525D02*
D03*
X514156Y587676D02*
D03*
X511933Y586136D02*
D03*
X484461Y625730D02*
D03*
X483392Y623246D02*
D03*
X482923Y626668D02*
D03*
X481562Y623187D02*
D03*
X441204Y631817D02*
D03*
X441096Y635554D02*
D03*
X442866Y632586D02*
D03*
X442879Y635291D02*
D03*
X407262Y629261D02*
D03*
X404735Y627892D02*
D03*
X405330Y625254D02*
D03*
X402939Y627747D02*
D03*
X403884Y624131D02*
D03*
X369798Y614899D02*
D03*
X368477Y613631D02*
D03*
X329473Y574793D02*
D03*
X327266Y576355D02*
D03*
X330711Y576102D02*
D03*
X327589Y578157D02*
D03*
X357725Y590375D02*
D03*
X424575Y610950D02*
D03*
X343400Y543500D02*
D03*
X368931Y617461D02*
D03*
X367159Y616429D02*
D03*
M02*
