G04*
G04 #@! TF.GenerationSoftware,Altium Limited,Altium Designer,22.7.1 (60)*
G04*
G04 Layer_Color=16711935*
%FSLAX43Y43*%
%MOMM*%
G71*
G04*
G04 #@! TF.SameCoordinates,26706279-76B3-4EFB-AC1E-C542CE9A8173*
G04*
G04*
G04 #@! TF.FilePolarity,Positive*
G04*
G01*
G75*
%ADD10C,0.200*%
D10*
X538159Y597847D02*
X539500Y595686D01*
X536761Y599918D02*
X538159Y597847D01*
X535223Y602025D02*
X536761Y599918D01*
X533581Y604104D02*
X535223Y602025D01*
X531834Y606157D02*
X533581Y604104D01*
X529978Y608188D02*
X531834Y606157D01*
X528013Y610191D02*
X529978Y608188D01*
X525939Y612165D02*
X528013Y610191D01*
X523741Y614120D02*
X525939Y612165D01*
X521417Y616057D02*
X523741Y614120D01*
X518975Y617965D02*
X521417Y616057D01*
X516393Y619858D02*
X518975Y617965D01*
X513672Y621732D02*
X516393Y619858D01*
X510809Y623584D02*
X513672Y621732D01*
X507779Y625430D02*
X510809Y623584D01*
X504596Y627254D02*
X507779Y625430D01*
X501224Y629077D02*
X504596Y627254D01*
X497672Y630888D02*
X501224Y629077D01*
X493899Y632706D02*
X497672Y630888D01*
X489885Y634537D02*
X493899Y632706D01*
X485602Y636396D02*
X489885Y634537D01*
X481761Y638000D02*
X485602Y636396D01*
X478616Y639312D02*
X481761Y638000D01*
X475455Y640542D02*
X478616Y639312D01*
X472294Y641684D02*
X475455Y640542D01*
X469123Y642741D02*
X472294Y641684D01*
X465942Y643715D02*
X469123Y642741D01*
X462751Y644607D02*
X465942Y643715D01*
X459547Y645416D02*
X462751Y644607D01*
X456330Y646144D02*
X459547Y645416D01*
X453100Y646790D02*
X456330Y646144D01*
X449493Y647414D02*
X453100Y646790D01*
X445867Y647937D02*
X449493Y647414D01*
X442219Y648362D02*
X445867Y647937D01*
X438549Y648686D02*
X442219Y648362D01*
X434855Y648910D02*
X438549Y648686D01*
X431135Y649034D02*
X434855Y648910D01*
X427389Y649058D02*
X431135Y649034D01*
X423613Y648979D02*
X427389Y649058D01*
X419808Y648798D02*
X423613Y648979D01*
X415972Y648514D02*
X419808Y648798D01*
X412102Y648126D02*
X415972Y648514D01*
X408197Y647631D02*
X412102Y648126D01*
X404257Y647029D02*
X408197Y647631D01*
X400279Y646319D02*
X404257Y647029D01*
X396261Y645498D02*
X400279Y646319D01*
X392203Y644565D02*
X396261Y645498D01*
X388102Y643517D02*
X392203Y644565D01*
X383958Y642354D02*
X388102Y643517D01*
X379768Y641071D02*
X383958Y642354D01*
X375532Y639668D02*
X379768Y641071D01*
X373202Y638851D02*
X375532Y639668D01*
X370865Y638000D02*
X373202Y638851D01*
X370342Y637746D02*
X370865Y638000D01*
X369087Y637202D02*
X370342Y637746D01*
X366541Y636209D02*
X369087Y637202D01*
X355493Y632296D02*
X366541Y636209D01*
X351007Y630663D02*
X355493Y632296D01*
X347098Y629158D02*
X351007Y630663D01*
X343505Y627684D02*
X347098Y629158D01*
X340178Y626226D02*
X343505Y627684D01*
X337020Y624742D02*
X340178Y626226D01*
X334056Y623249D02*
X337020Y624742D01*
X331232Y621723D02*
X334056Y623249D01*
X328524Y620151D02*
X331232Y621723D01*
X325951Y618551D02*
X328524Y620151D01*
X323488Y616906D02*
X325951Y618551D01*
X321118Y615208D02*
X323488Y616906D01*
X318853Y613467D02*
X321118Y615208D01*
X316685Y611680D02*
X318853Y613467D01*
X314604Y609838D02*
X316685Y611680D01*
X312611Y607944D02*
X314604Y609838D01*
X310723Y606015D02*
X312611Y607944D01*
X308895Y604007D02*
X310723Y606015D01*
X307277Y602097D02*
X308895Y604007D01*
X305691Y600090D02*
X307277Y602097D01*
X304140Y597984D02*
X305691Y600090D01*
X302621Y595772D02*
X304140Y597984D01*
X301124Y593433D02*
X302621Y595772D01*
X299626Y590918D02*
X301124Y593433D01*
X298135Y588232D02*
X299626Y590918D01*
X296596Y585254D02*
X298135Y588232D01*
X295030Y582010D02*
X296596Y585254D01*
X291580Y574359D02*
X295030Y582010D01*
X290342Y571670D02*
X291580Y574359D01*
X289500Y570000D02*
X290342Y571670D01*
X289500Y505621D02*
Y570000D01*
Y505621D02*
X292431Y496888D01*
X293495Y494056D01*
X294621Y491316D01*
X295759Y488788D01*
X296937Y486391D01*
X298125Y484176D01*
X299348Y482080D01*
X300660Y479998D01*
X302004Y478020D01*
X303525Y475952D01*
X305154Y473902D01*
X306898Y471867D01*
X308728Y469883D01*
X310641Y467955D01*
X312644Y466076D01*
X314743Y464241D01*
X316950Y462443D01*
X319255Y460690D01*
X321657Y458987D01*
X324172Y457323D01*
X326806Y455697D01*
X329560Y454111D01*
X332473Y452545D01*
X335506Y451024D01*
X338662Y449550D01*
X341983Y448104D01*
X345549Y446654D01*
X349392Y445192D01*
X353499Y443728D01*
X358038Y442202D01*
X365040Y439954D01*
X368664Y438775D01*
X370865Y438000D01*
X374856Y436597D01*
X378826Y435289D01*
X382728Y434090D01*
X386588Y432990D01*
X390406Y431987D01*
X394184Y431079D01*
X397922Y430266D01*
X401623Y429544D01*
X405286Y428914D01*
X408914Y428373D01*
X412508Y427920D01*
X416068Y427554D01*
X419596Y427274D01*
X423093Y427079D01*
X426560Y426968D01*
X429998Y426940D01*
X433409Y426994D01*
X436793Y427130D01*
X440152Y427348D01*
X443486Y427646D01*
X446798Y428025D01*
X450087Y428484D01*
X453356Y429023D01*
X456605Y429642D01*
X459834Y430342D01*
X463402Y431213D01*
X466949Y432184D01*
X470476Y433255D01*
X473986Y434427D01*
X477478Y435700D01*
X480320Y436817D01*
X483147Y438000D01*
X486558Y439608D01*
X496378Y444099D01*
X500310Y445990D01*
X503837Y447786D01*
X506943Y449468D01*
X509753Y451092D01*
X512366Y452702D01*
X514819Y454315D01*
X517128Y455936D01*
X519321Y457581D01*
X521400Y459246D01*
X523374Y460937D01*
X525261Y462665D01*
X527237Y464604D01*
X528962Y466420D01*
X530630Y468295D01*
X532233Y470222D01*
X533759Y472185D01*
X535215Y474196D01*
X536598Y476249D01*
X537889Y478316D01*
X538706Y479714D01*
X539500Y481153D01*
Y595686D01*
X484532Y505083D02*
Y575083D01*
X484476Y503671D02*
X484532Y505083D01*
X484310Y502267D02*
X484476Y503671D01*
X484034Y500881D02*
X484310Y502267D01*
X483651Y499521D02*
X484034Y500881D01*
X483161Y498195D02*
X483651Y499521D01*
X482570Y496911D02*
X483161Y498195D01*
X481879Y495678D02*
X482570Y496911D01*
X481094Y494503D02*
X481879Y495678D01*
X480219Y493393D02*
X481094Y494503D01*
X479259Y492355D02*
X480219Y493393D01*
X478222Y491396D02*
X479259Y492355D01*
X477112Y490521D02*
X478222Y491396D01*
X475937Y489736D02*
X477112Y490521D01*
X474703Y489045D02*
X475937Y489736D01*
X473420Y488453D02*
X474703Y489045D01*
X472094Y487964D02*
X473420Y488453D01*
X470734Y487581D02*
X472094Y487964D01*
X469347Y487305D02*
X470734Y487581D01*
X467944Y487139D02*
X469347Y487305D01*
X466532Y487083D02*
X467944Y487139D01*
X396532Y487083D02*
X466532D01*
X395119Y487139D02*
X396532Y487083D01*
X393716Y487305D02*
X395119Y487139D01*
X392330Y487581D02*
X393716Y487305D01*
X390969Y487964D02*
X392330Y487581D01*
X389643Y488453D02*
X390969Y487964D01*
X388360Y489045D02*
X389643Y488453D01*
X387127Y489736D02*
X388360Y489045D01*
X385951Y490521D02*
X387127Y489736D01*
X384841Y491396D02*
X385951Y490521D01*
X383804Y492355D02*
X384841Y491396D01*
X382844Y493393D02*
X383804Y492355D01*
X381969Y494503D02*
X382844Y493393D01*
X381184Y495678D02*
X381969Y494503D01*
X380493Y496911D02*
X381184Y495678D01*
X379902Y498195D02*
X380493Y496911D01*
X379413Y499521D02*
X379902Y498195D01*
X379029Y500881D02*
X379413Y499521D01*
X378753Y502267D02*
X379029Y500881D01*
X378587Y503671D02*
X378753Y502267D01*
X378532Y505083D02*
X378587Y503671D01*
X378532Y505083D02*
Y575083D01*
X378587Y576495D01*
X378753Y577899D01*
X379029Y579285D01*
X379413Y580645D01*
X379902Y581971D01*
X380493Y583255D01*
X381184Y584488D01*
X381969Y585663D01*
X382844Y586773D01*
X383804Y587811D01*
X384841Y588770D01*
X385951Y589646D01*
X387127Y590431D01*
X388360Y591121D01*
X389643Y591713D01*
X390969Y592202D01*
X392330Y592586D01*
X393716Y592862D01*
X395119Y593028D01*
X396532Y593083D01*
X466532D01*
X467944Y593028D01*
X469347Y592862D01*
X470734Y592586D01*
X472094Y592202D01*
X473420Y591713D01*
X474703Y591121D01*
X475937Y590431D01*
X477112Y589646D01*
X478222Y588770D01*
X479259Y587811D01*
X480219Y586773D01*
X481094Y585663D01*
X481879Y584488D01*
X482570Y583255D01*
X483161Y581971D01*
X483651Y580645D01*
X484034Y579285D01*
X484310Y577899D01*
X484476Y576495D01*
X484532Y575083D01*
M02*
