G04*
G04 #@! TF.GenerationSoftware,Altium Limited,Altium Designer,22.7.1 (60)*
G04*
G04 Layer_Color=8388736*
%FSLAX43Y43*%
%MOMM*%
G71*
G04*
G04 #@! TF.SameCoordinates,26706279-76B3-4EFB-AC1E-C542CE9A8173*
G04*
G04*
G04 #@! TF.FilePolarity,Negative*
G04*
G01*
G75*
%ADD16C,3.300*%
%ADD17R,0.800X0.450*%
%ADD18R,0.700X0.350*%
%ADD19R,0.350X0.700*%
%ADD20R,3.250X3.250*%
%ADD21R,2.300X1.900*%
%ADD22R,1.500X1.150*%
%ADD23R,1.500X1.100*%
%ADD24R,1.500X2.200*%
%ADD25R,0.900X1.000*%
%ADD26R,0.900X0.900*%
%ADD27R,1.100X1.500*%
%ADD28R,1.350X1.700*%
%ADD29R,2.100X5.500*%
%ADD30R,1.100X1.200*%
G04:AMPARAMS|DCode=31|XSize=1.5mm|YSize=1.15mm|CornerRadius=0mm|HoleSize=0mm|Usage=FLASHONLY|Rotation=285.000|XOffset=0mm|YOffset=0mm|HoleType=Round|Shape=Rectangle|*
%AMROTATEDRECTD31*
4,1,4,-0.750,0.576,0.361,0.873,0.750,-0.576,-0.361,-0.873,-0.750,0.576,0.0*
%
%ADD31ROTATEDRECTD31*%

G04:AMPARAMS|DCode=32|XSize=1.1mm|YSize=1.5mm|CornerRadius=0mm|HoleSize=0mm|Usage=FLASHONLY|Rotation=195.000|XOffset=0mm|YOffset=0mm|HoleType=Round|Shape=Rectangle|*
%AMROTATEDRECTD32*
4,1,4,0.337,0.867,0.725,-0.582,-0.337,-0.867,-0.725,0.582,0.337,0.867,0.0*
%
%ADD32ROTATEDRECTD32*%

%ADD33R,1.150X1.500*%
%ADD34R,0.700X2.000*%
%ADD35R,3.500X2.050*%
%ADD36R,1.300X0.400*%
%ADD37R,0.400X1.300*%
G04:AMPARAMS|DCode=38|XSize=1.1mm|YSize=1.5mm|CornerRadius=0mm|HoleSize=0mm|Usage=FLASHONLY|Rotation=215.000|XOffset=0mm|YOffset=0mm|HoleType=Round|Shape=Rectangle|*
%AMROTATEDRECTD38*
4,1,4,0.020,0.930,0.881,-0.299,-0.020,-0.930,-0.881,0.299,0.020,0.930,0.0*
%
%ADD38ROTATEDRECTD38*%

G04:AMPARAMS|DCode=39|XSize=1.1mm|YSize=1.5mm|CornerRadius=0mm|HoleSize=0mm|Usage=FLASHONLY|Rotation=19.000|XOffset=0mm|YOffset=0mm|HoleType=Round|Shape=Rectangle|*
%AMROTATEDRECTD39*
4,1,4,-0.276,-0.888,-0.764,0.530,0.276,0.888,0.764,-0.530,-0.276,-0.888,0.0*
%
%ADD39ROTATEDRECTD39*%

G04:AMPARAMS|DCode=40|XSize=1.1mm|YSize=1.5mm|CornerRadius=0mm|HoleSize=0mm|Usage=FLASHONLY|Rotation=109.000|XOffset=0mm|YOffset=0mm|HoleType=Round|Shape=Rectangle|*
%AMROTATEDRECTD40*
4,1,4,0.888,-0.276,-0.530,-0.764,-0.888,0.276,0.530,0.764,0.888,-0.276,0.0*
%
%ADD40ROTATEDRECTD40*%

G04:AMPARAMS|DCode=41|XSize=1.1mm|YSize=1.5mm|CornerRadius=0mm|HoleSize=0mm|Usage=FLASHONLY|Rotation=290.000|XOffset=0mm|YOffset=0mm|HoleType=Round|Shape=Rectangle|*
%AMROTATEDRECTD41*
4,1,4,-0.893,0.260,0.517,0.773,0.893,-0.260,-0.517,-0.773,-0.893,0.260,0.0*
%
%ADD41ROTATEDRECTD41*%

G04:AMPARAMS|DCode=42|XSize=1.1mm|YSize=1.5mm|CornerRadius=0mm|HoleSize=0mm|Usage=FLASHONLY|Rotation=232.000|XOffset=0mm|YOffset=0mm|HoleType=Round|Shape=Rectangle|*
%AMROTATEDRECTD42*
4,1,4,-0.252,0.895,0.930,-0.028,0.252,-0.895,-0.930,0.028,-0.252,0.895,0.0*
%
%ADD42ROTATEDRECTD42*%

G04:AMPARAMS|DCode=43|XSize=1.1mm|YSize=1.5mm|CornerRadius=0mm|HoleSize=0mm|Usage=FLASHONLY|Rotation=322.000|XOffset=0mm|YOffset=0mm|HoleType=Round|Shape=Rectangle|*
%AMROTATEDRECTD43*
4,1,4,-0.895,-0.252,0.028,0.930,0.895,0.252,-0.028,-0.930,-0.895,-0.252,0.0*
%
%ADD43ROTATEDRECTD43*%

G04:AMPARAMS|DCode=44|XSize=1.1mm|YSize=1.5mm|CornerRadius=0mm|HoleSize=0mm|Usage=FLASHONLY|Rotation=330.000|XOffset=0mm|YOffset=0mm|HoleType=Round|Shape=Rectangle|*
%AMROTATEDRECTD44*
4,1,4,-0.851,-0.375,-0.101,0.925,0.851,0.375,0.101,-0.925,-0.851,-0.375,0.0*
%
%ADD44ROTATEDRECTD44*%

G04:AMPARAMS|DCode=45|XSize=1.1mm|YSize=1.5mm|CornerRadius=0mm|HoleSize=0mm|Usage=FLASHONLY|Rotation=160.000|XOffset=0mm|YOffset=0mm|HoleType=Round|Shape=Rectangle|*
%AMROTATEDRECTD45*
4,1,4,0.773,0.517,0.260,-0.893,-0.773,-0.517,-0.260,0.893,0.773,0.517,0.0*
%
%ADD45ROTATEDRECTD45*%

G04:AMPARAMS|DCode=46|XSize=1.1mm|YSize=1.5mm|CornerRadius=0mm|HoleSize=0mm|Usage=FLASHONLY|Rotation=71.000|XOffset=0mm|YOffset=0mm|HoleType=Round|Shape=Rectangle|*
%AMROTATEDRECTD46*
4,1,4,0.530,-0.764,-0.888,-0.276,-0.530,0.764,0.888,0.276,0.530,-0.764,0.0*
%
%ADD46ROTATEDRECTD46*%

G04:AMPARAMS|DCode=47|XSize=1.1mm|YSize=1.5mm|CornerRadius=0mm|HoleSize=0mm|Usage=FLASHONLY|Rotation=310.000|XOffset=0mm|YOffset=0mm|HoleType=Round|Shape=Rectangle|*
%AMROTATEDRECTD47*
4,1,4,-0.928,-0.061,0.221,0.903,0.928,0.061,-0.221,-0.903,-0.928,-0.061,0.0*
%
%ADD47ROTATEDRECTD47*%

G04:AMPARAMS|DCode=48|XSize=1.1mm|YSize=1.5mm|CornerRadius=0mm|HoleSize=0mm|Usage=FLASHONLY|Rotation=40.000|XOffset=0mm|YOffset=0mm|HoleType=Round|Shape=Rectangle|*
%AMROTATEDRECTD48*
4,1,4,0.061,-0.928,-0.903,0.221,-0.061,0.928,0.903,-0.221,0.061,-0.928,0.0*
%
%ADD48ROTATEDRECTD48*%

G04:AMPARAMS|DCode=49|XSize=1.1mm|YSize=1.5mm|CornerRadius=0mm|HoleSize=0mm|Usage=FLASHONLY|Rotation=112.000|XOffset=0mm|YOffset=0mm|HoleType=Round|Shape=Rectangle|*
%AMROTATEDRECTD49*
4,1,4,0.901,-0.229,-0.489,-0.791,-0.901,0.229,0.489,0.791,0.901,-0.229,0.0*
%
%ADD49ROTATEDRECTD49*%

G04:AMPARAMS|DCode=50|XSize=1.1mm|YSize=1.5mm|CornerRadius=0mm|HoleSize=0mm|Usage=FLASHONLY|Rotation=113.000|XOffset=0mm|YOffset=0mm|HoleType=Round|Shape=Rectangle|*
%AMROTATEDRECTD50*
4,1,4,0.905,-0.213,-0.475,-0.799,-0.905,0.213,0.475,0.799,0.905,-0.213,0.0*
%
%ADD50ROTATEDRECTD50*%

G04:AMPARAMS|DCode=51|XSize=1.1mm|YSize=1.5mm|CornerRadius=0mm|HoleSize=0mm|Usage=FLASHONLY|Rotation=116.000|XOffset=0mm|YOffset=0mm|HoleType=Round|Shape=Rectangle|*
%AMROTATEDRECTD51*
4,1,4,0.915,-0.166,-0.433,-0.823,-0.915,0.166,0.433,0.823,0.915,-0.166,0.0*
%
%ADD51ROTATEDRECTD51*%

G04:AMPARAMS|DCode=52|XSize=1.1mm|YSize=1.5mm|CornerRadius=0mm|HoleSize=0mm|Usage=FLASHONLY|Rotation=26.000|XOffset=0mm|YOffset=0mm|HoleType=Round|Shape=Rectangle|*
%AMROTATEDRECTD52*
4,1,4,-0.166,-0.915,-0.823,0.433,0.166,0.915,0.823,-0.433,-0.166,-0.915,0.0*
%
%ADD52ROTATEDRECTD52*%

G04:AMPARAMS|DCode=53|XSize=1.1mm|YSize=1.5mm|CornerRadius=0mm|HoleSize=0mm|Usage=FLASHONLY|Rotation=93.000|XOffset=0mm|YOffset=0mm|HoleType=Round|Shape=Rectangle|*
%AMROTATEDRECTD53*
4,1,4,0.778,-0.510,-0.720,-0.589,-0.778,0.510,0.720,0.589,0.778,-0.510,0.0*
%
%ADD53ROTATEDRECTD53*%

G04:AMPARAMS|DCode=54|XSize=1.1mm|YSize=1.5mm|CornerRadius=0mm|HoleSize=0mm|Usage=FLASHONLY|Rotation=3.000|XOffset=0mm|YOffset=0mm|HoleType=Round|Shape=Rectangle|*
%AMROTATEDRECTD54*
4,1,4,-0.510,-0.778,-0.589,0.720,0.510,0.778,0.589,-0.720,-0.510,-0.778,0.0*
%
%ADD54ROTATEDRECTD54*%

G04:AMPARAMS|DCode=55|XSize=1.1mm|YSize=1.5mm|CornerRadius=0mm|HoleSize=0mm|Usage=FLASHONLY|Rotation=264.000|XOffset=0mm|YOffset=0mm|HoleType=Round|Shape=Rectangle|*
%AMROTATEDRECTD55*
4,1,4,-0.688,0.625,0.803,0.469,0.688,-0.625,-0.803,-0.469,-0.688,0.625,0.0*
%
%ADD55ROTATEDRECTD55*%

G04:AMPARAMS|DCode=56|XSize=1.1mm|YSize=1.5mm|CornerRadius=0mm|HoleSize=0mm|Usage=FLASHONLY|Rotation=354.000|XOffset=0mm|YOffset=0mm|HoleType=Round|Shape=Rectangle|*
%AMROTATEDRECTD56*
4,1,4,-0.625,-0.688,-0.469,0.803,0.625,0.688,0.469,-0.803,-0.625,-0.688,0.0*
%
%ADD56ROTATEDRECTD56*%

G04:AMPARAMS|DCode=57|XSize=1.1mm|YSize=1.5mm|CornerRadius=0mm|HoleSize=0mm|Usage=FLASHONLY|Rotation=213.000|XOffset=0mm|YOffset=0mm|HoleType=Round|Shape=Rectangle|*
%AMROTATEDRECTD57*
4,1,4,0.053,0.929,0.870,-0.329,-0.053,-0.929,-0.870,0.329,0.053,0.929,0.0*
%
%ADD57ROTATEDRECTD57*%

G04:AMPARAMS|DCode=58|XSize=1.1mm|YSize=1.5mm|CornerRadius=0mm|HoleSize=0mm|Usage=FLASHONLY|Rotation=145.000|XOffset=0mm|YOffset=0mm|HoleType=Round|Shape=Rectangle|*
%AMROTATEDRECTD58*
4,1,4,0.881,0.299,0.020,-0.930,-0.881,-0.299,-0.020,0.930,0.881,0.299,0.0*
%
%ADD58ROTATEDRECTD58*%

G04:AMPARAMS|DCode=59|XSize=1.1mm|YSize=1.5mm|CornerRadius=0mm|HoleSize=0mm|Usage=FLASHONLY|Rotation=54.000|XOffset=0mm|YOffset=0mm|HoleType=Round|Shape=Rectangle|*
%AMROTATEDRECTD59*
4,1,4,0.283,-0.886,-0.930,-0.004,-0.283,0.886,0.930,0.004,0.283,-0.886,0.0*
%
%ADD59ROTATEDRECTD59*%

G04:AMPARAMS|DCode=60|XSize=1.1mm|YSize=1.5mm|CornerRadius=0mm|HoleSize=0mm|Usage=FLASHONLY|Rotation=197.000|XOffset=0mm|YOffset=0mm|HoleType=Round|Shape=Rectangle|*
%AMROTATEDRECTD60*
4,1,4,0.307,0.878,0.745,-0.556,-0.307,-0.878,-0.745,0.556,0.307,0.878,0.0*
%
%ADD60ROTATEDRECTD60*%

G04:AMPARAMS|DCode=61|XSize=1.1mm|YSize=1.5mm|CornerRadius=0mm|HoleSize=0mm|Usage=FLASHONLY|Rotation=108.000|XOffset=0mm|YOffset=0mm|HoleType=Round|Shape=Rectangle|*
%AMROTATEDRECTD61*
4,1,4,0.883,-0.291,-0.543,-0.755,-0.883,0.291,0.543,0.755,0.883,-0.291,0.0*
%
%ADD61ROTATEDRECTD61*%

%ADD62R,2.260X1.170*%
%ADD63R,10.510X10.900*%
%ADD64R,5.500X2.100*%
%ADD65R,3.100X3.700*%
%ADD66R,3.200X2.510*%
%ADD67R,0.710X2.010*%
%ADD68R,1.200X1.100*%
%ADD69R,2.050X3.500*%
%ADD70P,11.455X4X333.0*%
%ADD71P,11.455X4X370.0*%
%ADD72P,11.455X4X390.0*%
%ADD73P,11.455X4X293.0*%
G04:AMPARAMS|DCode=74|XSize=0.45mm|YSize=0.6mm|CornerRadius=0mm|HoleSize=0mm|Usage=FLASHONLY|Rotation=150.000|XOffset=0mm|YOffset=0mm|HoleType=Round|Shape=Rectangle|*
%AMROTATEDRECTD74*
4,1,4,0.345,0.147,0.045,-0.372,-0.345,-0.147,-0.045,0.372,0.345,0.147,0.0*
%
%ADD74ROTATEDRECTD74*%

%ADD75R,0.450X0.600*%
G04:AMPARAMS|DCode=76|XSize=0.45mm|YSize=0.6mm|CornerRadius=0mm|HoleSize=0mm|Usage=FLASHONLY|Rotation=210.000|XOffset=0mm|YOffset=0mm|HoleType=Round|Shape=Rectangle|*
%AMROTATEDRECTD76*
4,1,4,0.045,0.372,0.345,-0.147,-0.045,-0.372,-0.345,0.147,0.045,0.372,0.0*
%
%ADD76ROTATEDRECTD76*%

%ADD77P,11.455X4X394.0*%
%ADD78P,11.455X4X299.0*%
%ADD79P,11.455X4X219.0*%
%ADD80P,11.455X4X318.0*%
%ADD81P,11.455X4X244.0*%
%ADD82P,11.455X4X251.0*%
%ADD83P,11.455X4X354.0*%
%ADD84P,11.455X4X296.0*%
%ADD85P,11.455X4X277.0*%
G04:AMPARAMS|DCode=86|XSize=0.45mm|YSize=0.6mm|CornerRadius=0mm|HoleSize=0mm|Usage=FLASHONLY|Rotation=315.000|XOffset=0mm|YOffset=0mm|HoleType=Round|Shape=Rectangle|*
%AMROTATEDRECTD86*
4,1,4,-0.371,-0.053,0.053,0.371,0.371,0.053,-0.053,-0.371,-0.371,-0.053,0.0*
%
%ADD86ROTATEDRECTD86*%

%ADD87P,11.455X4X289.0*%
%ADD88P,11.455X4X222.0*%
%ADD89P,11.455X4X231.0*%
%ADD90P,11.455X4X241.0*%
%ADD91P,11.455X4X237.0*%
%ADD92P,11.455X4X247.0*%
G04:AMPARAMS|DCode=93|XSize=0.45mm|YSize=0.6mm|CornerRadius=0mm|HoleSize=0mm|Usage=FLASHONLY|Rotation=45.000|XOffset=0mm|YOffset=0mm|HoleType=Round|Shape=Rectangle|*
%AMROTATEDRECTD93*
4,1,4,0.053,-0.371,-0.371,0.053,-0.053,0.371,0.371,-0.053,0.053,-0.371,0.0*
%
%ADD93ROTATEDRECTD93*%

%ADD94P,11.455X4X260.0*%
%ADD95P,11.455X4X297.0*%
G04:AMPARAMS|DCode=96|XSize=1.1mm|YSize=1.5mm|CornerRadius=0mm|HoleSize=0mm|Usage=FLASHONLY|Rotation=165.000|XOffset=0mm|YOffset=0mm|HoleType=Round|Shape=Rectangle|*
%AMROTATEDRECTD96*
4,1,4,0.725,0.582,0.337,-0.867,-0.725,-0.582,-0.337,0.867,0.725,0.582,0.0*
%
%ADD96ROTATEDRECTD96*%

G04:AMPARAMS|DCode=97|XSize=1.1mm|YSize=1.5mm|CornerRadius=0mm|HoleSize=0mm|Usage=FLASHONLY|Rotation=255.000|XOffset=0mm|YOffset=0mm|HoleType=Round|Shape=Rectangle|*
%AMROTATEDRECTD97*
4,1,4,-0.582,0.725,0.867,0.337,0.582,-0.725,-0.867,-0.337,-0.582,0.725,0.0*
%
%ADD97ROTATEDRECTD97*%

G04:AMPARAMS|DCode=98|XSize=1.1mm|YSize=1.5mm|CornerRadius=0mm|HoleSize=0mm|Usage=FLASHONLY|Rotation=158.000|XOffset=0mm|YOffset=0mm|HoleType=Round|Shape=Rectangle|*
%AMROTATEDRECTD98*
4,1,4,0.791,0.489,0.229,-0.901,-0.791,-0.489,-0.229,0.901,0.791,0.489,0.0*
%
%ADD98ROTATEDRECTD98*%

G04:AMPARAMS|DCode=99|XSize=1.1mm|YSize=1.5mm|CornerRadius=0mm|HoleSize=0mm|Usage=FLASHONLY|Rotation=68.000|XOffset=0mm|YOffset=0mm|HoleType=Round|Shape=Rectangle|*
%AMROTATEDRECTD99*
4,1,4,0.489,-0.791,-0.901,-0.229,-0.489,0.791,0.901,0.229,0.489,-0.791,0.0*
%
%ADD99ROTATEDRECTD99*%

G04:AMPARAMS|DCode=100|XSize=1.1mm|YSize=1.5mm|CornerRadius=0mm|HoleSize=0mm|Usage=FLASHONLY|Rotation=169.000|XOffset=0mm|YOffset=0mm|HoleType=Round|Shape=Rectangle|*
%AMROTATEDRECTD100*
4,1,4,0.683,0.631,0.397,-0.841,-0.683,-0.631,-0.397,0.841,0.683,0.631,0.0*
%
%ADD100ROTATEDRECTD100*%

G04:AMPARAMS|DCode=101|XSize=1.1mm|YSize=1.5mm|CornerRadius=0mm|HoleSize=0mm|Usage=FLASHONLY|Rotation=259.000|XOffset=0mm|YOffset=0mm|HoleType=Round|Shape=Rectangle|*
%AMROTATEDRECTD101*
4,1,4,-0.631,0.683,0.841,0.397,0.631,-0.683,-0.841,-0.397,-0.631,0.683,0.0*
%
%ADD101ROTATEDRECTD101*%

G04:AMPARAMS|DCode=102|XSize=1.1mm|YSize=1.5mm|CornerRadius=0mm|HoleSize=0mm|Usage=FLASHONLY|Rotation=163.000|XOffset=0mm|YOffset=0mm|HoleType=Round|Shape=Rectangle|*
%AMROTATEDRECTD102*
4,1,4,0.745,0.556,0.307,-0.878,-0.745,-0.556,-0.307,0.878,0.745,0.556,0.0*
%
%ADD102ROTATEDRECTD102*%

G04:AMPARAMS|DCode=103|XSize=1.1mm|YSize=1.5mm|CornerRadius=0mm|HoleSize=0mm|Usage=FLASHONLY|Rotation=344.000|XOffset=0mm|YOffset=0mm|HoleType=Round|Shape=Rectangle|*
%AMROTATEDRECTD103*
4,1,4,-0.735,-0.569,-0.322,0.873,0.735,0.569,0.322,-0.873,-0.735,-0.569,0.0*
%
%ADD103ROTATEDRECTD103*%

G04:AMPARAMS|DCode=104|XSize=1.1mm|YSize=1.5mm|CornerRadius=0mm|HoleSize=0mm|Usage=FLASHONLY|Rotation=74.000|XOffset=0mm|YOffset=0mm|HoleType=Round|Shape=Rectangle|*
%AMROTATEDRECTD104*
4,1,4,0.569,-0.735,-0.873,-0.322,-0.569,0.735,0.873,0.322,0.569,-0.735,0.0*
%
%ADD104ROTATEDRECTD104*%

G04:AMPARAMS|DCode=105|XSize=1.1mm|YSize=1.5mm|CornerRadius=0mm|HoleSize=0mm|Usage=FLASHONLY|Rotation=334.000|XOffset=0mm|YOffset=0mm|HoleType=Round|Shape=Rectangle|*
%AMROTATEDRECTD105*
4,1,4,-0.823,-0.433,-0.166,0.915,0.823,0.433,0.166,-0.915,-0.823,-0.433,0.0*
%
%ADD105ROTATEDRECTD105*%

G04:AMPARAMS|DCode=106|XSize=1.1mm|YSize=1.5mm|CornerRadius=0mm|HoleSize=0mm|Usage=FLASHONLY|Rotation=64.000|XOffset=0mm|YOffset=0mm|HoleType=Round|Shape=Rectangle|*
%AMROTATEDRECTD106*
4,1,4,0.433,-0.823,-0.915,-0.166,-0.433,0.823,0.915,0.166,0.433,-0.823,0.0*
%
%ADD106ROTATEDRECTD106*%

G04:AMPARAMS|DCode=107|XSize=1.1mm|YSize=1.5mm|CornerRadius=0mm|HoleSize=0mm|Usage=FLASHONLY|Rotation=341.000|XOffset=0mm|YOffset=0mm|HoleType=Round|Shape=Rectangle|*
%AMROTATEDRECTD107*
4,1,4,-0.764,-0.530,-0.276,0.888,0.764,0.530,0.276,-0.888,-0.764,-0.530,0.0*
%
%ADD107ROTATEDRECTD107*%

G04:AMPARAMS|DCode=108|XSize=1.1mm|YSize=1.5mm|CornerRadius=0mm|HoleSize=0mm|Usage=FLASHONLY|Rotation=247.000|XOffset=0mm|YOffset=0mm|HoleType=Round|Shape=Rectangle|*
%AMROTATEDRECTD108*
4,1,4,-0.475,0.799,0.905,0.213,0.475,-0.799,-0.905,-0.213,-0.475,0.799,0.0*
%
%ADD108ROTATEDRECTD108*%

G04:AMPARAMS|DCode=109|XSize=1.1mm|YSize=1.5mm|CornerRadius=0mm|HoleSize=0mm|Usage=FLASHONLY|Rotation=6.000|XOffset=0mm|YOffset=0mm|HoleType=Round|Shape=Rectangle|*
%AMROTATEDRECTD109*
4,1,4,-0.469,-0.803,-0.625,0.688,0.469,0.803,0.625,-0.688,-0.469,-0.803,0.0*
%
%ADD109ROTATEDRECTD109*%

G04:AMPARAMS|DCode=110|XSize=1.1mm|YSize=1.5mm|CornerRadius=0mm|HoleSize=0mm|Usage=FLASHONLY|Rotation=276.000|XOffset=0mm|YOffset=0mm|HoleType=Round|Shape=Rectangle|*
%AMROTATEDRECTD110*
4,1,4,-0.803,0.469,0.688,0.625,0.803,-0.469,-0.688,-0.625,-0.803,0.469,0.0*
%
%ADD110ROTATEDRECTD110*%

G04:AMPARAMS|DCode=111|XSize=1.1mm|YSize=1.5mm|CornerRadius=0mm|HoleSize=0mm|Usage=FLASHONLY|Rotation=357.000|XOffset=0mm|YOffset=0mm|HoleType=Round|Shape=Rectangle|*
%AMROTATEDRECTD111*
4,1,4,-0.589,-0.720,-0.510,0.778,0.589,0.720,0.510,-0.778,-0.589,-0.720,0.0*
%
%ADD111ROTATEDRECTD111*%

G04:AMPARAMS|DCode=112|XSize=1.1mm|YSize=1.5mm|CornerRadius=0mm|HoleSize=0mm|Usage=FLASHONLY|Rotation=87.000|XOffset=0mm|YOffset=0mm|HoleType=Round|Shape=Rectangle|*
%AMROTATEDRECTD112*
4,1,4,0.720,-0.589,-0.778,-0.510,-0.720,0.589,0.778,0.510,0.720,-0.589,0.0*
%
%ADD112ROTATEDRECTD112*%

G04:AMPARAMS|DCode=113|XSize=1.1mm|YSize=1.5mm|CornerRadius=0mm|HoleSize=0mm|Usage=FLASHONLY|Rotation=16.000|XOffset=0mm|YOffset=0mm|HoleType=Round|Shape=Rectangle|*
%AMROTATEDRECTD113*
4,1,4,-0.322,-0.873,-0.735,0.569,0.322,0.873,0.735,-0.569,-0.322,-0.873,0.0*
%
%ADD113ROTATEDRECTD113*%

G04:AMPARAMS|DCode=114|XSize=1.1mm|YSize=1.5mm|CornerRadius=0mm|HoleSize=0mm|Usage=FLASHONLY|Rotation=106.000|XOffset=0mm|YOffset=0mm|HoleType=Round|Shape=Rectangle|*
%AMROTATEDRECTD114*
4,1,4,0.873,-0.322,-0.569,-0.735,-0.873,0.322,0.569,0.735,0.873,-0.322,0.0*
%
%ADD114ROTATEDRECTD114*%

G04:AMPARAMS|DCode=115|XSize=1.1mm|YSize=1.5mm|CornerRadius=0mm|HoleSize=0mm|Usage=FLASHONLY|Rotation=12.000|XOffset=0mm|YOffset=0mm|HoleType=Round|Shape=Rectangle|*
%AMROTATEDRECTD115*
4,1,4,-0.382,-0.848,-0.694,0.619,0.382,0.848,0.694,-0.619,-0.382,-0.848,0.0*
%
%ADD115ROTATEDRECTD115*%

G04:AMPARAMS|DCode=116|XSize=1.1mm|YSize=1.5mm|CornerRadius=0mm|HoleSize=0mm|Usage=FLASHONLY|Rotation=282.000|XOffset=0mm|YOffset=0mm|HoleType=Round|Shape=Rectangle|*
%AMROTATEDRECTD116*
4,1,4,-0.848,0.382,0.619,0.694,0.848,-0.382,-0.619,-0.694,-0.848,0.382,0.0*
%
%ADD116ROTATEDRECTD116*%

G04:AMPARAMS|DCode=117|XSize=1.1mm|YSize=1.5mm|CornerRadius=0mm|HoleSize=0mm|Usage=FLASHONLY|Rotation=283.000|XOffset=0mm|YOffset=0mm|HoleType=Round|Shape=Rectangle|*
%AMROTATEDRECTD117*
4,1,4,-0.855,0.367,0.607,0.705,0.855,-0.367,-0.607,-0.705,-0.855,0.367,0.0*
%
%ADD117ROTATEDRECTD117*%

G04:AMPARAMS|DCode=118|XSize=1.1mm|YSize=1.5mm|CornerRadius=0mm|HoleSize=0mm|Usage=FLASHONLY|Rotation=22.000|XOffset=0mm|YOffset=0mm|HoleType=Round|Shape=Rectangle|*
%AMROTATEDRECTD118*
4,1,4,-0.229,-0.901,-0.791,0.489,0.229,0.901,0.791,-0.489,-0.229,-0.901,0.0*
%
%ADD118ROTATEDRECTD118*%

G04:AMPARAMS|DCode=119|XSize=1.1mm|YSize=1.5mm|CornerRadius=0mm|HoleSize=0mm|Usage=FLASHONLY|Rotation=125.000|XOffset=0mm|YOffset=0mm|HoleType=Round|Shape=Rectangle|*
%AMROTATEDRECTD119*
4,1,4,0.930,-0.020,-0.299,-0.881,-0.930,0.020,0.299,0.881,0.930,-0.020,0.0*
%
%ADD119ROTATEDRECTD119*%

G04:AMPARAMS|DCode=120|XSize=1.1mm|YSize=1.5mm|CornerRadius=0mm|HoleSize=0mm|Usage=FLASHONLY|Rotation=72.000|XOffset=0mm|YOffset=0mm|HoleType=Round|Shape=Rectangle|*
%AMROTATEDRECTD120*
4,1,4,0.543,-0.755,-0.883,-0.291,-0.543,0.755,0.883,0.291,0.543,-0.755,0.0*
%
%ADD120ROTATEDRECTD120*%

G04:AMPARAMS|DCode=121|XSize=1.1mm|YSize=1.5mm|CornerRadius=0mm|HoleSize=0mm|Usage=FLASHONLY|Rotation=342.000|XOffset=0mm|YOffset=0mm|HoleType=Round|Shape=Rectangle|*
%AMROTATEDRECTD121*
4,1,4,-0.755,-0.543,-0.291,0.883,0.755,0.543,0.291,-0.883,-0.755,-0.543,0.0*
%
%ADD121ROTATEDRECTD121*%

G04:AMPARAMS|DCode=122|XSize=1.1mm|YSize=1.5mm|CornerRadius=0mm|HoleSize=0mm|Usage=FLASHONLY|Rotation=144.000|XOffset=0mm|YOffset=0mm|HoleType=Round|Shape=Rectangle|*
%AMROTATEDRECTD122*
4,1,4,0.886,0.283,0.004,-0.930,-0.886,-0.283,-0.004,0.930,0.886,0.283,0.0*
%
%ADD122ROTATEDRECTD122*%

G04:AMPARAMS|DCode=123|XSize=1.9mm|YSize=0.55mm|CornerRadius=0mm|HoleSize=0mm|Usage=FLASHONLY|Rotation=33.000|XOffset=0mm|YOffset=0mm|HoleType=Round|Shape=Rectangle|*
%AMROTATEDRECTD123*
4,1,4,-0.647,-0.748,-0.947,-0.287,0.647,0.748,0.947,0.287,-0.647,-0.748,0.0*
%
%ADD123ROTATEDRECTD123*%

%ADD124R,0.550X1.900*%
G04:AMPARAMS|DCode=125|XSize=1.9mm|YSize=0.55mm|CornerRadius=0mm|HoleSize=0mm|Usage=FLASHONLY|Rotation=251.000|XOffset=0mm|YOffset=0mm|HoleType=Round|Shape=Rectangle|*
%AMROTATEDRECTD125*
4,1,4,0.049,0.988,0.569,0.809,-0.049,-0.988,-0.569,-0.809,0.049,0.988,0.0*
%
%ADD125ROTATEDRECTD125*%

G04:AMPARAMS|DCode=126|XSize=1.9mm|YSize=0.55mm|CornerRadius=0mm|HoleSize=0mm|Usage=FLASHONLY|Rotation=293.000|XOffset=0mm|YOffset=0mm|HoleType=Round|Shape=Rectangle|*
%AMROTATEDRECTD126*
4,1,4,-0.624,0.767,-0.118,0.982,0.624,-0.767,0.118,-0.982,-0.624,0.767,0.0*
%
%ADD126ROTATEDRECTD126*%

G04:AMPARAMS|DCode=127|XSize=1.9mm|YSize=0.55mm|CornerRadius=0mm|HoleSize=0mm|Usage=FLASHONLY|Rotation=150.000|XOffset=0mm|YOffset=0mm|HoleType=Round|Shape=Rectangle|*
%AMROTATEDRECTD127*
4,1,4,0.960,-0.237,0.685,-0.713,-0.960,0.237,-0.685,0.713,0.960,-0.237,0.0*
%
%ADD127ROTATEDRECTD127*%

G04:AMPARAMS|DCode=128|XSize=1.9mm|YSize=0.55mm|CornerRadius=0mm|HoleSize=0mm|Usage=FLASHONLY|Rotation=215.000|XOffset=0mm|YOffset=0mm|HoleType=Round|Shape=Rectangle|*
%AMROTATEDRECTD128*
4,1,4,0.620,0.770,0.936,0.320,-0.620,-0.770,-0.936,-0.320,0.620,0.770,0.0*
%
%ADD128ROTATEDRECTD128*%

G04:AMPARAMS|DCode=129|XSize=1.9mm|YSize=0.55mm|CornerRadius=0mm|HoleSize=0mm|Usage=FLASHONLY|Rotation=103.000|XOffset=0mm|YOffset=0mm|HoleType=Round|Shape=Rectangle|*
%AMROTATEDRECTD129*
4,1,4,0.482,-0.864,-0.054,-0.988,-0.482,0.864,0.054,0.988,0.482,-0.864,0.0*
%
%ADD129ROTATEDRECTD129*%

G04:AMPARAMS|DCode=130|XSize=1.9mm|YSize=0.55mm|CornerRadius=0mm|HoleSize=0mm|Usage=FLASHONLY|Rotation=67.000|XOffset=0mm|YOffset=0mm|HoleType=Round|Shape=Rectangle|*
%AMROTATEDRECTD130*
4,1,4,-0.118,-0.982,-0.624,-0.767,0.118,0.982,0.624,0.767,-0.118,-0.982,0.0*
%
%ADD130ROTATEDRECTD130*%

G04:AMPARAMS|DCode=131|XSize=1.9mm|YSize=0.55mm|CornerRadius=0mm|HoleSize=0mm|Usage=FLASHONLY|Rotation=109.000|XOffset=0mm|YOffset=0mm|HoleType=Round|Shape=Rectangle|*
%AMROTATEDRECTD131*
4,1,4,0.569,-0.809,0.049,-0.988,-0.569,0.809,-0.049,0.988,0.569,-0.809,0.0*
%
%ADD131ROTATEDRECTD131*%

G04:AMPARAMS|DCode=132|XSize=1.9mm|YSize=0.55mm|CornerRadius=0mm|HoleSize=0mm|Usage=FLASHONLY|Rotation=325.000|XOffset=0mm|YOffset=0mm|HoleType=Round|Shape=Rectangle|*
%AMROTATEDRECTD132*
4,1,4,-0.936,0.320,-0.620,0.770,0.936,-0.320,0.620,-0.770,-0.936,0.320,0.0*
%
%ADD132ROTATEDRECTD132*%

G04:AMPARAMS|DCode=133|XSize=1.9mm|YSize=0.55mm|CornerRadius=0mm|HoleSize=0mm|Usage=FLASHONLY|Rotation=259.000|XOffset=0mm|YOffset=0mm|HoleType=Round|Shape=Rectangle|*
%AMROTATEDRECTD133*
4,1,4,-0.089,0.985,0.451,0.880,0.089,-0.985,-0.451,-0.880,-0.089,0.985,0.0*
%
%ADD133ROTATEDRECTD133*%

%ADD134C,1.500*%
%ADD135R,1.500X1.500*%
%ADD136C,1.603*%
%ADD137R,1.500X1.500*%
%ADD138C,1.300*%
%ADD139P,1.838X4X240.0*%
%ADD140C,1.600*%
%ADD141C,3.100*%
%ADD142C,1.400*%
%ADD143P,2.121X4X240.0*%
%ADD144C,5.600*%
%ADD145R,1.800X1.800*%
%ADD146C,1.800*%
D16*
X361450Y486300D02*
G03*
X361450Y486300I-4450J0D01*
G01*
X394750Y475500D02*
G03*
X394750Y475500I-4450J0D01*
G01*
X428050Y465000D02*
G03*
X428050Y465000I-4450J0D01*
G01*
X461354Y464000D02*
G03*
X461354Y464000I-4450J0D01*
G01*
X494750Y476000D02*
G03*
X494750Y476000I-4450J0D01*
G01*
Y600000D02*
G03*
X494750Y600000I-4450J0D01*
G01*
X461354Y612000D02*
G03*
X461354Y612000I-4450J0D01*
G01*
X428050Y611000D02*
G03*
X428050Y611000I-4450J0D01*
G01*
X394750Y600500D02*
G03*
X394750Y600500I-4450J0D01*
G01*
X361450Y589700D02*
G03*
X361450Y589700I-4450J0D01*
G01*
D17*
X323908Y547651D02*
D03*
D18*
Y547151D02*
D03*
Y546651D02*
D03*
Y546151D02*
D03*
Y545651D02*
D03*
Y545151D02*
D03*
Y544651D02*
D03*
X328809D02*
D03*
Y545151D02*
D03*
Y545651D02*
D03*
Y546151D02*
D03*
Y546651D02*
D03*
Y547151D02*
D03*
Y547651D02*
D03*
D19*
X324858Y543701D02*
D03*
X325358D02*
D03*
X325858D02*
D03*
X326358D02*
D03*
X326858D02*
D03*
X327358D02*
D03*
X327858D02*
D03*
Y548600D02*
D03*
X327358D02*
D03*
X326858D02*
D03*
X326358D02*
D03*
X325858D02*
D03*
X325358D02*
D03*
X324858D02*
D03*
D20*
X326358Y546151D02*
D03*
D21*
X339300Y562500D02*
D03*
X335300D02*
D03*
X502600Y538800D02*
D03*
X506600D02*
D03*
D22*
X321400Y536525D02*
D03*
Y534675D02*
D03*
X342000Y553975D02*
D03*
Y555825D02*
D03*
X339700Y553975D02*
D03*
Y555825D02*
D03*
X339000Y534575D02*
D03*
Y536425D02*
D03*
X322400Y542425D02*
D03*
X322400Y540575D02*
D03*
X515650Y543425D02*
D03*
Y541575D02*
D03*
X516750Y551075D02*
D03*
Y552925D02*
D03*
D23*
X319300Y534600D02*
D03*
Y536600D02*
D03*
X348700Y526500D02*
D03*
Y524500D02*
D03*
X358500Y541000D02*
D03*
Y543000D02*
D03*
X339400Y529500D02*
D03*
Y531500D02*
D03*
X357000Y547700D02*
D03*
Y545700D02*
D03*
X361200Y528700D02*
D03*
Y530700D02*
D03*
X320200Y540500D02*
D03*
X320200Y542500D02*
D03*
X442971Y440150D02*
D03*
Y442150D02*
D03*
X445071Y440150D02*
D03*
Y442150D02*
D03*
X519750Y553000D02*
D03*
Y551000D02*
D03*
X445575Y634704D02*
D03*
Y632704D02*
D03*
X447775Y634704D02*
D03*
Y632704D02*
D03*
D24*
X312050Y529200D02*
D03*
X312050Y538300D02*
D03*
X316350Y529200D02*
D03*
X316350Y538300D02*
D03*
D25*
X344150Y553500D02*
D03*
X346050Y553500D02*
D03*
D26*
X345100Y555500D02*
D03*
D27*
X341900Y547300D02*
D03*
X343900D02*
D03*
X348700Y516500D02*
D03*
X346700D02*
D03*
X359300Y528900D02*
D03*
X357300D02*
D03*
X338700Y545100D02*
D03*
X340700D02*
D03*
X354900Y527000D02*
D03*
X352900D02*
D03*
X320600Y544500D02*
D03*
X322600Y544500D02*
D03*
X324400Y542200D02*
D03*
X326400D02*
D03*
X527000Y526600D02*
D03*
X525000D02*
D03*
X507300Y533600D02*
D03*
X509300D02*
D03*
X508750Y544400D02*
D03*
X510750D02*
D03*
D28*
X348600Y518700D02*
D03*
X346400D02*
D03*
X346400Y522400D02*
D03*
X348600D02*
D03*
D29*
X357900Y525100D02*
D03*
X363500Y525100D02*
D03*
X511250Y548800D02*
D03*
X505650D02*
D03*
D30*
X357700Y521100D02*
D03*
X359300D02*
D03*
D31*
X332493Y522739D02*
D03*
X330707Y522261D02*
D03*
X327107Y521261D02*
D03*
X328893Y521739D02*
D03*
D32*
X332166Y535159D02*
D03*
X330234Y534641D02*
D03*
D33*
X307175Y550500D02*
D03*
X309025Y550500D02*
D03*
X307175Y548200D02*
D03*
X309025Y548200D02*
D03*
X335474Y553994D02*
D03*
X337324D02*
D03*
X335474Y547244D02*
D03*
X337324D02*
D03*
X337324Y551744D02*
D03*
X335474D02*
D03*
X337324Y549494D02*
D03*
X335474Y549494D02*
D03*
D34*
X312295Y543800D02*
D03*
X313565Y543800D02*
D03*
X314835D02*
D03*
X316105Y543800D02*
D03*
X312295Y548600D02*
D03*
X313565Y548600D02*
D03*
X314835D02*
D03*
X316105Y548600D02*
D03*
D35*
X308300Y545600D02*
D03*
X308300Y541400D02*
D03*
D36*
X341125Y543500D02*
D03*
Y543000D02*
D03*
Y542500D02*
D03*
Y542000D02*
D03*
Y541500D02*
D03*
Y541000D02*
D03*
Y540500D02*
D03*
Y540000D02*
D03*
Y539500D02*
D03*
Y539000D02*
D03*
Y538500D02*
D03*
Y538000D02*
D03*
Y537500D02*
D03*
Y537000D02*
D03*
Y536500D02*
D03*
Y536000D02*
D03*
Y535500D02*
D03*
Y535000D02*
D03*
Y534500D02*
D03*
Y534000D02*
D03*
Y533500D02*
D03*
Y533000D02*
D03*
Y532500D02*
D03*
Y532000D02*
D03*
Y531500D02*
D03*
X356625D02*
D03*
Y532000D02*
D03*
Y532500D02*
D03*
Y533000D02*
D03*
Y533500D02*
D03*
Y534000D02*
D03*
Y534500D02*
D03*
Y535000D02*
D03*
Y535500D02*
D03*
Y536000D02*
D03*
Y536500D02*
D03*
Y537000D02*
D03*
Y537500D02*
D03*
Y538000D02*
D03*
Y538500D02*
D03*
Y539000D02*
D03*
Y539500D02*
D03*
Y540000D02*
D03*
Y540500D02*
D03*
Y541000D02*
D03*
Y541500D02*
D03*
Y542000D02*
D03*
Y542500D02*
D03*
Y543000D02*
D03*
Y543500D02*
D03*
D37*
X342875Y529750D02*
D03*
X343375D02*
D03*
X343875D02*
D03*
X344375D02*
D03*
X344875D02*
D03*
X345375D02*
D03*
X345875D02*
D03*
X346375D02*
D03*
X346875D02*
D03*
X347375D02*
D03*
X347875D02*
D03*
X348375D02*
D03*
X348875D02*
D03*
X349375D02*
D03*
X349875D02*
D03*
X350375D02*
D03*
X350875D02*
D03*
X351375D02*
D03*
X351875D02*
D03*
X352375D02*
D03*
X352875D02*
D03*
X353375D02*
D03*
X353875D02*
D03*
X354375D02*
D03*
X354875D02*
D03*
Y545250D02*
D03*
X354375D02*
D03*
X353875D02*
D03*
X353375D02*
D03*
X352875D02*
D03*
X352375D02*
D03*
X351875D02*
D03*
X351375D02*
D03*
X350875D02*
D03*
X350375D02*
D03*
X349875D02*
D03*
X349375D02*
D03*
X348875D02*
D03*
X348375D02*
D03*
X347875D02*
D03*
X347375D02*
D03*
X346875D02*
D03*
X346375D02*
D03*
X345875D02*
D03*
X345375D02*
D03*
X344875D02*
D03*
X344375D02*
D03*
X343875D02*
D03*
X343375D02*
D03*
X342875D02*
D03*
D38*
X518645Y581165D02*
D03*
X517007Y580018D02*
D03*
X517473Y582786D02*
D03*
X515835Y581638D02*
D03*
X340081Y590326D02*
D03*
X341719Y591474D02*
D03*
X338981Y591926D02*
D03*
X340619Y593074D02*
D03*
X337881Y593526D02*
D03*
X339519Y594674D02*
D03*
X338819Y589474D02*
D03*
X337181Y588326D02*
D03*
X337719Y591074D02*
D03*
X336081Y589926D02*
D03*
D39*
X527354Y572874D02*
D03*
X529246Y573526D02*
D03*
X472254Y455774D02*
D03*
X474146Y456426D02*
D03*
X471554Y457674D02*
D03*
X473446Y458326D02*
D03*
X471446Y453326D02*
D03*
X469554Y452674D02*
D03*
X470746Y455226D02*
D03*
X468854Y454574D02*
D03*
X470046Y457126D02*
D03*
X468154Y456474D02*
D03*
D40*
X525726Y572055D02*
D03*
X525074Y573945D02*
D03*
X523826Y571354D02*
D03*
X523174Y573246D02*
D03*
X526274Y570546D02*
D03*
X526926Y568654D02*
D03*
X524374Y569846D02*
D03*
X525026Y567954D02*
D03*
X473074Y454146D02*
D03*
X473726Y452254D02*
D03*
X371640Y617853D02*
D03*
X372291Y615962D02*
D03*
X373640Y618553D02*
D03*
X374291Y616662D02*
D03*
D41*
X528158Y571240D02*
D03*
X528842Y569360D02*
D03*
D42*
X511116Y603088D02*
D03*
X509884Y601512D02*
D03*
D43*
X505812Y602459D02*
D03*
X507388Y601228D02*
D03*
X504612Y600959D02*
D03*
X506188Y599728D02*
D03*
X507012Y603959D02*
D03*
X508588Y602728D02*
D03*
X510188Y599028D02*
D03*
X508612Y600259D02*
D03*
X508988Y597528D02*
D03*
X507412Y598759D02*
D03*
D44*
X518317Y498178D02*
D03*
X520049Y497178D02*
D03*
X517248Y496360D02*
D03*
X518981Y495359D02*
D03*
D45*
X529140Y502458D02*
D03*
X527260Y503142D02*
D03*
X473240Y617558D02*
D03*
X471360Y618242D02*
D03*
X473940Y619458D02*
D03*
X472060Y620142D02*
D03*
D46*
X524974Y502054D02*
D03*
X525626Y503946D02*
D03*
X523074Y502754D02*
D03*
X523726Y504646D02*
D03*
X528726Y506646D02*
D03*
X528074Y504754D02*
D03*
X526826Y507346D02*
D03*
X526174Y505454D02*
D03*
X524926Y508046D02*
D03*
X524274Y506155D02*
D03*
X371543Y458137D02*
D03*
X372195Y460028D02*
D03*
X369493Y458862D02*
D03*
X370145Y460753D02*
D03*
X473526Y623646D02*
D03*
X472874Y621754D02*
D03*
D47*
X510257Y474666D02*
D03*
X511543Y473134D02*
D03*
D48*
X508934Y475857D02*
D03*
X510466Y477143D02*
D03*
X507634Y477357D02*
D03*
X509166Y478643D02*
D03*
X508966Y473343D02*
D03*
X507434Y472057D02*
D03*
X507666Y474843D02*
D03*
X506134Y473557D02*
D03*
X506366Y476343D02*
D03*
X504834Y475057D02*
D03*
D49*
X484550Y450471D02*
D03*
X483800Y452326D02*
D03*
X373375Y609173D02*
D03*
X372625Y611027D02*
D03*
D50*
X486566Y451278D02*
D03*
X485784Y453119D02*
D03*
D51*
X485538Y457001D02*
D03*
X484662Y458799D02*
D03*
D52*
X482201Y459662D02*
D03*
X483999Y460538D02*
D03*
X481301Y461462D02*
D03*
X483099Y462338D02*
D03*
X488099Y460338D02*
D03*
X486301Y459462D02*
D03*
X487199Y462138D02*
D03*
X485401Y461262D02*
D03*
X486299Y463938D02*
D03*
X484501Y463062D02*
D03*
D53*
X445852Y446701D02*
D03*
X445748Y448699D02*
D03*
D54*
X443901Y450448D02*
D03*
X445899Y450552D02*
D03*
X443801Y452448D02*
D03*
X445799Y452552D02*
D03*
X449599Y448752D02*
D03*
X447601Y448648D02*
D03*
X449499Y450752D02*
D03*
X447501Y450648D02*
D03*
X449399Y452752D02*
D03*
X447401Y452648D02*
D03*
D55*
X434305Y448995D02*
D03*
X434095Y447005D02*
D03*
D56*
X434205Y450805D02*
D03*
X436195Y450595D02*
D03*
X434405Y452705D02*
D03*
X436395Y452495D02*
D03*
X432495Y448895D02*
D03*
X430505Y449105D02*
D03*
X432695Y450895D02*
D03*
X430705Y451105D02*
D03*
X432895Y452895D02*
D03*
X430905Y453105D02*
D03*
D57*
X336125Y492926D02*
D03*
X334448Y491836D02*
D03*
X334967Y494683D02*
D03*
X333289Y493593D02*
D03*
D58*
X341748Y484461D02*
D03*
X340110Y485609D02*
D03*
X340648Y482861D02*
D03*
X339010Y484009D02*
D03*
X337110Y487709D02*
D03*
X338748Y486561D02*
D03*
X336010Y486109D02*
D03*
X337648Y484961D02*
D03*
X339548Y481261D02*
D03*
X337910Y482409D02*
D03*
D59*
X335197Y481922D02*
D03*
X336373Y483540D02*
D03*
D60*
X318962Y509315D02*
D03*
X317049Y508731D02*
D03*
D61*
X318203Y510958D02*
D03*
X317585Y512861D02*
D03*
X320685Y509961D02*
D03*
X321303Y508058D02*
D03*
X320103Y511558D02*
D03*
X319485Y513461D02*
D03*
X322003Y512158D02*
D03*
X321385Y514061D02*
D03*
X322585Y510561D02*
D03*
X323203Y508658D02*
D03*
D62*
X524400Y519500D02*
D03*
Y516960D02*
D03*
Y522040D02*
D03*
D63*
X532715Y519500D02*
D03*
D64*
X518500Y515500D02*
D03*
Y521100D02*
D03*
X519200Y526500D02*
D03*
Y532100D02*
D03*
X524500Y550450D02*
D03*
Y556050D02*
D03*
D65*
X505800Y527100D02*
D03*
X514000D02*
D03*
D66*
X511350Y538800D02*
D03*
D67*
X509445Y536020D02*
D03*
X510715D02*
D03*
X511985D02*
D03*
X513255D02*
D03*
Y541580D02*
D03*
X511985D02*
D03*
X510715D02*
D03*
X509445D02*
D03*
D68*
X516750Y555200D02*
D03*
Y556800D02*
D03*
D69*
X526400Y546750D02*
D03*
X530600D02*
D03*
D70*
X327400Y512700D02*
D03*
D71*
X342100Y490600D02*
D03*
D72*
X367100Y478300D02*
D03*
D73*
X377550Y474900D02*
D03*
D74*
X356556Y487480D02*
D03*
X357119Y487155D02*
D03*
X357681Y486830D02*
D03*
X358244Y486505D02*
D03*
X355756Y486095D02*
D03*
X356319Y485770D02*
D03*
X356881Y485445D02*
D03*
X357444Y485120D02*
D03*
D75*
X389325Y476300D02*
D03*
X389975D02*
D03*
X390625D02*
D03*
X391275D02*
D03*
X389325Y474700D02*
D03*
X389975D02*
D03*
X390625D02*
D03*
X391275D02*
D03*
X422625Y465800D02*
D03*
X423275D02*
D03*
X423925D02*
D03*
X424575D02*
D03*
X422625Y464200D02*
D03*
X423275D02*
D03*
X423925D02*
D03*
X424575D02*
D03*
X455929Y464800D02*
D03*
X456579D02*
D03*
X457229D02*
D03*
X457879D02*
D03*
X455929Y463200D02*
D03*
X456579D02*
D03*
X457229D02*
D03*
X457879D02*
D03*
X457879Y611200D02*
D03*
X457229D02*
D03*
X456579D02*
D03*
X455929D02*
D03*
X457879Y612800D02*
D03*
X457229D02*
D03*
X456579D02*
D03*
X455929D02*
D03*
X424575Y610200D02*
D03*
X423925D02*
D03*
X423275D02*
D03*
X422625D02*
D03*
X424575Y611800D02*
D03*
X423925D02*
D03*
X423275D02*
D03*
X422625D02*
D03*
X391275Y599700D02*
D03*
X390625D02*
D03*
X389975D02*
D03*
X389325D02*
D03*
X391275Y601300D02*
D03*
X390625D02*
D03*
X389975D02*
D03*
X389325D02*
D03*
D76*
X489056Y476205D02*
D03*
X489619Y476530D02*
D03*
X490181Y476855D02*
D03*
X490744Y477180D02*
D03*
X489856Y474820D02*
D03*
X490419Y475145D02*
D03*
X490981Y475470D02*
D03*
X491544Y475795D02*
D03*
D77*
X400600Y467600D02*
D03*
D78*
X411200Y465200D02*
D03*
D79*
X434600Y457900D02*
D03*
D80*
X445700Y457800D02*
D03*
D81*
X469400Y462400D02*
D03*
X519100Y569300D02*
D03*
D82*
X481100Y467200D02*
D03*
D83*
X504000Y481100D02*
D03*
D84*
X519000Y506700D02*
D03*
X469300Y613500D02*
D03*
D85*
X504000Y594900D02*
D03*
D86*
X490424Y598745D02*
D03*
X489964Y599205D02*
D03*
X489505Y599664D02*
D03*
X489045Y600124D02*
D03*
X491555Y599876D02*
D03*
X491095Y600336D02*
D03*
X490636Y600795D02*
D03*
X490176Y601255D02*
D03*
D87*
X481100Y608800D02*
D03*
D88*
X445900Y618200D02*
D03*
D89*
X434600Y618100D02*
D03*
D90*
X411200Y610700D02*
D03*
X367000Y597600D02*
D03*
D91*
X400600Y608400D02*
D03*
D92*
X377300Y601100D02*
D03*
D93*
X358255Y589824D02*
D03*
X357796Y589364D02*
D03*
X357336Y588904D02*
D03*
X356876Y588445D02*
D03*
X357124Y590955D02*
D03*
X356664Y590495D02*
D03*
X356204Y590036D02*
D03*
X355745Y589576D02*
D03*
D94*
X342100Y585400D02*
D03*
D95*
X327400Y563300D02*
D03*
D96*
X364621Y473607D02*
D03*
X362689Y474125D02*
D03*
X366189Y473225D02*
D03*
X368121Y472707D02*
D03*
X364066Y471641D02*
D03*
X362134Y472159D02*
D03*
X365634Y471259D02*
D03*
X367566Y470741D02*
D03*
X363566Y469741D02*
D03*
X361634Y470259D02*
D03*
D97*
X365359Y469466D02*
D03*
X364841Y467534D02*
D03*
D98*
X378527Y468925D02*
D03*
X376673Y469675D02*
D03*
X373273Y471075D02*
D03*
X375127Y470325D02*
D03*
X377727Y467025D02*
D03*
X375873Y467775D02*
D03*
X372473Y469175D02*
D03*
X374327Y468425D02*
D03*
X376927Y465125D02*
D03*
X375073Y465875D02*
D03*
D99*
X372725Y464973D02*
D03*
X373475Y466827D02*
D03*
D100*
X398382Y462709D02*
D03*
X396418Y463091D02*
D03*
X397982Y460709D02*
D03*
X396018Y461091D02*
D03*
X397582Y458709D02*
D03*
X395618Y459091D02*
D03*
X399918Y462391D02*
D03*
X401882Y462009D02*
D03*
X399518Y460491D02*
D03*
X401482Y460109D02*
D03*
D101*
X399391Y458682D02*
D03*
X399009Y456718D02*
D03*
X407094Y448493D02*
D03*
X407475Y450457D02*
D03*
X405019Y448893D02*
D03*
X405400Y450857D02*
D03*
D102*
X412856Y459308D02*
D03*
X410944Y459892D02*
D03*
X412256Y457408D02*
D03*
X410344Y457992D02*
D03*
X411656Y455508D02*
D03*
X409744Y456092D02*
D03*
D103*
X407539Y460876D02*
D03*
X409461Y460324D02*
D03*
X406839Y458976D02*
D03*
X408761Y458424D02*
D03*
D104*
X407524Y454839D02*
D03*
X408076Y456761D02*
D03*
D105*
X484501Y612938D02*
D03*
X486299Y612062D02*
D03*
X485401Y614738D02*
D03*
X487199Y613862D02*
D03*
X486301Y616538D02*
D03*
X488099Y615662D02*
D03*
X483199Y613562D02*
D03*
X481401Y614438D02*
D03*
X484099Y615362D02*
D03*
X482301Y616238D02*
D03*
D106*
X484562Y617101D02*
D03*
X485438Y618899D02*
D03*
D107*
X467954Y619426D02*
D03*
X469846Y618774D02*
D03*
X468654Y621326D02*
D03*
X470546Y620674D02*
D03*
X469354Y623226D02*
D03*
X471246Y622574D02*
D03*
D108*
X486666Y624021D02*
D03*
X485884Y622180D02*
D03*
X488616Y623171D02*
D03*
X487834Y621329D02*
D03*
D109*
X430805Y622895D02*
D03*
X432795Y623105D02*
D03*
X430605Y624895D02*
D03*
X432595Y625105D02*
D03*
X430405Y626895D02*
D03*
X432395Y627105D02*
D03*
X436395Y623505D02*
D03*
X434405Y623295D02*
D03*
X436195Y625505D02*
D03*
X434205Y625295D02*
D03*
D110*
X433995Y629095D02*
D03*
X434204Y627105D02*
D03*
D111*
X447401Y623352D02*
D03*
X449399Y623248D02*
D03*
X447501Y625352D02*
D03*
X449499Y625248D02*
D03*
X447601Y627352D02*
D03*
X449599Y627248D02*
D03*
X445799Y623448D02*
D03*
X443801Y623552D02*
D03*
X445899Y625448D02*
D03*
X443901Y625552D02*
D03*
D112*
X445748Y627201D02*
D03*
X445852Y629199D02*
D03*
D113*
X410939Y616024D02*
D03*
X412861Y616576D02*
D03*
X410439Y617924D02*
D03*
X412361Y618476D02*
D03*
X409939Y619824D02*
D03*
X411861Y620376D02*
D03*
X409361Y615576D02*
D03*
X407439Y615024D02*
D03*
X408861Y617476D02*
D03*
X406939Y616924D02*
D03*
X362339Y601724D02*
D03*
X364261Y602276D02*
D03*
X361739Y603624D02*
D03*
X363661Y604176D02*
D03*
X361139Y605524D02*
D03*
X363061Y606076D02*
D03*
X367661Y603276D02*
D03*
X365739Y602724D02*
D03*
X367061Y605176D02*
D03*
X365139Y604624D02*
D03*
D114*
X408276Y619139D02*
D03*
X407724Y621061D02*
D03*
X364324Y608261D02*
D03*
X364876Y606339D02*
D03*
D115*
X396322Y612792D02*
D03*
X398278Y613208D02*
D03*
X395922Y614792D02*
D03*
X397878Y615208D02*
D03*
X395522Y616692D02*
D03*
X397478Y617108D02*
D03*
X401778Y613908D02*
D03*
X399822Y613492D02*
D03*
X401378Y615908D02*
D03*
X399422Y615492D02*
D03*
D116*
X398892Y619278D02*
D03*
X399308Y617322D02*
D03*
D117*
X407478Y627942D02*
D03*
X407927Y625993D02*
D03*
X409570Y628379D02*
D03*
X410020Y626430D02*
D03*
D118*
X376373Y606325D02*
D03*
X378227Y607075D02*
D03*
X375673Y608125D02*
D03*
X377527Y608875D02*
D03*
X374973Y609925D02*
D03*
X376827Y610675D02*
D03*
X374927Y605775D02*
D03*
X373073Y605025D02*
D03*
X374227Y607575D02*
D03*
X372373Y606825D02*
D03*
D119*
X336574Y592381D02*
D03*
X335426Y594019D02*
D03*
D120*
X321491Y561849D02*
D03*
X322109Y563751D02*
D03*
X319591Y562449D02*
D03*
X320209Y564351D02*
D03*
X317691Y563049D02*
D03*
X318309Y564951D02*
D03*
X323209Y567151D02*
D03*
X322591Y565249D02*
D03*
X321309Y567751D02*
D03*
X320691Y565849D02*
D03*
D121*
X317249Y567209D02*
D03*
X319151Y566591D02*
D03*
D122*
X328309Y572312D02*
D03*
X326691Y573488D02*
D03*
X327009Y570612D02*
D03*
X325391Y571788D02*
D03*
D123*
X334730Y499293D02*
D03*
X334376Y499838D02*
D03*
X328524Y495262D02*
D03*
X328170Y495807D02*
D03*
X334022Y500383D02*
D03*
X333668Y500928D02*
D03*
X333314Y501473D02*
D03*
X335792Y497657D02*
D03*
X335438Y498202D02*
D03*
X335084Y498747D02*
D03*
X327816Y496353D02*
D03*
X327462Y496898D02*
D03*
X327108Y497443D02*
D03*
X329586Y493627D02*
D03*
X329232Y494172D02*
D03*
X328878Y494717D02*
D03*
D124*
X438325Y437550D02*
D03*
X438975D02*
D03*
X438325Y444950D02*
D03*
X438975D02*
D03*
X439625Y437550D02*
D03*
X440275D02*
D03*
X440925D02*
D03*
X436375D02*
D03*
X437025D02*
D03*
X437675D02*
D03*
X439625Y444950D02*
D03*
X440275D02*
D03*
X440925D02*
D03*
X436375D02*
D03*
X437025D02*
D03*
X437675D02*
D03*
X441575Y637425D02*
D03*
X440925D02*
D03*
X441575Y630025D02*
D03*
X440925D02*
D03*
X440275Y637425D02*
D03*
X439625Y637425D02*
D03*
X438975Y637425D02*
D03*
X443525Y637425D02*
D03*
X442875D02*
D03*
X442225Y637425D02*
D03*
X440275Y630025D02*
D03*
X439625D02*
D03*
X438975Y630025D02*
D03*
X443525Y630025D02*
D03*
X442875Y630025D02*
D03*
X442225Y630025D02*
D03*
D125*
X364238Y457832D02*
D03*
X364853Y457621D02*
D03*
X366647Y464829D02*
D03*
X367262Y464618D02*
D03*
X365467Y457409D02*
D03*
X366082Y457198D02*
D03*
X366696Y456986D02*
D03*
X362394Y458467D02*
D03*
X363009Y458256D02*
D03*
X363624Y458044D02*
D03*
X367876Y464406D02*
D03*
X368491Y464194D02*
D03*
X369106Y463983D02*
D03*
X364804Y465464D02*
D03*
X365418Y465252D02*
D03*
X366033Y465041D02*
D03*
D126*
X481297Y446392D02*
D03*
X481895Y446646D02*
D03*
X478405Y453204D02*
D03*
X479003Y453458D02*
D03*
X482493Y446900D02*
D03*
X483092Y447154D02*
D03*
X483690Y447408D02*
D03*
X479502Y445630D02*
D03*
X480100Y445884D02*
D03*
X480698Y446138D02*
D03*
X479602Y453712D02*
D03*
X480200Y453966D02*
D03*
X480798Y454220D02*
D03*
X476610Y452442D02*
D03*
X477208Y452696D02*
D03*
X477807Y452950D02*
D03*
D127*
X512808Y494281D02*
D03*
X512483Y493719D02*
D03*
X519217Y490581D02*
D03*
X518892Y490019D02*
D03*
X512158Y493156D02*
D03*
X511833Y492593D02*
D03*
X511508Y492030D02*
D03*
X513783Y495970D02*
D03*
X513458Y495407D02*
D03*
X513133Y494844D02*
D03*
X518567Y489456D02*
D03*
X518242Y488893D02*
D03*
X517917Y488330D02*
D03*
X520192Y492270D02*
D03*
X519867Y491707D02*
D03*
X519542Y491144D02*
D03*
D128*
X510933Y583844D02*
D03*
X511306Y583312D02*
D03*
X516994Y588088D02*
D03*
X517367Y587556D02*
D03*
X511678Y582779D02*
D03*
X512051Y582247D02*
D03*
X512424Y581714D02*
D03*
X509814Y585441D02*
D03*
X510187Y584909D02*
D03*
X510560Y584376D02*
D03*
X517740Y587024D02*
D03*
X518113Y586491D02*
D03*
X518486Y585959D02*
D03*
X515876Y589686D02*
D03*
X516249Y589153D02*
D03*
X516622Y588621D02*
D03*
D129*
X402984Y629678D02*
D03*
X402351Y629532D02*
D03*
X404649Y622468D02*
D03*
X404016Y622322D02*
D03*
X401718Y629386D02*
D03*
X401084Y629240D02*
D03*
X400451Y629093D02*
D03*
X404884Y630117D02*
D03*
X404251Y629971D02*
D03*
X403618Y629824D02*
D03*
X403382Y622175D02*
D03*
X402749Y622029D02*
D03*
X402116Y621883D02*
D03*
X406549Y622907D02*
D03*
X405916Y622760D02*
D03*
X405282Y622614D02*
D03*
D130*
X484095Y628204D02*
D03*
X483497Y628458D02*
D03*
X481203Y621392D02*
D03*
X480605Y621646D02*
D03*
X482898Y628712D02*
D03*
X482300Y628966D02*
D03*
X481702Y629220D02*
D03*
X485890Y627442D02*
D03*
X485292Y627696D02*
D03*
X484693Y627950D02*
D03*
X480007Y621900D02*
D03*
X479408Y622154D02*
D03*
X478810Y622408D02*
D03*
X482998Y620630D02*
D03*
X482400Y620884D02*
D03*
X481802Y621138D02*
D03*
D131*
X367003Y619054D02*
D03*
X366388Y618843D02*
D03*
X369412Y612057D02*
D03*
X368797Y611846D02*
D03*
X365773Y618631D02*
D03*
X365159Y618419D02*
D03*
X364544Y618208D02*
D03*
X368846Y619689D02*
D03*
X368232Y619477D02*
D03*
X367617Y619266D02*
D03*
X368183Y611634D02*
D03*
X367568Y611423D02*
D03*
X366954Y611211D02*
D03*
X371256Y612692D02*
D03*
X370641Y612481D02*
D03*
X370026Y612269D02*
D03*
D132*
X331969Y574637D02*
D03*
X332342Y575169D02*
D03*
X325908Y578881D02*
D03*
X326281Y579413D02*
D03*
X332715Y575701D02*
D03*
X333088Y576234D02*
D03*
X333461Y576766D02*
D03*
X330851Y573039D02*
D03*
X331224Y573572D02*
D03*
X331597Y574104D02*
D03*
X326653Y579946D02*
D03*
X327026Y580478D02*
D03*
X327399Y581011D02*
D03*
X324789Y577284D02*
D03*
X325162Y577816D02*
D03*
X325535Y578349D02*
D03*
D133*
X399850Y447080D02*
D03*
X400488Y446956D02*
D03*
X401262Y454344D02*
D03*
X401900Y454220D02*
D03*
X401126Y446832D02*
D03*
X401764Y446708D02*
D03*
X402402Y446584D02*
D03*
X397936Y447452D02*
D03*
X398574Y447328D02*
D03*
X399212Y447204D02*
D03*
X402538Y454096D02*
D03*
X403176Y453972D02*
D03*
X403814Y453848D02*
D03*
X399348Y454716D02*
D03*
X399986Y454592D02*
D03*
X400624Y454468D02*
D03*
D134*
X340360Y558100D02*
D03*
X337820D02*
D03*
X345440D02*
D03*
X309200Y524040D02*
D03*
Y526580D02*
D03*
Y518960D02*
D03*
Y516420D02*
D03*
X300185Y529965D02*
D03*
X302638Y530622D02*
D03*
X304843Y512578D02*
D03*
X309750Y513893D02*
D03*
X305092Y531279D02*
D03*
X307297Y513235D02*
D03*
X329552Y519199D02*
D03*
X332005Y519856D02*
D03*
X334459Y520513D02*
D03*
X324893Y536585D02*
D03*
X327347Y537243D02*
D03*
D135*
X335280Y558100D02*
D03*
D136*
X342900D02*
D03*
X309200Y521500D02*
D03*
D137*
Y529120D02*
D03*
D138*
X326700Y523800D02*
D03*
X328224Y534145D02*
D03*
D139*
X329153Y524457D02*
D03*
X325771Y533487D02*
D03*
D140*
X337300Y542600D02*
D03*
X472500Y634500D02*
D03*
Y629750D02*
D03*
X355500Y456300D02*
D03*
X358800Y459200D02*
D03*
X393700Y448500D02*
D03*
X391455Y445083D02*
D03*
X431600Y432500D02*
D03*
Y437100D02*
D03*
X473750Y445250D02*
D03*
Y440750D02*
D03*
X514500Y485750D02*
D03*
X512500Y483750D02*
D03*
X506250Y584500D02*
D03*
X510500Y578750D02*
D03*
X326400Y501000D02*
D03*
X329600Y502200D02*
D03*
X525400Y512400D02*
D03*
X432800Y633300D02*
D03*
X435600Y635300D02*
D03*
X398200Y629300D02*
D03*
X403300Y632400D02*
D03*
X331800Y581300D02*
D03*
X334100Y579900D02*
D03*
X363400Y612300D02*
D03*
X362858Y615142D02*
D03*
D141*
X299900Y540271D02*
D03*
Y552310D02*
D03*
D142*
X302610Y547541D02*
D03*
X304610D02*
D03*
Y545041D02*
D03*
X302610Y545041D02*
D03*
D143*
X329800Y537900D02*
D03*
D144*
X302461Y490083D02*
D03*
X342461Y458083D02*
D03*
X380461Y445083D02*
D03*
X416461Y438083D02*
D03*
X458461Y441083D02*
D03*
X498461Y458083D02*
D03*
X528461Y484083D02*
D03*
Y596083D02*
D03*
X498461Y622083D02*
D03*
X458461Y639083D02*
D03*
X416461Y642083D02*
D03*
X380461Y635083D02*
D03*
X342461Y622083D02*
D03*
X302461Y585083D02*
D03*
D145*
X534000Y552300D02*
D03*
D146*
Y557300D02*
D03*
M02*
