G04*
G04 #@! TF.GenerationSoftware,Altium Limited,Altium Designer,22.7.1 (60)*
G04*
G04 Layer_Physical_Order=4*
G04 Layer_Color=16711680*
%FSLAX43Y43*%
%MOMM*%
G71*
G04*
G04 #@! TF.SameCoordinates,26706279-76B3-4EFB-AC1E-C542CE9A8173*
G04*
G04*
G04 #@! TF.FilePolarity,Positive*
G04*
G01*
G75*
%ADD11C,0.250*%
%ADD12C,0.400*%
%ADD134C,1.500*%
%ADD138C,1.300*%
%ADD142C,1.400*%
%ADD147C,0.300*%
%ADD148C,0.350*%
%ADD153C,0.300*%
%ADD160R,1.400X1.050*%
%ADD165R,1.000X1.400*%
%ADD171R,1.050X1.400*%
G04:AMPARAMS|DCode=182|XSize=1mm|YSize=1.4mm|CornerRadius=0mm|HoleSize=0mm|Usage=FLASHONLY|Rotation=330.000|XOffset=0mm|YOffset=0mm|HoleType=Round|Shape=Rectangle|*
%AMROTATEDRECTD182*
4,1,4,-0.783,-0.356,-0.083,0.856,0.783,0.356,0.083,-0.856,-0.783,-0.356,0.0*
%
%ADD182ROTATEDRECTD182*%

%ADD202R,5.400X2.000*%
%ADD272C,0.500*%
%ADD275R,1.400X1.400*%
%ADD276R,1.400X1.400*%
%ADD277C,1.200*%
%ADD278P,1.697X4X240.0*%
%ADD279C,3.000*%
%ADD280P,1.980X4X240.0*%
%ADD281C,5.500*%
%ADD282R,1.700X1.700*%
%ADD283C,1.700*%
%ADD284C,0.700*%
G04:AMPARAMS|DCode=285|XSize=1.4mm|YSize=1.05mm|CornerRadius=0mm|HoleSize=0mm|Usage=FLASHONLY|Rotation=135.000|XOffset=0mm|YOffset=0mm|HoleType=Round|Shape=Rectangle|*
%AMROTATEDRECTD285*
4,1,4,0.866,-0.124,0.124,-0.866,-0.866,0.124,-0.124,0.866,0.866,-0.124,0.0*
%
%ADD285ROTATEDRECTD285*%

G04:AMPARAMS|DCode=286|XSize=1.4mm|YSize=1.05mm|CornerRadius=0mm|HoleSize=0mm|Usage=FLASHONLY|Rotation=45.000|XOffset=0mm|YOffset=0mm|HoleType=Round|Shape=Rectangle|*
%AMROTATEDRECTD286*
4,1,4,-0.124,-0.866,-0.866,-0.124,0.124,0.866,0.866,0.124,-0.124,-0.866,0.0*
%
%ADD286ROTATEDRECTD286*%

G04:AMPARAMS|DCode=287|XSize=1mm|YSize=1.4mm|CornerRadius=0mm|HoleSize=0mm|Usage=FLASHONLY|Rotation=45.000|XOffset=0mm|YOffset=0mm|HoleType=Round|Shape=Rectangle|*
%AMROTATEDRECTD287*
4,1,4,0.141,-0.849,-0.849,0.141,-0.141,0.849,0.849,-0.141,0.141,-0.849,0.0*
%
%ADD287ROTATEDRECTD287*%

G04:AMPARAMS|DCode=288|XSize=1mm|YSize=1.4mm|CornerRadius=0mm|HoleSize=0mm|Usage=FLASHONLY|Rotation=315.000|XOffset=0mm|YOffset=0mm|HoleType=Round|Shape=Rectangle|*
%AMROTATEDRECTD288*
4,1,4,-0.849,-0.141,0.141,0.849,0.849,0.141,-0.141,-0.849,-0.849,-0.141,0.0*
%
%ADD288ROTATEDRECTD288*%

G04:AMPARAMS|DCode=289|XSize=1mm|YSize=1.4mm|CornerRadius=0mm|HoleSize=0mm|Usage=FLASHONLY|Rotation=210.000|XOffset=0mm|YOffset=0mm|HoleType=Round|Shape=Rectangle|*
%AMROTATEDRECTD289*
4,1,4,0.083,0.856,0.783,-0.356,-0.083,-0.856,-0.783,0.356,0.083,0.856,0.0*
%
%ADD289ROTATEDRECTD289*%

G36*
X345549Y542800D02*
Y541754D01*
X342927D01*
Y540500D01*
Y539246D01*
X345549D01*
Y539000D01*
X339500Y539000D01*
Y542800D01*
X345549Y542800D01*
D02*
G37*
%LPC*%
G36*
X342673Y541754D02*
X339846D01*
Y540627D01*
X342673D01*
Y541754D01*
D02*
G37*
G36*
Y540373D02*
X339846D01*
Y539246D01*
X342673D01*
Y540373D01*
D02*
G37*
%LPD*%
D11*
X361844Y578944D02*
G03*
X361100Y577148I1796J-1796D01*
G01*
X380127Y596175D02*
G03*
X378331Y595431I0J-2540D01*
G01*
X360358Y543983D02*
G03*
X361100Y545775I-1792J1792D01*
G01*
X354673Y539350D02*
G03*
X356469Y540094I0J2540D01*
G01*
X410286Y596175D02*
G03*
X412082Y596919I0J2540D01*
G01*
X352900Y539350D02*
X354673D01*
X361844Y578944D02*
X378331Y595431D01*
X356469Y540094D02*
X360358Y543983D01*
X361100Y545775D02*
Y577148D01*
X380127Y596175D02*
X410286D01*
X412082Y596919D02*
X423918Y608755D01*
D12*
X448725Y598375D02*
G03*
X448554Y598446I-171J-171D01*
G01*
X417029Y597771D02*
G03*
X417200Y597700I171J171D01*
G01*
X379700Y481400D02*
X379750Y481350D01*
X380646Y482246D01*
X352800Y481100D02*
X353634Y482400D01*
X355400Y581800D02*
X356775D01*
X450254Y475254D02*
X451200Y476200D01*
X478000Y477600D02*
Y478875D01*
X352925Y498000D02*
X354300D01*
X482400Y596525D02*
Y597900D01*
X448725Y598375D02*
X449500Y597600D01*
X416254Y598546D02*
X417029Y597771D01*
X491109Y472850D02*
X492209Y471050D01*
X353634Y482400D02*
X354734Y484200D01*
X355300Y485400D01*
X417854Y475354D02*
X418700Y476200D01*
D134*
X337300Y542600D02*
D03*
X472500Y634500D02*
D03*
Y629750D02*
D03*
X355500Y456300D02*
D03*
X358800Y459200D02*
D03*
X393700Y448500D02*
D03*
X391455Y445083D02*
D03*
X431600Y432500D02*
D03*
Y437100D02*
D03*
X473750Y445250D02*
D03*
Y440750D02*
D03*
X514500Y485750D02*
D03*
X512500Y483750D02*
D03*
X506250Y584500D02*
D03*
X510500Y578750D02*
D03*
X326400Y501000D02*
D03*
X329600Y502200D02*
D03*
X525400Y512400D02*
D03*
X432800Y633300D02*
D03*
X435600Y635300D02*
D03*
X398200Y629300D02*
D03*
X403300Y632400D02*
D03*
X331800Y581300D02*
D03*
X334100Y579900D02*
D03*
X363400Y612300D02*
D03*
X362858Y615142D02*
D03*
X524800Y515200D02*
D03*
X523100Y511700D02*
D03*
X521200Y512000D02*
D03*
X524000Y513700D02*
D03*
X522900Y515100D02*
D03*
X522100Y513400D02*
D03*
X520200D02*
D03*
X518400D02*
D03*
X516500D02*
D03*
X514600Y517000D02*
D03*
Y515200D02*
D03*
Y513400D02*
D03*
D138*
X302610Y547541D02*
D03*
X304610D02*
D03*
Y545041D02*
D03*
X302610Y545041D02*
D03*
D142*
X340360Y558100D02*
D03*
X337820D02*
D03*
X342900D02*
D03*
X345440D02*
D03*
X309200Y524040D02*
D03*
Y526580D02*
D03*
Y521500D02*
D03*
Y518960D02*
D03*
Y516420D02*
D03*
X300185Y529965D02*
D03*
X302638Y530622D02*
D03*
X304843Y512578D02*
D03*
X309750Y513893D02*
D03*
X305092Y531279D02*
D03*
X307297Y513235D02*
D03*
X329552Y519199D02*
D03*
X332005Y519856D02*
D03*
X334459Y520513D02*
D03*
X324893Y536585D02*
D03*
X327347Y537243D02*
D03*
D147*
X354825Y516321D02*
G03*
X355494Y514706I2284J0D01*
G01*
X353700Y516585D02*
G03*
X354361Y514989I2257J0D01*
G01*
X352825Y516560D02*
G03*
X353486Y514964I2257J0D01*
G01*
X349400Y496378D02*
G03*
X349844Y495306I1516J0D01*
G01*
X348000Y496596D02*
G03*
X348227Y496048I775J0D01*
G01*
X358313Y589013D02*
G03*
X357800Y587775I1238J-1238D01*
G01*
X349844Y579819D02*
G03*
X349100Y578023I1796J-1796D01*
G01*
Y537925D02*
G03*
X349507Y536943I1388J0D01*
G01*
X407868Y610216D02*
G03*
X406072Y609472I0J-2540D01*
G01*
X395248Y599700D02*
G03*
X397044Y600444I0J2540D01*
G01*
X407850Y609298D02*
G03*
X406054Y608554I0J-2540D01*
G01*
X395346Y598898D02*
G03*
X397142Y599642I0J2540D01*
G01*
X348894Y580544D02*
G03*
X348150Y578748I1796J-1796D01*
G01*
X347919Y582144D02*
G03*
X347175Y580348I1796J-1796D01*
G01*
X416425Y598475D02*
G03*
X416254Y598546I-171J-171D01*
G01*
X379352Y597025D02*
G03*
X377556Y596281I0J-2540D01*
G01*
X356569Y616019D02*
G03*
X355825Y614223I1796J-1796D01*
G01*
X358244Y615169D02*
G03*
X357500Y613373I1796J-1796D01*
G01*
X403502Y638000D02*
G03*
X401706Y637256I0J-2540D01*
G01*
X403977Y636475D02*
G03*
X402181Y635731I0J-2540D01*
G01*
X360669Y579394D02*
G03*
X359925Y577598I1796J-1796D01*
G01*
X355173Y538425D02*
G03*
X356969Y539169I0J2540D01*
G01*
X361381Y543581D02*
G03*
X362125Y545377I-1796J1796D01*
G01*
X353898Y540125D02*
G03*
X355694Y540869I0J2540D01*
G01*
X359181Y544356D02*
G03*
X359925Y546152I-1796J1796D01*
G01*
X362869Y578744D02*
G03*
X362125Y576948I1796J-1796D01*
G01*
X380702Y595525D02*
G03*
X378906Y594781I0J-2540D01*
G01*
X355623Y537475D02*
G03*
X357419Y538219I0J2540D01*
G01*
X362581Y543381D02*
G03*
X363325Y545177I-1796J1796D01*
G01*
X364069Y578569D02*
G03*
X363325Y576773I1796J-1796D01*
G01*
X381252Y594700D02*
G03*
X379456Y593956I0J-2540D01*
G01*
X484398Y594700D02*
G03*
X486194Y595444I0J2540D01*
G01*
X388631Y479819D02*
G03*
X390427Y479075I1796J1796D01*
G01*
X388806Y480544D02*
G03*
X390602Y479800I1796J1796D01*
G01*
X486621Y479956D02*
G03*
X484825Y480700I-1796J-1796D01*
G01*
X388756Y481444D02*
G03*
X390552Y480700I1796J1796D01*
G01*
X404805Y612078D02*
G03*
X403009Y611334I0J-2540D01*
G01*
X358900Y588325D02*
G03*
X358600Y587601I724J-724D01*
G01*
X357856Y544431D02*
G03*
X358600Y546227I-1796J1796D01*
G01*
X453177Y612078D02*
G03*
X454422Y612594I0J1761D01*
G01*
X392418Y601578D02*
G03*
X393844Y602169I0J2017D01*
G01*
X368405Y601578D02*
G03*
X366609Y600834I0J-2540D01*
G01*
X369093Y599700D02*
G03*
X367312Y598963I0J-2518D01*
G01*
X479491Y612334D02*
G03*
X477695Y613078I-1796J-1796D01*
G01*
X478153Y610472D02*
G03*
X476357Y611216I-1796J-1796D01*
G01*
X452890Y610216D02*
G03*
X454686Y610960I0J2540D01*
G01*
X369250Y598898D02*
G03*
X367454Y598154I0J-2540D01*
G01*
X441940Y595525D02*
G03*
X443736Y596269I0J2540D01*
G01*
X423438Y609550D02*
G03*
X422829Y609298I0J-860D01*
G01*
X477744Y609831D02*
G03*
X475948Y610575I-1796J-1796D01*
G01*
X456656D02*
G03*
X456108Y610348I0J-775D01*
G01*
X454258Y609550D02*
G03*
X456054Y610294I0J2540D01*
G01*
X357194Y535906D02*
G03*
X355398Y536650I-1796J-1796D01*
G01*
X349600Y536850D02*
G03*
X350083Y536650I483J483D01*
G01*
X355819Y535306D02*
G03*
X354023Y536050I-1796J-1796D01*
G01*
X348834Y536616D02*
G03*
X350200Y536050I1366J1366D01*
G01*
X356581Y532769D02*
G03*
X358377Y532025I1796J1796D01*
G01*
X354669Y534681D02*
G03*
X352873Y535425I-1796J-1796D01*
G01*
X348248Y535902D02*
G03*
X349400Y535425I1152J1152D01*
G01*
X367118Y475441D02*
G03*
X368914Y474697I1796J1796D01*
G01*
X402054Y464941D02*
G03*
X403850Y464197I1796J1796D01*
G01*
X425879Y463916D02*
G03*
X427675Y463172I1796J1796D01*
G01*
X477295D02*
G03*
X479091Y463916I0J2540D01*
G01*
X368083Y477053D02*
G03*
X369879Y476309I1796J1796D01*
G01*
X425797Y465553D02*
G03*
X427593Y464809I1796J1796D01*
G01*
X351975Y514602D02*
G03*
X352719Y512806I2540J0D01*
G01*
X387100Y478425D02*
G03*
X388682Y477770I1582J1582D01*
G01*
X368379Y477796D02*
G03*
X370175Y477052I1796J1796D01*
G01*
X412220Y478331D02*
G03*
X410424Y479075I-1796J-1796D01*
G01*
X443849Y479056D02*
G03*
X442053Y479800I-1796J-1796D01*
G01*
X423525Y466350D02*
G03*
X424026Y466558I0J709D01*
G01*
X453350Y466000D02*
G03*
X454980Y465325I1630J1630D01*
G01*
X453350Y466000D02*
G03*
X451957Y466577I-1393J-1393D01*
G01*
X474923Y465650D02*
G03*
X476719Y466394I0J2540D01*
G01*
X457029Y465325D02*
G03*
X457108Y465358I0J111D01*
G01*
X476382Y464809D02*
G03*
X478008Y465483I0J2299D01*
G01*
X487900Y476900D02*
G03*
X486748Y476423I0J-1630D01*
G01*
X488223Y476900D02*
G03*
X490019Y477644I0J2540D01*
G01*
X356982Y484868D02*
G03*
X358191Y484367I1209J1209D01*
G01*
X347175Y537505D02*
G03*
X347550Y536600I1280J0D01*
G01*
X347175Y495727D02*
G03*
X347919Y493931I2540J0D01*
G01*
X348150Y537830D02*
G03*
X348525Y536925I1280J0D01*
G01*
X357875Y486400D02*
G03*
X358673Y486070I798J798D01*
G01*
X357550Y487600D02*
G03*
X358033Y487400I483J483D01*
G01*
X359111Y487064D02*
G03*
X358300Y487400I-811J-811D01*
G01*
X351075Y495817D02*
G03*
X351458Y494892I1308J0D01*
G01*
X411517Y476308D02*
G03*
X409721Y477052I-1796J-1796D01*
G01*
X420731Y467094D02*
G03*
X422527Y466350I1796J1796D01*
G01*
X411185Y475565D02*
G03*
X409388Y476309I-1796J-1796D01*
G01*
X420250Y466500D02*
G03*
X421940Y465800I1690J1690D01*
G01*
X490181Y476855D02*
G03*
X491076Y477226I0J1265D01*
G01*
X388847Y597025D02*
G03*
X389876Y597451I0J1455D01*
G01*
X395548Y597025D02*
G03*
X397344Y597769I0J2540D01*
G01*
X348000Y532500D02*
X348300Y532800D01*
X349400Y496378D02*
Y531999D01*
X349299Y532100D02*
X349400Y531999D01*
X345700Y536800D02*
X346200Y537300D01*
X336900Y536800D02*
X345700D01*
X334300Y539400D02*
X336900Y536800D01*
X323000Y539400D02*
X334300D01*
X321400Y537800D02*
X323000Y539400D01*
X347900Y534500D02*
X350200Y532200D01*
Y530900D02*
Y532200D01*
X346200Y537300D02*
Y552900D01*
X342900Y556200D02*
X346200Y552900D01*
X342900Y556200D02*
Y558100D01*
X351075Y495817D02*
Y534700D01*
X354825Y516321D02*
Y531900D01*
X355494Y514706D02*
X388756Y481444D01*
X354361Y514989D02*
X388806Y480544D01*
X353486Y514964D02*
X388631Y479819D01*
X349844Y495306D02*
X357550Y487600D01*
X348000Y496596D02*
Y532500D01*
X348227Y496048D02*
X357875Y486400D01*
X347200Y514810D02*
Y537480D01*
X347175Y537505D02*
X347200Y537480D01*
X347175Y514785D02*
X347200Y514810D01*
X347175Y495727D02*
Y514785D01*
X309200Y521500D02*
X309990D01*
X324893Y536403D01*
Y536585D01*
X339800Y543700D02*
Y550475D01*
X343300Y553975D01*
X345000Y546600D02*
Y551600D01*
X344200Y552400D02*
X345000Y551600D01*
X357419Y538219D02*
X362581Y543381D01*
X346300Y524900D02*
Y527100D01*
X345300Y531000D02*
Y532500D01*
X329418Y549494D02*
X331000D01*
X327906Y551006D02*
X329418Y549494D01*
X326806Y551006D02*
X327906D01*
X457108Y465358D02*
X457400Y465650D01*
X474923D01*
X349844Y579819D02*
X357800Y587775D01*
X349100Y537925D02*
Y578023D01*
X397044Y600444D02*
X406072Y609472D01*
X388175Y599700D02*
X395248D01*
X407850Y609298D02*
X422829D01*
X397142Y599642D02*
X406054Y608554D01*
X389504Y598898D02*
X395346D01*
X348894Y580544D02*
X356050Y587700D01*
X348150Y537830D02*
Y578748D01*
X354825Y589050D02*
X366609Y600834D01*
X347919Y582144D02*
X354825Y589050D01*
X347175Y537505D02*
Y580348D01*
X360669Y579394D02*
X377556Y596281D01*
X356569Y616019D02*
X365325Y624775D01*
X358244Y615169D02*
X367850Y624775D01*
X394175Y629725D02*
X401706Y637256D01*
X395175Y628725D02*
X402181Y635731D01*
X403977Y636475D02*
X410050D01*
X403502Y638000D02*
X410075D01*
X354400Y540975D02*
X357856Y544431D01*
X353625Y540125D02*
X353898D01*
X352000Y538425D02*
X355173D01*
X356969Y539169D02*
X361381Y543581D01*
X355694Y540869D02*
X359181Y544356D01*
X359925Y546152D02*
Y577598D01*
X362125Y545377D02*
Y576948D01*
X362869Y578744D02*
X378906Y594781D01*
X363325Y545177D02*
Y576773D01*
X364069Y578569D02*
X379456Y593956D01*
X381252Y594700D02*
X484398D01*
X486194Y595444D02*
X489150Y598400D01*
X350375Y537475D02*
X355623D01*
X390552Y480700D02*
X484825D01*
X358600Y546227D02*
Y587601D01*
X421602Y612078D02*
X453177D01*
X404805D02*
X421602D01*
X388302Y601578D02*
X392418D01*
X368405D02*
X388302D01*
X393844Y602169D02*
X403009Y611334D01*
X356050Y587700D02*
X367312Y598963D01*
X369093Y599700D02*
X388175D01*
X421638Y610216D02*
X452890D01*
X407868D02*
X421638D01*
X479491Y612334D02*
X489650Y602175D01*
X454906Y613078D02*
X477695D01*
X454422Y612594D02*
X454906Y613078D01*
X478153Y610472D02*
X488075Y600550D01*
X454942Y611216D02*
X476357D01*
X454686Y610960D02*
X454942Y611216D01*
X358313Y589013D02*
X367454Y598154D01*
X369250Y598898D02*
X389504D01*
X389876Y597451D02*
X390600Y598175D01*
X380702Y595525D02*
X441940D01*
X443736Y596269D02*
X457222Y609755D01*
X423438Y609550D02*
X454258D01*
X477744Y609831D02*
X488375Y599200D01*
X456054Y610294D02*
X456108Y610348D01*
X456656Y610575D02*
X475948D01*
X353700Y516585D02*
Y532600D01*
X352825Y516560D02*
Y533325D01*
X357194Y535906D02*
X358325Y534775D01*
X349507Y536943D02*
X349600Y536850D01*
X350083Y536650D02*
X355398D01*
X355819Y535306D02*
X358050Y533075D01*
X350200Y536050D02*
X354023D01*
X348525Y536925D02*
X348834Y536616D01*
X354669Y534681D02*
X356581Y532769D01*
X358377Y532025D02*
X359150D01*
X349400Y535425D02*
X352873D01*
X347550Y536600D02*
X348248Y535902D01*
X392298Y474697D02*
X402054Y464941D01*
X368914Y474697D02*
X392298D01*
X425598Y464197D02*
X425879Y463916D01*
X403850Y464197D02*
X425598D01*
X458902Y463172D02*
X477295D01*
X427675D02*
X458902D01*
X425550Y465800D02*
X425797Y465553D01*
X421940Y465800D02*
X425550D01*
X427593Y464809D02*
X458866D01*
X351975Y514602D02*
Y534025D01*
X352719Y512806D02*
X387100Y478425D01*
X388682Y477770D02*
X389982D01*
X412220Y478331D02*
X423282Y467270D01*
X390427Y479075D02*
X410424D01*
X370175Y477052D02*
X390870D01*
X424026Y466558D02*
X424045Y466577D01*
X443849Y479056D02*
X456586Y466320D01*
X390602Y479800D02*
X442053D01*
X424045Y466577D02*
X451957D01*
X454980Y465325D02*
X457029D01*
X457108Y465358D02*
X457108Y465358D01*
X458866Y464809D02*
X476382D01*
X476719Y466394D02*
X486748Y476423D01*
X487900Y476900D02*
X488223D01*
X358191Y484367D02*
X367118Y475441D01*
X347919Y493931D02*
X356982Y484868D01*
X358673Y486070D02*
X359067D01*
X368083Y477053D01*
X359111Y487064D02*
X368379Y477796D01*
X358033Y487400D02*
X358300D01*
X351458Y494892D02*
X357900Y488450D01*
X422527Y466350D02*
X423525D01*
X390870Y477052D02*
X409721D01*
X411517Y476308D02*
X420731Y467094D01*
X392262Y476309D02*
X409388D01*
X369879D02*
X392262D01*
X411185Y475565D02*
X420250Y466500D01*
X491076Y477226D02*
X491600Y477750D01*
X489920Y476855D02*
X490181D01*
X490019Y477644D02*
X490025Y477650D01*
X486621Y479956D02*
X488827Y477750D01*
X489340Y476275D02*
X489920Y476855D01*
X478008Y465483D02*
X488800Y476275D01*
X489340D01*
X489850Y474675D02*
X490072Y474812D01*
X492419Y476265D01*
X479091Y463916D02*
X489850Y474675D01*
X388847Y597025D02*
X395548D01*
X379352D02*
X388847D01*
X397344Y597769D02*
X397375Y597800D01*
X355800Y614198D02*
X355825Y614223D01*
X355800Y601700D02*
Y614198D01*
X357500Y601700D02*
Y613373D01*
D148*
X355457Y592632D02*
G03*
X355467Y592608I34J0D01*
G01*
X389350Y472375D02*
G03*
X389325Y472400I-25J0D01*
G01*
X389350Y470300D02*
G03*
X389250Y470200I0J-100D01*
G01*
X352900Y595189D02*
X353957Y594132D01*
X391275Y603650D02*
Y605750D01*
X391275Y603650D02*
X391275Y603650D01*
X391275Y602350D02*
Y603650D01*
X457875Y613900D02*
Y615150D01*
Y617250D01*
X493232Y601593D02*
X494707Y603068D01*
X492225Y600575D02*
X493232Y601593D01*
X490375Y474050D02*
X491109Y472850D01*
X455925Y458700D02*
Y460800D01*
Y462225D01*
X422625Y459775D02*
Y461850D01*
X422625Y461850D01*
Y463250D01*
X389325Y473800D02*
X389325D01*
X389325Y472400D02*
Y473800D01*
X355467Y592608D02*
X356375Y591700D01*
X424575Y612900D02*
Y614150D01*
Y616250D01*
X353957Y594132D02*
X355457Y592632D01*
D153*
X457108Y465358D02*
D03*
D160*
X478000Y478875D02*
D03*
Y480725D02*
D03*
X482400Y596525D02*
D03*
Y594675D02*
D03*
D165*
X346300Y527100D02*
D03*
X344300D02*
D03*
X343300Y532500D02*
D03*
X345300Y532500D02*
D03*
X389275Y605750D02*
D03*
X391275D02*
D03*
X389275Y603650D02*
D03*
X391275D02*
D03*
X422575Y616250D02*
D03*
X424575D02*
D03*
X422575Y614150D02*
D03*
X424575D02*
D03*
X455875Y617250D02*
D03*
X457875D02*
D03*
X455875Y615150D02*
D03*
X457875D02*
D03*
X457925Y458700D02*
D03*
X455925D02*
D03*
X457925Y460800D02*
D03*
X455925D02*
D03*
X424625Y459775D02*
D03*
X422625Y459775D02*
D03*
X391325Y472400D02*
D03*
X389325Y472400D02*
D03*
X391350Y470300D02*
D03*
X389350D02*
D03*
X424625Y461850D02*
D03*
X422625Y461850D02*
D03*
D171*
X356775Y581800D02*
D03*
X358625D02*
D03*
X399225Y597800D02*
D03*
X397375D02*
D03*
X352925Y498000D02*
D03*
X351075D02*
D03*
D182*
X355366Y481400D02*
D03*
X353634Y482400D02*
D03*
X356466Y483200D02*
D03*
X354734Y484200D02*
D03*
D202*
X342800Y534900D02*
D03*
X342800Y540500D02*
D03*
D272*
X424575Y616250D02*
G03*
X424600Y616310I-60J60D01*
G01*
X342100Y527100D02*
X344300D01*
X343300Y531100D02*
Y532500D01*
X343600Y534900D02*
X345300Y533200D01*
Y532500D02*
Y533200D01*
X491011Y602200D02*
X491818Y603007D01*
X490900Y602200D02*
X491011D01*
X354043Y591218D02*
X354775Y590341D01*
X351500Y593800D02*
X352543Y592718D01*
X389275Y603650D02*
X389300Y602500D01*
X389275Y605750D02*
X389300Y607200D01*
X391300Y605775D02*
Y607094D01*
X391275Y605750D02*
X391300Y605775D01*
X422575Y614150D02*
X422600Y613200D01*
X422575Y616250D02*
X422600Y617600D01*
X424600Y616310D02*
Y617700D01*
X455875Y617250D02*
X455900Y618700D01*
X455875Y615150D02*
X455900Y614100D01*
X457900Y617250D02*
Y618700D01*
X493293Y604482D02*
X494200Y605400D01*
X494707Y603068D02*
X495839Y604200D01*
X354600Y480100D02*
X355366Y481400D01*
X356466Y483200D02*
X356900Y483900D01*
X391300Y468800D02*
X391350Y470300D01*
X391300Y473400D02*
X391325Y472400D01*
X389350Y468750D02*
Y472375D01*
X424600Y458400D02*
X424625Y459775D01*
X424600Y462900D02*
X424625Y461850D01*
X457900Y457300D02*
Y457400D01*
X457925Y458700D01*
Y460800D02*
X458000Y461900D01*
X456000Y457200D02*
Y458625D01*
X455925Y458700D02*
X456000Y458625D01*
X492209Y471050D02*
X492975Y469812D01*
X493941Y472050D02*
X494700Y470800D01*
X492300Y474900D02*
X492841Y473850D01*
X422625Y458300D02*
Y459775D01*
X457875Y617250D02*
X457900D01*
X399225Y597800D02*
X400700D01*
D275*
X335280Y558100D02*
D03*
D276*
X309200Y529120D02*
D03*
D277*
X326700Y523800D02*
D03*
X328224Y534145D02*
D03*
D278*
X329153Y524457D02*
D03*
X325771Y533487D02*
D03*
D279*
X299900Y540271D02*
D03*
Y552310D02*
D03*
D280*
X329800Y537900D02*
D03*
D281*
X302461Y490083D02*
D03*
X342461Y458083D02*
D03*
X380461Y445083D02*
D03*
X416461Y438083D02*
D03*
X458461Y441083D02*
D03*
X498461Y458083D02*
D03*
X528461Y484083D02*
D03*
Y596083D02*
D03*
X498461Y622083D02*
D03*
X458461Y639083D02*
D03*
X416461Y642083D02*
D03*
X380461Y635083D02*
D03*
X342461Y622083D02*
D03*
X302461Y585083D02*
D03*
D282*
X534000Y552300D02*
D03*
D283*
Y557300D02*
D03*
D284*
X349299Y532100D02*
D03*
X348300Y532800D02*
D03*
X329400Y571600D02*
D03*
X328100Y569900D02*
D03*
X338300Y531000D02*
D03*
X321400Y537800D02*
D03*
X350200Y530900D02*
D03*
X346200Y537300D02*
D03*
X347900Y534500D02*
D03*
X350200Y533600D02*
D03*
X365400Y521800D02*
D03*
Y522900D02*
D03*
Y524000D02*
D03*
Y525100D02*
D03*
Y526200D02*
D03*
Y527200D02*
D03*
X362700Y530700D02*
D03*
X357700Y531000D02*
D03*
X354825Y531900D02*
D03*
X379700Y481400D02*
D03*
X346500Y515100D02*
D03*
X348700Y525400D02*
D03*
X320600Y533100D02*
D03*
X312100Y531200D02*
D03*
X319300Y533200D02*
D03*
X341400Y562500D02*
D03*
X343300Y553975D02*
D03*
X339800Y543700D02*
D03*
X345000Y546600D02*
D03*
X344200Y552400D02*
D03*
X346400Y555500D02*
D03*
X339000Y537800D02*
D03*
X360000Y539600D02*
D03*
X357000Y548900D02*
D03*
X355700Y545600D02*
D03*
X341900Y548500D02*
D03*
X340700Y546400D02*
D03*
X337300Y545100D02*
D03*
X346300Y524900D02*
D03*
X342100Y527100D02*
D03*
X342300Y532100D02*
D03*
X343300Y531100D02*
D03*
X345300Y531000D02*
D03*
X346300Y531400D02*
D03*
X361000Y521100D02*
D03*
X359300Y530000D02*
D03*
X362700Y528600D02*
D03*
X490900Y602200D02*
D03*
X331000Y549494D02*
D03*
X333406Y535506D02*
D03*
X333900Y523100D02*
D03*
X326806Y551006D02*
D03*
X312306Y542006D02*
D03*
X320206Y539306D02*
D03*
X319306Y544506D02*
D03*
X327606Y542206D02*
D03*
X327346Y547158D02*
D03*
X326346Y547158D02*
D03*
X325346Y547158D02*
D03*
X326352Y546157D02*
D03*
X339400Y528300D02*
D03*
X355800Y525500D02*
D03*
X342900Y542200D02*
D03*
X343900Y542200D02*
D03*
X345000Y542200D02*
D03*
X354775Y590341D02*
D03*
X351475Y593841D02*
D03*
X352900Y595189D02*
D03*
X375745Y617225D02*
D03*
X389275Y602441D02*
D03*
Y607241D02*
D03*
X391300Y607094D02*
D03*
X411562Y626801D02*
D03*
X455900Y613900D02*
D03*
X422600Y613000D02*
D03*
X422575Y617641D02*
D03*
X424600Y617700D02*
D03*
X449175Y632745D02*
D03*
X455875Y618741D02*
D03*
X457900Y618700D02*
D03*
X489406Y620715D02*
D03*
X494175Y605441D02*
D03*
X495839Y604200D02*
D03*
X517675Y579041D02*
D03*
X335200Y490500D02*
D03*
X354575Y480141D02*
D03*
X356875Y483941D02*
D03*
X352800Y481100D02*
D03*
X373587Y459576D02*
D03*
X391275Y468841D02*
D03*
Y473441D02*
D03*
X389350Y468750D02*
D03*
X409081Y450170D02*
D03*
X424600Y458200D02*
D03*
X424575Y462941D02*
D03*
X422625Y458300D02*
D03*
X457875Y457341D02*
D03*
X457975Y461941D02*
D03*
X456000Y457200D02*
D03*
X457400Y465650D02*
D03*
X446672Y442242D02*
D03*
X487347Y453744D02*
D03*
X492975Y469812D02*
D03*
X494675Y470841D02*
D03*
X492275Y474941D02*
D03*
X520750Y498500D02*
D03*
X355400Y581800D02*
D03*
X324300Y572700D02*
D03*
X327358Y546150D02*
D03*
X327358Y545150D02*
D03*
X326358Y545150D02*
D03*
X325358Y546150D02*
D03*
Y545150D02*
D03*
X335399Y545744D02*
D03*
Y555494D02*
D03*
X451200Y476200D02*
D03*
X478000Y477600D02*
D03*
X354300Y498000D02*
D03*
X482400Y597900D02*
D03*
X449500Y597600D02*
D03*
X417200Y597700D02*
D03*
X391275Y600500D02*
D03*
X391275Y602350D02*
D03*
X457875Y611975D02*
D03*
Y613900D02*
D03*
X491000Y599300D02*
D03*
X492225Y600575D02*
D03*
X489400Y475575D02*
D03*
X490375Y474050D02*
D03*
X455925Y464000D02*
D03*
X422625Y465000D02*
D03*
X455925Y462225D02*
D03*
X422625Y463250D02*
D03*
X509800Y604100D02*
D03*
X511300Y598200D02*
D03*
X510100Y596700D02*
D03*
X505900Y604800D02*
D03*
X504700Y603400D02*
D03*
X503400Y601900D02*
D03*
X529800Y572000D02*
D03*
X524600Y575200D02*
D03*
X522700Y574500D02*
D03*
X529300Y568100D02*
D03*
X527400Y567300D02*
D03*
X525500Y566700D02*
D03*
X519750Y581958D02*
D03*
X518678Y583577D02*
D03*
X529700Y503900D02*
D03*
X529300Y507900D02*
D03*
X527300Y508600D02*
D03*
X525400Y509200D02*
D03*
X524500Y500800D02*
D03*
X522500Y501400D02*
D03*
X517062Y498842D02*
D03*
X515992Y497123D02*
D03*
X511700Y478000D02*
D03*
X510300Y479500D02*
D03*
X510400Y472100D02*
D03*
X506400Y471100D02*
D03*
X505100Y472700D02*
D03*
X503600Y474100D02*
D03*
X329825Y496550D02*
D03*
X397400Y457100D02*
D03*
X487000Y457700D02*
D03*
X489500Y460900D02*
D03*
X488500Y462700D02*
D03*
X487600Y464600D02*
D03*
X481000Y459000D02*
D03*
X480100Y460800D02*
D03*
X487175Y449998D02*
D03*
X485175Y449098D02*
D03*
X475600Y456900D02*
D03*
X474900Y458900D02*
D03*
X472200Y451700D02*
D03*
X468200Y452200D02*
D03*
X467600Y454100D02*
D03*
X466700Y456000D02*
D03*
X445071Y438650D02*
D03*
X442971D02*
D03*
X447600Y446800D02*
D03*
X451100Y448900D02*
D03*
X451000Y450900D02*
D03*
X450900Y452900D02*
D03*
X442500Y450300D02*
D03*
X442400Y452400D02*
D03*
X432400Y447200D02*
D03*
X437700Y450400D02*
D03*
X437900Y452300D02*
D03*
X429000Y449300D02*
D03*
X429100Y451300D02*
D03*
X429300Y453300D02*
D03*
X333675Y497050D02*
D03*
X337366Y493825D02*
D03*
X336116Y495375D02*
D03*
X332900Y498675D02*
D03*
X331375Y495575D02*
D03*
X316626Y510247D02*
D03*
X321863Y506555D02*
D03*
X323773Y507122D02*
D03*
X317098Y514340D02*
D03*
X319008Y514906D02*
D03*
X320818Y515475D02*
D03*
X336485Y480931D02*
D03*
X340685Y480431D02*
D03*
X341885Y482031D02*
D03*
X342985Y483631D02*
D03*
X334885Y486931D02*
D03*
X335985Y488531D02*
D03*
X516000Y522950D02*
D03*
X517300Y522950D02*
D03*
X519800D02*
D03*
X518500D02*
D03*
X521000D02*
D03*
X535500Y524100D02*
D03*
Y522800D02*
D03*
Y521400D02*
D03*
Y519900D02*
D03*
Y518400D02*
D03*
Y516900D02*
D03*
Y515300D02*
D03*
X536500Y523400D02*
D03*
Y522000D02*
D03*
Y520600D02*
D03*
Y519100D02*
D03*
Y517700D02*
D03*
Y516100D02*
D03*
X533300Y524100D02*
D03*
Y522800D02*
D03*
Y521400D02*
D03*
Y519900D02*
D03*
Y518400D02*
D03*
Y516900D02*
D03*
Y515300D02*
D03*
X534300Y523400D02*
D03*
Y522000D02*
D03*
Y520600D02*
D03*
Y519100D02*
D03*
Y517700D02*
D03*
Y516100D02*
D03*
X531000Y524100D02*
D03*
Y522800D02*
D03*
Y521400D02*
D03*
Y519900D02*
D03*
Y518400D02*
D03*
Y516900D02*
D03*
Y515300D02*
D03*
X532000Y523400D02*
D03*
Y522000D02*
D03*
Y520600D02*
D03*
Y519100D02*
D03*
Y517700D02*
D03*
Y516100D02*
D03*
X529800D02*
D03*
Y517700D02*
D03*
Y519100D02*
D03*
Y520600D02*
D03*
Y522000D02*
D03*
Y523400D02*
D03*
X528800Y515300D02*
D03*
Y516900D02*
D03*
Y518400D02*
D03*
Y519900D02*
D03*
Y521400D02*
D03*
Y522800D02*
D03*
Y524100D02*
D03*
X528500Y526600D02*
D03*
X521700Y533950D02*
D03*
X519200D02*
D03*
X520500D02*
D03*
X518000D02*
D03*
X516700Y533950D02*
D03*
X500500Y537800D02*
D03*
Y538800D02*
D03*
Y539800D02*
D03*
X513600D02*
D03*
Y538800D02*
D03*
Y537700D02*
D03*
X511800Y538800D02*
D03*
X510800D02*
D03*
X512400Y538100D02*
D03*
Y539500D02*
D03*
X511300Y538100D02*
D03*
Y539500D02*
D03*
X510300Y538100D02*
D03*
Y539500D02*
D03*
X509100Y537700D02*
D03*
Y538700D02*
D03*
Y539800D02*
D03*
X507300Y544400D02*
D03*
X503800Y546300D02*
D03*
X503800Y547600D02*
D03*
Y550100D02*
D03*
Y548800D02*
D03*
Y551300D02*
D03*
X527000Y557900D02*
D03*
X516700Y558100D02*
D03*
X519800Y554400D02*
D03*
X524500Y557900D02*
D03*
X525800D02*
D03*
X523300D02*
D03*
X522000D02*
D03*
X361100Y474600D02*
D03*
X360600Y472500D02*
D03*
X360100Y470700D02*
D03*
X369600Y472200D02*
D03*
X369000Y470300D02*
D03*
X363200Y468000D02*
D03*
X369019Y457608D02*
D03*
X371069Y456908D02*
D03*
X404785Y447600D02*
D03*
X406860Y447175D02*
D03*
X394800Y463400D02*
D03*
X394400Y461400D02*
D03*
X394000Y459500D02*
D03*
X371900Y471700D02*
D03*
X371100Y469800D02*
D03*
X379900Y468400D02*
D03*
X379100Y466400D02*
D03*
X378300Y464400D02*
D03*
X374200Y464300D02*
D03*
X403300Y461700D02*
D03*
X402900Y459800D02*
D03*
X406200Y461300D02*
D03*
X405500Y459400D02*
D03*
X414300Y458800D02*
D03*
X413700Y456900D02*
D03*
X413100Y455000D02*
D03*
X409000Y454400D02*
D03*
X487700Y611300D02*
D03*
X488600Y613200D02*
D03*
X489400Y615000D02*
D03*
X480000Y615200D02*
D03*
X481000Y616900D02*
D03*
X486800Y618200D02*
D03*
X489250Y624300D02*
D03*
X487275Y625150D02*
D03*
X466600Y619900D02*
D03*
X467400Y621800D02*
D03*
X468100Y623700D02*
D03*
X472000Y624200D02*
D03*
X474600Y617100D02*
D03*
X475200Y619000D02*
D03*
X450800Y623200D02*
D03*
X450900Y625100D02*
D03*
X451000Y627200D02*
D03*
X442400Y623600D02*
D03*
X442500Y625600D02*
D03*
X447400Y629100D02*
D03*
X429500Y622700D02*
D03*
X429300Y624700D02*
D03*
X429100Y626800D02*
D03*
X432400Y628900D02*
D03*
X437900Y623700D02*
D03*
X437600Y625800D02*
D03*
X445575Y636104D02*
D03*
X447775D02*
D03*
X394200Y616400D02*
D03*
X394700Y614500D02*
D03*
X395100Y612400D02*
D03*
X403100Y614200D02*
D03*
X402700Y616200D02*
D03*
X397300Y618900D02*
D03*
X405700Y616500D02*
D03*
X406300Y614600D02*
D03*
X414200Y617000D02*
D03*
X413700Y618800D02*
D03*
X413100Y620800D02*
D03*
X409300Y621500D02*
D03*
X409255Y629695D02*
D03*
X361100Y601300D02*
D03*
X360500Y603200D02*
D03*
X359900Y605100D02*
D03*
X369000Y603700D02*
D03*
X368300Y605600D02*
D03*
X362800Y607800D02*
D03*
X371800Y604400D02*
D03*
X371100Y606300D02*
D03*
X379600Y607600D02*
D03*
X378800Y609400D02*
D03*
X378100Y611200D02*
D03*
X374100Y611600D02*
D03*
X373165Y619808D02*
D03*
X371165Y619108D02*
D03*
X340700Y595500D02*
D03*
X341800Y593800D02*
D03*
X342900Y592200D02*
D03*
X336100Y587500D02*
D03*
X335000Y589100D02*
D03*
X336800Y594900D02*
D03*
X321000Y560400D02*
D03*
X319200Y561200D02*
D03*
X317300Y561800D02*
D03*
X316700Y565800D02*
D03*
X323700Y568600D02*
D03*
X321800Y569100D02*
D03*
X356700Y486400D02*
D03*
X389325Y473800D02*
D03*
X389975Y475425D02*
D03*
X363700Y460275D02*
D03*
X364593Y462828D02*
D03*
X365300Y459446D02*
D03*
X366415Y463013D02*
D03*
X401284Y452514D02*
D03*
X400677Y448825D02*
D03*
X399506Y452076D02*
D03*
X398977Y449424D02*
D03*
X437021Y439684D02*
D03*
X437034Y442389D02*
D03*
X438804Y439421D02*
D03*
X438696Y443157D02*
D03*
X479447Y451699D02*
D03*
X481006Y448302D02*
D03*
X478218Y450342D02*
D03*
X479262Y447847D02*
D03*
X515309Y494344D02*
D03*
X517644Y492980D02*
D03*
X514189Y492931D02*
D03*
X517479Y491156D02*
D03*
X515739Y586756D02*
D03*
X512740Y584525D02*
D03*
X514156Y587676D02*
D03*
X511933Y586136D02*
D03*
X484461Y625730D02*
D03*
X483392Y623246D02*
D03*
X482923Y626668D02*
D03*
X481562Y623187D02*
D03*
X441204Y631817D02*
D03*
X441096Y635554D02*
D03*
X442866Y632586D02*
D03*
X442879Y635291D02*
D03*
X407262Y629261D02*
D03*
X404735Y627892D02*
D03*
X405330Y625254D02*
D03*
X402939Y627747D02*
D03*
X403884Y624131D02*
D03*
X369798Y614899D02*
D03*
X368477Y613631D02*
D03*
X329473Y574793D02*
D03*
X327266Y576355D02*
D03*
X330711Y576102D02*
D03*
X327589Y578157D02*
D03*
X365325Y624775D02*
D03*
X367850D02*
D03*
X394175Y629725D02*
D03*
X395175Y628725D02*
D03*
X410075Y638000D02*
D03*
X410050Y636475D02*
D03*
X354825Y589050D02*
D03*
X358325Y534775D02*
D03*
X357800Y587775D02*
D03*
X390600Y598175D02*
D03*
X389504Y598898D02*
D03*
X388175Y599700D02*
D03*
X388302Y601578D02*
D03*
X423918Y608755D02*
D03*
X422829Y609298D02*
D03*
X421638Y610216D02*
D03*
X421602Y612078D02*
D03*
X457222Y609755D02*
D03*
X456108Y610348D02*
D03*
X454942Y611216D02*
D03*
X454906Y613078D02*
D03*
X489150Y598400D02*
D03*
X488375Y599200D02*
D03*
X488075Y600550D02*
D03*
X489650Y602175D02*
D03*
X357900Y488450D02*
D03*
X359067Y486070D02*
D03*
X358191Y484367D02*
D03*
X389957Y477770D02*
D03*
X390870Y477052D02*
D03*
X392262Y476309D02*
D03*
X392298Y474697D02*
D03*
X423282Y467270D02*
D03*
X424045Y466577D02*
D03*
X425550Y465800D02*
D03*
X425598Y464197D02*
D03*
X456586Y466320D02*
D03*
X458866Y464809D02*
D03*
X458902Y463172D02*
D03*
X491600Y477750D02*
D03*
X492419Y476265D02*
D03*
X354400Y540975D02*
D03*
X353625Y540125D02*
D03*
X352900Y539350D02*
D03*
X352000Y538425D02*
D03*
X350375Y537475D02*
D03*
X356050Y587700D02*
D03*
X358900Y588325D02*
D03*
X357725Y590375D02*
D03*
X356375Y591700D02*
D03*
X424575Y610950D02*
D03*
X424575Y612900D02*
D03*
X353700Y532600D02*
D03*
X352825Y533325D02*
D03*
X351975Y534025D02*
D03*
X351075Y534700D02*
D03*
X359150Y532025D02*
D03*
X358050Y533075D02*
D03*
X348150Y537830D02*
D03*
X349100Y537925D02*
D03*
X355300Y485400D02*
D03*
X358300Y487400D02*
D03*
X418700Y476200D02*
D03*
X490025Y477650D02*
D03*
X488827Y477750D02*
D03*
X400700Y597800D02*
D03*
X343400Y543500D02*
D03*
X355800Y601700D02*
D03*
X357500D02*
D03*
X368931Y617461D02*
D03*
X367159Y616429D02*
D03*
D285*
X450254Y475254D02*
D03*
X448946Y473946D02*
D03*
X417854Y475354D02*
D03*
X416546Y474046D02*
D03*
X380646Y482246D02*
D03*
X381954Y483554D02*
D03*
D286*
X448554Y598446D02*
D03*
X447246Y599754D02*
D03*
X416254Y598546D02*
D03*
X414946Y599854D02*
D03*
D287*
X352543Y592718D02*
D03*
X353957Y594132D02*
D03*
X354043Y591218D02*
D03*
X355457Y592632D02*
D03*
D288*
X493293Y604482D02*
D03*
X494707Y603068D02*
D03*
X491818Y603007D02*
D03*
X493232Y601593D02*
D03*
D289*
X493941Y472050D02*
D03*
X492209Y471050D02*
D03*
X492841Y473850D02*
D03*
X491109Y472850D02*
D03*
M02*
