M48
;Layer_Color=9474304
;FILE_FORMAT=4:3
METRIC,LZ
;TYPE=PLATED
T1F00S00C0.300
T2F00S00C0.700
T3F00S00C0.800
T4F00S00C0.900
T5F00S00C0.920
T6F00S00C1.200
T7F00S00C2.400
T8F00S00C3.400
%
T01
X05104Y04721
X05064Y04711
X05051Y04727
X05036Y04741
X0492275Y0474941
X0490375Y047405
X04894Y0475575
X0492975Y0469812
X0494675Y0470841
X04876Y04646
X04885Y04627
X04895Y04609
X0487Y04577
X0487347Y0453744
X0487175Y0449998
X0485175Y0449098
X0481006Y0448302
X0479262Y0447847
X0478218Y0450342
X0479447Y0451699
X0481Y0459
X04801Y04608
X04749Y04589
X04756Y04569
X04722Y04517
X04682Y04522
X04676Y04541
X04667Y0456
X0457875Y0457341
X0456Y04572
X0455925Y0462225
Y0464
X0456586Y046632
X04574Y046565
X0458866Y0464809
X0458902Y0463172
X0457975Y0461941
X04509Y04529
X0451Y04509
X04511Y04489
X04476Y04468
X0446672Y0442242
X0445071Y043865
X0442971
X0438804Y0439421
X0437021Y0439684
X0437034Y0442389
X0438696Y0443157
X04377Y04504
X04379Y04523
X04424Y04524
X04425Y04503
X04512Y04762
X04187
X0423282Y046727
X0424045Y0466577
X042555Y04658
X0425598Y0464197
X0424575Y0462941
X0422625Y046325
Y0465
X0422625Y04583
X04246Y04582
X04293Y04533
X04291Y04513
X0429Y04493
X04324Y04472
X040686Y0447175
X0404785Y04476
X0400677Y0448825
X0398977Y0449424
X0399506Y0452076
X0401284Y0452514
X03974Y04571
X04029Y04598
X04033Y04617
X04062Y04613
X04055Y04594
X0409Y04544
X0409081Y045017
X04131Y0455
X04137Y04569
X04143Y04588
X0394Y04595
X03944Y04614
X03948Y04634
X0391275Y0468841
X038935Y046875
X0389325Y04738
X0389975Y0475425
X0392298Y0474697
X0391275Y0473441
X03799Y04684
X03791Y04664
X03783Y04644
X03742Y04643
X0373587Y0459576
X0371069Y0456908
X0369019Y0457608
X03653Y0459446
X03637Y0460275
X0364593Y0462828
X0366415Y0463013
X03632Y0468
X03601Y04707
X03606Y04725
X03611Y04746
X03696Y04722
X0369Y04703
X03711Y04698
X03719Y04717
X0316626Y0510247
X0317098Y051434
X0319008Y0514906
X0320818Y0515475
X0321863Y0506555
X0323773Y0507122
X0329825Y049655
X0331375Y0495575
X0333675Y049705
X03329Y0498675
X0336116Y0495375
X0337366Y0493825
X03352Y04905
X0335985Y0488531
X0334885Y0486931
X0336485Y0480931
X0340685Y0480431
X0341885Y0482031
X0342985Y0483631
X03528Y04811
X0354575Y0480141
X03553Y04854
X03567Y04864
X0356875Y0483941
X03543Y0498
X03465Y05151
X03579Y048845
X03583Y04874
X0359067Y048607
X0358191Y0484367
X03797Y04814
X0389957Y047777
X039087Y0477052
X0392262Y0476309
X0478Y04776
X0488827Y047775
X0490025Y047765
X04916Y047775
X0492419Y0476265
X05117Y0478
X05103Y04795
X0514189Y0492931
X0515309Y0494344
X0515992Y0497123
X0517062Y0498842
X052075Y04985
X05225Y05014
X05245Y05008
X05297Y05039
X05293Y05079
X05273Y05086
X05254Y05092
X05288Y05153
X0531
X05333
X05355
X0517644Y049298
X0517479Y0491156
X05173Y052295
X05185
X05198
X0521
X0516Y052295
X05167Y053395
X0518Y053395
X05192
X05205
X05217
X05285Y05266
X05288Y05241
Y05228
Y05214
Y05199
Y05184
Y05169
X05298Y05161
Y05177
Y05191
Y05206
Y0522
Y05234
X0531Y05228
Y05241
X0532Y05234
Y0522
Y05206
Y05191
Y05177
Y05161
X0531Y05169
Y05184
Y05199
Y05214
X05333
Y05228
Y05241
X05343Y05234
Y0522
Y05206
Y05191
Y05177
Y05161
X05333Y05169
Y05184
Y05199
X05355
Y05184
Y05169
X05365Y05177
Y05191
Y05206
Y0522
Y05234
X05355Y05228
Y05241
Y05214
X05365Y05161
X05198Y05544
X05038Y05513
Y05501
Y05488
Y05476
X05038Y05463
X05073Y05444
X05091Y05398
Y05387
Y05377
X05103Y05381
X05113
X05124
X05118Y05388
X05108
X05103Y05395
X05113
X05124
X05136Y05398
Y05388
Y05377
X05005Y05378
Y05388
Y05398
X036Y05396
X0358325Y0534775
X035805Y0533075
X035915Y0532025
X03593Y053
X03577Y0531
X03627Y05307
X03627Y05286
X03654Y05272
Y05262
Y05251
Y0524
Y05229
Y05218
X0361Y05211
X03558Y05255
X03487Y05254
X03463Y05249
X03421Y05271
X03394Y05283
X03383Y0531
X03423Y05321
X03433Y05311
X03453Y0531
X03463Y05314
X03483Y05328
X0349299Y05321
X03502Y05309
Y05336
X0351075Y05347
X0351975Y0534025
X0352825Y0533325
X03537Y05326
X0354825Y05319
X0352Y0538425
X03529Y053935
X0353625Y0540125
X03544Y0540975
X03557Y05456
X0357Y05489
X0345Y05466
X0345Y05422
X03439Y05422
X03429Y05422
X03434Y05435
X03398Y05437
X03407Y05464
X03419Y05485
X03442Y05524
X03433Y0553975
X03464Y05555
X0335399Y0555494
Y0545744
X03373Y05451
X0339Y05378
X03462Y05373
X034815Y053783
X03491Y0537925
X0350375Y0537475
X03479Y05345
X0333406Y0535506
X0327606Y0542206
X0327358Y054515
X0326358Y054515
X0325358
Y054615
X0326352Y0546157
X0326346Y0547158
X0325346Y0547158
X0327346
X0327358Y054615
X0326806Y0551006
X0331Y0549494
X0319306Y0544506
X0320206Y0539306
X03214Y05378
X03206Y05331
X03193Y05332
X03339Y05231
X03121Y05312
X0312306Y0542006
X03173Y05618
X03167Y05658
X03192Y05612
X0321Y05604
X03218Y05691
X03237Y05686
X03243Y05727
X03294Y05716
X03281Y05699
X0329473Y0574793
X0330711Y0576102
X0327266Y0576355
X0327589Y0578157
X03361Y05875
X0335Y05891
X03368Y05949
X03418Y05938
X03429Y05922
X0351475Y0593841
X03529Y0595189
X0354775Y0590341
X0354825Y058905
X035605Y05877
X0356375Y05917
X03554Y05818
X03414Y05625
X03578Y0587775
X03589Y0588325
X0357725Y0590375
X0511933Y0586136
X051274Y0584525
X0514156Y0587676
X0515739Y0586756
X0518678Y0583577
X051975Y0581958
X0517675Y0579041
X05227Y05745
X05246Y05752
X05298Y0572
X05293Y05681
X05274Y05673
X05255Y05667
X05258Y05579
X0527
X05245
X05233
X0522
X05167Y05581
X05101Y05967
X05113Y05982
X05098Y06041
X05059Y06048
X05047Y06034
X05034Y06019
X0495839Y06042
X0494175Y0605441
X04909Y06022
X048965Y0602175
X0488075Y060055
X0488375Y05992
X048915Y05984
X0491Y05993
X0492225Y0600575
X04824Y05979
X04877Y06113
X04886Y06132
X04894Y0615
X0489406Y0620715
X048925Y06243
X0487275Y062515
X0484461Y062573
X0482923Y0626668
X0483392Y0623246
X0481562Y0623187
X0481Y06169
X048Y06152
X04868Y06182
X04752Y0619
X04746Y06171
X0472Y06242
X04681Y06237
X04674Y06218
X04666Y06199
X04579Y06187
X0455875Y0618741
X04559Y06139
X0454906Y0613078
X0454942Y0611216
X0456108Y0610348
X0457222Y0609755
X0457875Y0611975
Y06139
X04508Y06232
X04509Y06251
X0451Y06272
X04474Y06291
X0449175Y0632745
X0442866Y0632586
X0441204Y0631817
X04425Y06256
X04424Y06236
X04379Y06237
X04376Y06258
X04495Y05976
X04172Y05977
X04007Y05978
X04031Y06142
X04027Y06162
X04057Y06165
X04063Y06146
X04093Y06215
X04131Y06208
X04137Y06188
X04142Y0617
X0422575Y0617641
X04246Y06177
X0424575Y06129
X0424575Y061095
X0423918Y0608755
X0422829Y0609298
X0421638Y0610216
X0421602Y0612078
X04226Y0613
X04295Y06227
X04293Y06247
X04291Y06268
X04324Y06289
X0411562Y0626801
X0409255Y0629695
X0407262Y0629261
X0404735Y0627892
X0402939Y0627747
X0403884Y0624131
X040533Y0625254
X03973Y06189
X03942Y06164
X03947Y06145
X03951Y06124
X03913Y0607094
X0389275Y0607241
Y0602441
X0388302Y0601578
X0388175Y05997
X0389504Y0598898
X03906Y0598175
X0391275Y06005
X0391275Y060235
X03796Y06076
X03788Y06094
X03781Y06112
X03741Y06116
X0375745Y0617225
X0373165Y0619808
X0371165Y0619108
X0368931Y0617461
X0367159Y0616429
X0368477Y0613631
X0369798Y0614899
X03711Y06063
X03718Y06044
X0369Y06037
X03683Y06056
X03628Y06078
X03599Y06051
X03605Y06032
X03611Y06013
X03575Y06017
X0365325Y0624775
X036785
X0394175Y0629725
X0395175Y0628725
X03558Y06017
X03407Y05955
X041005Y0636475
X0410075Y0638
X0441096Y0635554
X0442879Y0635291
X0445575Y0636104
X0447775
T02
X05146Y05152
Y05134
X05165
X05184
X05202
X05221
X0524Y05137
X05248Y05152
X05229Y05151
X05231Y05117
X05212Y0512
X05146Y0517
X0329153Y0524457
X03267Y05238
X0325771Y0533487
X0328224Y0534145
T03
X0304843Y0512578
X0307297Y0513235
X030975Y0513893
X0329552Y0519199
X0332005Y0519856
X0334459Y0520513
X03298Y05379
X0327347Y0537243
X0324893Y0536585
X03092Y052912
Y052658
Y052404
Y05215
Y051896
Y051642
X0305092Y0531279
X0302638Y0530622
X0300185Y0529965
X033528Y05581
X033782
X034036
X03429
X034544
T04
X04316Y04325
X047375Y044075
Y044525
X04316Y04371
X0391455Y0445083
X03937Y04485
X03588Y04592
X03555Y04563
X03296Y05022
X03264Y0501
X05145Y048575
X05125Y048375
X05254Y05124
X03373Y05426
X03341Y05799
X03318Y05813
X050625Y05845
X05105Y057875
X04725Y062975
Y06345
X04328Y06333
X04033Y06324
X03982Y06293
X0362858Y0615142
X03634Y06123
X04356Y06353
T05
X030261Y0547541
X030461
Y0545041
X030261Y0545041
T06
X0534Y05523
Y05573
T07
X02999Y055231
Y0540271
T08
X0498461Y0458083
X0458461Y0441083
X0416461Y0438083
X0380461Y0445083
X0342461Y0458083
X0302461Y0490083
X0528461Y0484083
X0302461Y0585083
X0528461Y0596083
X0498461Y0622083
X0342461
X0380461Y0635083
X0416461Y0642083
X0458461Y0639083
M30
